<?xml version="1.0" encoding="utf-8"?>
<!-- Generator: Adobe Illustrator 22.0.1, SVG Export Plug-In . SVG Version: 6.00 Build 0)  -->
<svg version="1.1" id="Calque_1" xmlns="http://www.w3.org/2000/svg" xmlns:xlink="http://www.w3.org/1999/xlink" x="0px" y="0px"
	 viewBox="0 0 351.9 479.3" style="enable-background:new 0 0 351.9 479.3;" xml:space="preserve">
<style type="text/css">
	.st0{fill:#3B505E;}
	.st1{fill:#32ABDF;}
</style>
<g>
	<g>
		<g>
			<path class="st0" d="M91.8,161.2c0.3,1.6-0.9,3.6-0.5,5.8c0.3,1.8,1.2,3.2,1.4,4.7c2-0.5,2.4-2.4,4.5-2.6
				c2.9,1.1,5.3,4.8,3.1,7.6c0.5,0.9,1.6,1.4,2.6,1.8c0.4,0.7,0.3,1.8,0.9,2.4c4.2,0.3,7.7,1.5,12.2,1.8c0.4,0.7-0.4,1.4,0.9,1.6
				c1.9-4-4.1-2.9-7.1-3.4c-0.7-0.1-0.9-0.9-1.4-1.1c-1.4-0.4-2.8,0.6-3.7-0.3c0.1-2-1.8-2.2-2.8-3.2c2-4.7-2.8-10.7-7.4-7.6
				c-2.9-1.6-1.4-5.1-1.4-7.4c-0.3-8.6-16.5-4.7-19.9-1.6C78.3,158.6,90.4,153.6,91.8,161.2z"/>
			<path class="st0" d="M46.9,179.7c2.8-2.8,10.1-1.4,12.8,0.5c1.1-1.3,2.1-2.8,2-4.2c-0.2-2.1-3.2-3.8-1.7-6.3
				c2.4-3.8,7.9-6.6,12.5-9.2c-0.1-0.3-0.5-0.3-0.9-0.3c-5.9,3.2-16.6,7.3-11.7,15.8c-0.5,0.9-1.3,1.6-2,2.4
				c-3-1.6-10.3-2.6-12.8,0.8c0.2,0.7,0.5,4.7,2.8,3.4C49,181.3,46.4,181.3,46.9,179.7z"/>
			<path class="st0" d="M83.6,177.6c-0.3-0.7-0.7-1.3-1.1-1.8c-3.1-0.3-4.5,0.9-6.8,1.3c-1.4-0.3-1-2.1-1.7-2.9
				c-3.7-0.6-8.2,0.3-8.8,3.4c2.4-0.9,3.8-2.6,7.4-2.4c0.7,0.8,0.9,2.2,1.4,3.2c2.2-0.3,3.7,0.1,4.5-1.6c0.2,0.9,2.1,0.3,3.1,0.5
				c0.3,2.7,5.7,1.8,7.4,0.5C87.8,176.6,85.6,177.9,83.6,177.6z"/>
			<path class="st0" d="M93.3,184.4c-12.8-0.7-30-0.9-44.7-0.3c0.3,1,1.5,1.1,2.3,1.6c0.9,0,0.9-0.7,1.7-0.8
				c13,1.1,27.3-0.8,38.1,0.8C91,184.7,93.5,185.8,93.3,184.4z"/>
			<path class="st0" d="M111.2,183.8c-4.4,0-10.8-0.2-13.1,1.1c4.3,0.5,9.4-0.1,14.8,0c1.1,0.1,1.7,1.4,2.6,0.3
				C115.3,183,112.6,183.8,111.2,183.8z"/>
			<g>
				<path class="st0" d="M253.8,82.1c0.7,0.9-0.7,1,0,1.8c0.9-0.1,1.5-0.6,1.4-1.6c-0.3-1.6-3.4-0.5-4-1.8
					c-0.1-7.6,7.8-8.7,15.1-8.2c0.6,0.6,1.1,1.2,1.4,2.1c1.5-1.6-1.1-3.2-2.3-3.4c-3.2-0.7-12.2,1.2-14.2,4.5
					c-1.1,1.9-0.2,3.8-0.9,5.8c-5.1-0.1-12.4,3.2-11.4,7.9c0.1,0.7,1.4,2.3,2.6,1.8c0.5-1.5-1-1.1-1.1-2.6
					C240,83.3,247.5,81.9,253.8,82.1z"/>
				<path class="st0" d="M273.4,79.7c0.4,2-1.8,2.6-0.9,4.2c1.8-0.3,1.2-2.9,2.3-3.9c-0.9-2-3.2-2.6-6.3-2.6c0-0.8,0.9-0.7,0.5-1.8
					c-0.3,0-0.4-0.3-0.9-0.3c-0.3,1.4-1.1,2.3-1.7,3.4C268.1,79.4,272,77.4,273.4,79.7z"/>
				<path class="st0" d="M274.3,83.7c4.2-2.2,8.5,0.9,7.4,5.3c1.7-0.2,5,0.4,7.1,1.3c-0.1-2.8-4.3-1.6-6-2.9
					C283.2,83.1,276.6,79.9,274.3,83.7z"/>
				<path class="st0" d="M254.3,86.3c-2.8-2-7.6-0.1-8.5,2.1c1.8,0,3.3-2.4,6.3-2.1c0.3,0.3,0.3,0.9,0.5,1.3c2.8,0.5,2.4-2,5.4-1.3
					c0.5,0.9,0.5,2.9,2,2.1C260.1,85.1,257,85.3,254.3,86.3z"/>
				<path class="st0" d="M266.6,86.8c0.9,1.7,4.4,0.6,6.5,1.6C272.4,86.2,269.2,86.8,266.6,86.8z"/>
				<path class="st0" d="M282.2,92.6c1.5-1.6,6.9-0.1,8.2-1.1c-1-2-5.1,0.4-7.1-1.1c-0.3,1.1-2.3,0.8-3.4,0.8
					C268.8,91,253.9,91,242.1,91c0.2,2.3,2.8,0.9,4.3,0.8c9.4-0.6,21.7,0.9,31.3-0.3C279.1,92.6,280.7,91.8,282.2,92.6z"/>
			</g>
			<path class="st0" d="M209.4,229.4c1.1-0.4,0.9-2.2,1-3.7c-0.3,0-0.3-0.3-0.7-0.3C209.6,226.2,209.7,228.1,209.4,229.4z"/>
			<path class="st0" d="M255.9,260.7c-2.2,0.7-4.4,6.5-1.1,6.8c-0.5-1.1-0.4-2.6-0.5-3.9c0.7-0.1,0.6,0.5,1.4,0.3
				C255.4,262.4,257.6,261.4,255.9,260.7z"/>
			<g>
				<path class="st0" d="M203.7,334.3c0.1-0.4,0.5-0.6,0.9-0.8c-0.6-1.8-1.4-2.4-1.1-4.5c-2.1-2.3-5.7-2.4-10-1.8
					c-0.8-4.6-5.9-8.3-10.8-6.5c-1.8-6.3-8.7-8.3-16.2-6.3c-1.1,0.3-3.2,1.8-5.1,2.6c-5,2.2-10.5,8-5.1,12.1
					c0.4-1.8-1.4-3.8-0.3-5.8c1-0.5,2-1.2,3.1-1.6c1.7-3,5.1-4.9,9.4-6.1c5.3-1.4,11.6-0.6,13.6,4.7c0.3,0.8-0.5,1.9,0.9,2.4
					c1.7-4.5,9.6,0.3,9.1,3.9c-0.4,0.5-2-0.1-2,0.8c3.9,2.4,10.3-1.6,11.9,2.9C202.6,331.9,201.1,334.3,203.7,334.3z"/>
				<path class="st0" d="M155.1,329.3c-4.1,0.2-9.9-1.1-12.5,1.6c-0.9,2-4.3,4.5-2.3,7.4c0.9-0.1,0.7-2.4,0.3-2.9
					c2-1.5,1.6-3.4,3.7-4.5c3.4-1.8,8.7-0.4,13.1,0.8C157.1,330.4,155.9,330.1,155.1,329.3z"/>
				<path class="st0" d="M149.1,339c3,0.1,4.7-3.2,8.2-3.4c0.9,0.7,1,2,1.7,2.9c4.1-1.6,10.3-2.3,13.1,0.3c0.3-0.5,1.3-0.4,1.1-1.3
					c-3.2-2.4-8-1.7-13.1-0.8C157.8,332,150.7,336.5,149.1,339z"/>
				<path class="st0" d="M189.2,339.6c2.8-0.5,5.4-0.9,8-1.1c-1.4-2.5-3.5-0.2-7.1-0.8c-1.2-2.9-8.4-2.8-9.1,0.8
					c2.1-0.5,4-2.3,6.8-1.3C187.6,338.6,188.5,339,189.2,339.6z"/>
				<path class="st0" d="M207.2,337c0.6,0.4,1.9,0.2,2.6,0.5c1,1.8-0.1,2.9,0,5.3C214,341.6,211.2,333.6,207.2,337z"/>
				<path class="st0" d="M130.3,342.8c1.7-2.8,8.2-1.2,10-3.2c-3.4-3-7.6,1.1-10.8,2.1c-0.3,0.7-0.5,2,0,2.6
					c1.8,0.6,4.6,0.1,6.8,0.3C135.8,342.3,131.3,344.9,130.3,342.8z"/>
				<path class="st0" d="M189.5,343.8c-4.2,0-8.8,0-13.1-0.3c-3.6-0.2-7.5-1.2-11.1-1.3c-2.2-0.1-4,0.5-5.9,0.3
					c-1.1-0.1-2.1-0.7-3.1-0.8c-5.3-0.6-11,1.6-16.2,0.5c-0.7,0.9-2.5,0.8-2.8,2.1c5.9-0.9,11.1,0.3,15.1-1.1
					c14.1,1.1,30.6,2.2,48.7,1.6C197.8,342.6,193.3,343.8,189.5,343.8z"/>
				<path class="st0" d="M202,344.9c2.2-1,6.5,0.9,7.4-0.8C207.8,342.2,203,343.2,202,344.9z"/>
			</g>
			<g>
				<path class="st1" d="M159.5,38.9c2.6-12.6,5.6-26.3,8.4-38.6c-0.1-0.2-0.2-0.3-0.5-0.3c-3.2,14-6.9,29-9.7,42.6
					C159.4,42.3,159.2,40.2,159.5,38.9z"/>
				<path class="st1" d="M139.4,43.6c0.5-3.3-0.9-6.5-1.8-10c-2.5-10.6-4.1-22.2-6.3-32.9c1.5,13.6,4,26.3,6.6,38.6
					C138.8,40.4,137.4,43.4,139.4,43.6z"/>
				<path class="st1" d="M122.6,51.3c-1.4-3.2-4.3-5.7-6.6-8.4c-7.2-8.7-14.2-17.6-21.9-25.5c-0.3,0-0.3-0.3-0.7-0.3
					c8.5,9.9,17.2,20.7,25.4,30.5C119.9,48.8,120.6,51.3,122.6,51.3z"/>
				<path class="st1" d="M171.9,40c3.3-7.2,6.2-15.2,10.2-21.5c0-0.3-0.1-0.6-0.5-0.5c-2.5,4.5-4.9,9.3-7.1,14.2
					c-2.2,4.9-4.9,9.7-6.1,14.7C170.6,45.4,170.8,42.3,171.9,40z"/>
				<path class="st1" d="M128.7,47.3c0.7-1.4-0.7-2.4-1.3-3.4c-2.1-4.2-3.5-9.4-6.3-12.9c0,0.3,0,0.7,0,1.1
					c1.7,4.1,3.7,8.7,5.6,12.6C127.2,45.7,127,47.5,128.7,47.3z"/>
				<path class="st1" d="M150.6,42.1c-0.2-3.5,0.4-8.1-0.5-10.8C150.2,34.4,148.4,40.3,150.6,42.1z"/>
				<path class="st1" d="M203,35.8c0-0.3-0.1-0.6-0.5-0.5c-2.8,3.3-7.1,6.3-8.9,9.7C197.8,43,199.4,38.4,203,35.8z"/>
				<path class="st1" d="M190.7,62.1c3-0.3,5.2-3.1,7.4-5c7-6,14.6-11.3,21.6-17.1c0.1-0.3,0.5-0.6,0-0.8
					c-7.4,5.5-15.1,10.9-22.1,16.5C195.2,57.7,192.6,59.6,190.7,62.1z"/>
				<path class="st1" d="M181.6,41c-1.3,2.9-4,5.7-4.6,8.4c2.8-1.6,3.7-5.1,5.1-8.2C182,41.1,181.9,41,181.6,41z"/>
				<path class="st1" d="M187.2,53.3c2.2-2.2,4.9-3.8,5.6-7.4c-0.1-0.2-0.2-0.3-0.5-0.3c-0.9,1.8-2.7,3.1-4.1,4.7
					c-1.4,1.6-3.2,3.2-3.3,5.3C186.5,55.8,186.6,54.3,187.2,53.3z"/>
				<path class="st1" d="M215.7,59.7c-5.5,2.1-11.4,5.3-16.3,7.9c-1.5,0.8-4.5,1.1-4.3,3.4c1.9,0.1,3.3-1.6,4.9-2.4
					c5.1-2.8,10.1-5.2,15.5-7.6c7.2-3.2,14.4-6.3,20.6-10.5c-0.2,0-0.3,0-0.5,0c-5.7,3.2-12.1,5.7-18.8,7.9
					C216.4,58.9,216.3,59.6,215.7,59.7z"/>
				<path class="st1" d="M114.7,58.1c-0.5-1.7-2.6-2.8-4.1-3.9c-1.4-1.1-2.9-3.2-4.3-2.6C109.4,53.3,111.4,57.6,114.7,58.1z"/>
				<path class="st1" d="M106.6,68.9c-3.9-3.4-9-5.4-13.7-7.9c-4.7-2.5-9.3-5.5-13.7-8.2c6.8,5.7,16.1,10.5,23.9,15
					C104,68.3,105.5,69.6,106.6,68.9z"/>
				<path class="st1" d="M91.1,76.2c3.4,1.1,6.8,2.7,10.4,2.9c-2.7-2.1-6.3-2.9-9.7-3.9c-10.3-3.3-21.3-6.2-31.5-9.7
					c-0.2,0.1-0.5,0-0.5,0.3c6.8,2.7,14,4.7,21.1,7.1C84.4,74,87.7,75.2,91.1,76.2z"/>
				<path class="st1" d="M198.1,76c-0.1,0.8,0.7,0.7,0.7,1.3c3.6-1.4,8.1-1.6,10.9-3.7C205.8,74.3,201.4,75.4,198.1,76z"/>
				<path class="st1" d="M167.9,77.3c-1.4,0.4-2.4,1.2-3.3,2.1C165.9,78.9,166.9,78.1,167.9,77.3z"/>
				<path class="st1" d="M223.5,81.8c-0.3,0-0.7,0-1,0c-6.8,0.3-14.5,1.9-20.6,2.6c-0.8,0.1-1.8-0.7-2.3,0.5
					c6.1,0.3,12.1-0.4,18-1.3C219.6,83.3,221.9,82.9,223.5,81.8z"/>
				<path class="st1" d="M100,86.5c-4.5-0.4-6.5-0.8-10.9-1.6c1,1.4,3.8,1.4,6.1,1.8C97,87.1,99.6,88.4,100,86.5z"/>
				<path class="st1" d="M199.9,92.6c2.6,1.4,8.6,0.4,11.9-0.5C208.4,92.2,203,91,199.9,92.6z"/>
				<path class="st1" d="M98.7,93.6c-5.8,1-18-0.6-23.4,0.8c6.9,0.5,16.6-0.1,24.9,0.8C100.2,93.8,99.7,93.4,98.7,93.6z"/>
				<path class="st1" d="M69,94.4c1.9-0.3,5.1,0.7,6.1-0.5C73.2,94.2,70,93.2,69,94.4z"/>
				<path class="st1" d="M197.8,103c11.5,1.8,23.2,1.8,35.1,3.6c2.4,0.4,5.2,1,7.9,0.5c-14-2-28.2-4.3-42.7-5
					C198.1,102.6,198,102.8,197.8,103z"/>
				<path class="st1" d="M100,103.8c-1.4-0.5-5.6,0.2-7.6,0.8C94.6,105.1,98.7,105.3,100,103.8z"/>
				<path class="st1" d="M195.8,113.3c0.6,1.7,2.7,1.6,4.1,2.1c10.3,3.7,20.9,8.8,30.8,11.8c-11.2-4.7-22.9-10.3-34-14.2
					C196.2,113,196,113.2,195.8,113.3z"/>
				<path class="st1" d="M106.8,119.1c-0.1-0.4-0.6-0.3-1-0.3c-8,5.1-16.3,9.7-23.4,15.8c7.3-4.4,14.3-9,21.6-13.4
					C105,120.5,106.8,120.7,106.8,119.1z"/>
				<path class="st1" d="M192.5,121.2c-0.2,0-0.3,0-0.5,0c1.3,3.4,5.1,4.2,8.1,5.8C199.3,124.4,194.6,123.4,192.5,121.2z"/>
				<path class="st1" d="M64.2,123.6c-1.1,0.1-2.1,0.3-2.8,0.8C62.5,124.3,63.6,124.2,64.2,123.6z"/>
				<path class="st1" d="M110.1,125.7c-3.3,4.8-8.6,7.6-11.4,12.9c4.6-3.6,8.7-7.8,12.7-12.1C111.2,126,111,125.5,110.1,125.7z"/>
				<path class="st1" d="M186.7,127.7c0,0.7-0.4,0.5,0,1.1c3.5,2.1,4.9,6.3,9.4,7.4C193.2,133.1,190.5,129.8,186.7,127.7z"/>
				<path class="st1" d="M180.3,134.6c2,3.6,4.5,7.2,6.9,10.8c4.9,7.4,11,14.1,16.3,20.8c-7-11.1-15.1-21.2-22.3-32.1
					C181,134.4,180.6,134.4,180.3,134.6z"/>
				<path class="st1" d="M121.1,136.9c-0.6,0.1-0.5-0.5-1.3-0.3c-6.3,9.1-13.7,18.4-19.3,27.9c-0.8,1.3-2.2,3-1.8,3.9
					c6-9.7,13-18.8,19.6-27.6C119.3,139.6,120.7,138.6,121.1,136.9z"/>
				<path class="st1" d="M196.6,137.7c2.8,3.3,5.5,6.5,8.9,9.2c-2.6-3.6-5.5-7.1-8.6-10.3C196.8,137.1,196.5,137.2,196.6,137.7z"/>
				<path class="st1" d="M173.2,144.3c1.6,3.2,2.9,6.6,5.3,8.9c-1.4-3.4-2.7-6.9-4.6-9.7C173.8,143.9,173.5,144.1,173.2,144.3z"/>
				<path class="st1" d="M127,144.3c-1.6,2.7-2.6,5.9-4.1,8.6c2.2-1.1,3.4-5.5,5.1-8.2C127.4,144.8,127.6,144.1,127,144.3z"/>
				<path class="st1" d="M168.4,77.3c2.2-1.8,5.3-2.6,7.6-4.2C173.2,74.1,169.5,75.6,168.4,77.3z"/>
				<path class="st1" d="M102.8,111.7c-12.8,3.5-25.8,6.8-37.3,11.5c9.1-2.6,19.1-6.1,28.2-8.4C96.9,114,101.2,114.2,102.8,111.7z"
					/>
			</g>
			<path class="st0" d="M134.3,57.6c-7,5.3-13.6,10.9-18.6,18.4c2.2-7.4,7.7-11.3,11.9-16.5c-1.5,0.3-1.8,1.7-3.6,1.6
				c-9.6,8.6-16.7,24.3-13.2,42.3c-1.1,1.6-2.4,2.9-3,5c1.5,2.1,3-0.3,4.9-0.8c0.3,1.4,1.4,2,1.3,3.9c2.6,5.7,6.5,10.1,10.4,14.4
				c-0.1,0.6-2.1,1.5-0.7,1.8c1.4,0.8,1.6-1.8,2.8-1.6c0.3,0.1,2.8,3.2,2.8,4.5c0.1,1.7-1.6,1.5-1,2.9c1,0.6,1.4-0.3,2.3-0.5
				c2,5.3,3.7,10.9,7.9,13.9c-2.6,1.8,0.9,4.9,0,8.4c2.8,0.3,5.2-1.8,7.9-2.9c2.8-1.1,5.9-1.8,8.9-2.1c-4.2,3.2-9.4,5.3-15.3,6.8
				c-0.3,1.6-2.4,1.1-2.6,2.9c4.5,1.4,6.9-1.6,10.7-3.2c4.3-1.8,8.2-2.9,12.4-3.4c-5.6,4.1-12.8,8-20.1,9.5c-0.4,1.1-1,2.3-0.3,3.2
				c2.2,0.7,3.4-1.6,5.3-2.4c3.3-1.4,7.5-2,11.2-3.2c1.8-0.5,3.2-1.6,5.1-1.6c-4.7,4.4-12.3,5.7-17.3,9.7c3.6,1.5,7.8-3.6,11.7-1.8
				c-2.7,2.6-6.1,4.4-9.4,6.3c-0.9-0.5-1.8-1.2-2.8-1.6c0.1-1.7-0.5-2.5-1.8-2.6c0.3,4.1,5.9,5.1,7.4,8.9c0.5,0.1,1.1-0.7,1.3,0
				c-0.2,5.6-0.2,14.7,1.3,20.3c0.2-7.1-0.3-13.5-0.3-20.5c2.1,0.1,2.1-2,3.3-2.9c3.3-0.8,5.6-4,5.3-7.6c0.6-0.6,1.7-0.7,2-1.6
				c-0.4-1.9-2-1.1-3.3-1.8c2.4-1.4,4.9-2.6,5.9-5.5c-1.4-2.9-5.4,0.2-7.4-0.3c2.7-2.9,9-3.7,8.6-8.2c-4.7,0.4-10.5,3.4-14.7,4.5
				c2.5-2.3,7.1-2.4,8.6-5.8c1.5,0,3-1.2,5.1-1.3c2.7-2.5,4.9-6.8,5.1-11.1c0.6-1.4,2.2-2.7,1.6-4.5c1.4-0.3,0.7-1.5,1.3-2.4
				c1.4-2.4,4.4-3.9,4.3-6.8c-5.1,1.2-8.6,4.1-13.5,5.5c5.6-4.5,11.9-9.6,17.6-13.2c-0.9,2.6-2.8,4.3-3.6,7.1
				c0.7,0.2,0.7,1.2,1.8,1.1c0.3-1.7,0.9-3.7,2-5.3c0.8,0.3,0.7,0.1,1.3-0.3c2.8-4.9,5.7-9.7,6.3-16.8c0.6-1.4,2.4-1.5,2.3-3.6
				c0.1-0.7-1.6,0.2-1.6-0.5c0.7-3.6-0.2-7.5,1.6-10c0.1-0.7-1.4,0.2-1.3-0.5c-0.1-0.9-0.4-1.7-0.3-2.9c-4.7-7.7-7.4-17.1-14.5-22.3
				c-3.3-2.4-7.1-3.9-11.4-6.1c-0.2-1.4-1.8-1.3-2.8-1.8c-0.8-0.4-1.1,0.1-2,0.3c-0.5-1.1-2.4-0.7-3.8-0.8c-0.3-0.5-0.5-1-0.7-1.6
				c1.1-1.6,2.6-2.9,3.6-4.7c-2.2,1-2.8,3.6-4.6,5c-2.4-0.8-6.9,0.1-8.9,0.3c3.4-2.7,7.9-4.1,11.7-6.3c-0.3,0-0.5,0-0.7,0
				c-4.6,2-9,4.3-13,6.8c-4.9,0.7-11.1,3.6-13.5,7.1C131.3,59,132.8,55.3,134.3,57.6z M160.8,168.2c-1.7,2.1-5,5.3-7.7,4.7
				c2.5-1.6,5.2-2.9,7.1-5C160.6,167.9,160.8,168,160.8,168.2z M190.7,97.5c0.2,0.8-0.4,0.8-0.5,1.3C189.7,98.6,190,97.2,190.7,97.5
				z M108.9,108.3c0.2-1.8,1.4-2.6,2-3.9c1.1,0.1,1,1.6,1.3,2.6C111,107.3,110.5,108.4,108.9,108.3z M127.7,125.1
				c4-4.1,8.8-7.2,12.4-11.5c-3.9,1.9-7.4,6.6-11.4,9.2c3.9-4.7,9-8.2,13.2-12.6c0.4-0.1,0.4,0.3,0.7,0.3c-0.5,1.3-2,1.4-2.3,2.9
				c1.3,0,1.5-1.1,2.3-1.6c1.5,1.2,2.2,3.3,3.6,4.7c-4.3,4.7-9.7,8.2-14.5,12.4C130.1,127.9,129.5,125.9,127.7,125.1z M145.2,96.8
				c0.9-0.3,0.2,1.1,1,1.1c1.1-0.1,1.1-1.4,1.6-2.1c0.8-0.2,0.9,0.3,1.6,0.3c0.7-0.7-0.5-0.8-0.3-1.8c1.4-1.4,2.2-3.5,4.3-4.2
				c-0.7,4.9-2.8,8.6-4.6,12.4c3.8,1.3,6.6-5.7,10.2-6.3c-3.5,3.8-7.6,7.4-11.7,10.8c-1.2,1-2.4,2.8-4.1,2.6c2-2.2,4.5-4,6.6-6.1
				c-2.5,0.4-4.3,3.8-6.9,5c-1.1-2.7-2.4-5.1-3.6-7.6C141.6,99.6,142.7,97.4,145.2,96.8z M138.9,99.9c-0.1-0.7-1-0.5-0.7-1.6
				c1.6-0.3,2.7-1.2,4.6-1.3C141.7,98.2,140.5,99.3,138.9,99.9z M155.9,93c0.6,4.6-3.1,7-5.6,9.2C151.1,99.1,153.3,95.2,155.9,93z
				 M184.9,79.9c0.3,0.1,0.5,0.3,0.5,0.8c-4.1,6.5-10,11.1-15.5,16c0.4-1,1.2-2.2-0.3-2.6c-1.4,0.6-1.3,2.7-2.6,3.4
				c-1.8,0.1-4.6-1.6-7.1-0.8C166,88.9,174.9,82.8,184.9,79.9z M160,94.9c0.4-0.7,0.8-1.5,1.8-1.6C161.5,94.2,161,94.9,160,94.9z
				 M162.3,98.9c1.8-0.1,3.2,0.1,4.1,1.1c-0.5,1.2-1.6,1.9-2,3.2c-5.6,4.3-10.6,9.2-17,12.6c-0.6-2-2.2-3-3-4.7
				c3.8-4.7,9.2-7.8,13-12.6c1.6,0.7-1.5,1.6-0.3,2.9C158.6,100.5,160,96.5,162.3,98.9z M157.7,126.2c-2.6,2.4-5.6,4.3-8.4,6.3
				c2.4-4,5.7-7,8.1-11.1C158.5,122.5,157.3,124,157.7,126.2z M155.6,133.3c-0.7-0.7,0.7-1.8,1.3-2.1
				C157.7,132.1,156.1,132.7,155.6,133.3z M168.1,132.2c0.4-0.1,0.5,0.2,0.5,0.5c-2,1.1-3.9,2.8-5.9,4.2c-1.8,1.4-3.6,3.2-5.9,3.4
				C157.2,135.1,164.9,135.2,168.1,132.2z M150.3,139.8c1.1-3,3.6-4.7,6.3-6.1C155.6,136.9,152.7,138.1,150.3,139.8z M155.4,139.6
				c-0.1,2.3-2.2,2.6-3.8,3.4C152.5,141.5,153.5,140,155.4,139.6z M149,127.5c2.2-1.4,3.6-3.5,5.9-4.7c-1.3,3.1-3.6,5.2-5.3,7.9
				C148.6,130.1,149.6,128.8,149,127.5z M152.6,115.7c0.2,0.1,0.3,0.3,0.5,0.3c0,0.2,0,0.3,0,0.5c-1.8,0.4-2.4,2.1-3.8,2.9
				C149.2,117.8,150.8,116,152.6,115.7z M149.3,115.7c0.5-0.8,1.2-1.6,2.3-1.8C151.4,115,150.2,115.2,149.3,115.7z M154.9,116.5
				c-0.5,3-3,6-5.9,7.4c0.1-1.2-0.5-1.6-0.3-2.9C150.7,119.3,152.2,117.3,154.9,116.5z M156.5,115.9c1,0,1.3,0.8,1.3,1.8
				c-1.2,0.1-1.3,1.4-2.6,1.3C155.2,117.7,156.7,117.7,156.5,115.9z M155.6,119.8c-0.6,0.7-1,1.6-2,1.8
				C153.6,120.5,155,119.6,155.6,119.8z M150.6,123.8c-0.1,0.8-0.5,1.4-1.6,1.3C149.2,124.2,149.9,124.1,150.6,123.8z M156.7,129.1
				c-1.9,3.2-3.7,6.5-7.4,7.9C148.6,133.1,154.3,130.6,156.7,129.1z M156.9,120.1c0-0.7,0.3-1,1-1.1c0,0.4,0,0.9,0,1.3
				C157.4,120.5,157.3,120.3,156.9,120.1z M151.9,114.8c4-3,7.2-6.8,11.4-9.5c-1.6,3.3-3.2,6.6-5.1,9.7
				C156.7,114.5,154.2,114.4,151.9,114.8z M135.3,126.9c3.5-3.2,7.4-6.1,10.9-9.2c0.3,0.1,0.2,0.5,0.3,0.8
				c-4.8,3.6-9.3,7.6-13.7,11.5C131.7,129.1,134.6,127.9,135.3,126.9z M147,118.8c2.9,8-5.5,11.1-9.4,15.8c-0.9,1.1-1.2,2.2-2.3,3.2
				c-1.4-1.4-1.6-4.1-2.3-6.3C137.5,127,142.3,123,147,118.8z M139.2,152.7c-0.1-0.7-0.3-2.1-0.3-3.7c3.1-0.1,5.9,1.1,8.9,1.1
				C145.4,151.4,141.8,151.6,139.2,152.7z M151.3,147.7c-7,0.9-13.6-1.5-16.3-6.5c1.6-3.9,5.6-5.4,7.9-8.6c-2.6,0.2-3,2.6-4.9,3.6
				c-0.4-1.4,2.2-3,3.6-4.5c1.8-1.8,3.4-3.4,5.1-5c0.3-0.1,0.5,0.1,0.5,0.3c-0.9,2.4-3.2,3.1-4.6,5c2,0.5,2.5-2.2,4.3-2.6
				c-0.5,2,0.6,2.6,0.3,3.9c-0.4,1.6-5.1,4.9-6.6,6.3c-1,0.9-3.5,1.6-1.8,2.9c3.1-1.6,5.1-4.5,8.1-6.1c0.7,4.1-4.7,3.8-5.9,6.8
				c1.9,0.9,3.6-2.5,5.9-2.9c-0.1,0.7,0.1,1.1,0.5,1.3c-0.3,2-2.6,2.1-3.3,3.7c1.4,1.6,2.6-2.3,4.3-1.3c0.1,1.6-1.4,1.3-1.6,2.6
				c0.5,1.4,2.1-0.7,3,0.3c0.5-0.9,0.7-2.2,1.8-2.6c0.3,0.5,0.5,1.1,1,1.3C152.7,146.6,151.8,147,151.3,147.7z M157.5,146.9
				c-1.6,0.5-2.2,0.3-3.8,0.5c1.7-5.5,8.9-7.4,13.7-10.5c0.3,0.1,0.2,0.5,0.3,0.8c-3.7,2.4-7.1,5.1-10.4,7.9
				C157,146.4,157.5,146.3,157.5,146.9z M158.7,146.6c1.3-2.7,5.4-2.5,7.4-4.5c-0.5-0.9-1.3-0.2-2.3-0.3c1.1-1.3,3.3-2.9,4.6-3.2
				C167.3,143.7,164.1,146.4,158.7,146.6z M164.1,137.7c1.2-2,4.3-3.4,5.9-4.2C169.3,136.4,166,136.3,164.1,137.7z M162.5,134.1
				c4-3.1,8.2-5.9,12.7-8.4C172.7,130.2,167.5,132,162.5,134.1z M175,124.4c-5.7,4.1-11.5,8.1-17.6,11.8c0.2-1.1,0.3-2.3,0.5-3.4
				C163,129.5,169.5,126.3,175,124.4z M178.1,116.2c-6.3,4.7-13.4,10.5-19.8,15.3c-0.4-0.9,0.5-2.6,0.3-4.2
				c6.1-5.4,14.2-8.8,21.3-13.2c0.1,0,0.2,0,0.3,0C180.3,115.1,178.8,115.6,178.1,116.2z M183.1,112c-6.3,2.4-11.2,6.1-17,8.9
				c6.3-6,12.9-11.9,20.1-17.1C185.2,106.6,184.1,109.2,183.1,112z M186.4,102.5c-9.7,7-17.7,15.9-27.7,22.6
				c0.6-2.2-0.5-4.5,0.3-6.8c0.5-1.6,3.8-4.3,5.9-5.8c6.3-4.8,16.3-10.9,22.9-13.6C187.4,100.2,186.8,101.3,186.4,102.5z
				 M187.9,97.8c-7.4,3.6-14.2,7.9-20.9,12.4c6.6-6.8,14.1-12.7,21.1-19.2c0.4-0.1,0.4,0.3,0.7,0.3
				C188.5,93.9,188.4,95.1,187.9,97.8z M188.7,89.1c-1.8,2.8-4.7,4.5-7.1,6.5c-7.2,6.1-14,13.3-21.3,19.7c0.4-2.5,1.9-4.7,3-6.8
				c1.1-2.1,1.8-4.8,3.3-6.3c1.1-1.1,3.3-2.1,5.1-3.4c4.7-3.5,11.3-7.7,16-10.5C188.4,88.3,187.9,89.3,188.7,89.1z M188.2,87
				c-6.6,4.7-13.8,8.7-20.1,13.6c-0.7-1.1,0.9-1.8,1.6-2.4c2.4-2.2,5-4.5,7.6-6.8c3.6-3.1,7.5-7.1,9.4-11.1
				C188.2,81.5,187.6,84.9,188.2,87z M186.4,78.9c-5.3,0.3-9.5,4-14,6.1c3.6-4,8.2-7,10.4-12.4C184.6,74.1,185.3,76.6,186.4,78.9z
				 M181.4,71.5c-2,0.1-3.6,0.5-4.9,1.3c1.1,0.2,3.1-1.4,4.6-0.3c-2.2,4.8-6.1,8.2-9.7,11.5c-3.6,3.5-7.2,7-11.2,10
				c-1.1-0.1-1.9,0.1-2.8,0.3c-0.1-0.9,0.2-2.2-0.3-2.6c-2.1-0.3-2.3,1.3-3.3,2.1c-0.8-1.1,1.3-3.6,0-5.5c0.5-0.5,1.3-0.8,2-1.1
				c2.4-2.4,4.6-5.3,7.6-7.1c0.5-0.5-0.3-0.7,0.3-1.3c2.5-2.2,8.2-7.6,9.7-11.8c2.4-6.8-3.9-4.7-8.1-3.4c0.3-2.1,2.2-3.5,1.6-5.8
				C173.1,61,178.5,65,181.4,71.5z M164.6,56.5c-6.3-0.3-13.4,2.1-18.6,4.7c2.2-3.1,4.9-5.7,7.4-8.6
				C157.7,53.3,161.9,53.6,164.6,56.5z M152.1,52.6c-2.5,3.3-4.9,6.9-7.9,9.7c-2.6,2.4-6.3,3.9-9.4,6.1
				c-8.7,6.1-16.6,13.9-22.3,23.4c3.1,0.9,5.1-2.6,7.1-4.5c6.3-5.7,13.1-11.9,19-18.2c2-2.1,3.4-5,5.9-6.5
				c4.9-3.2,14.5-6.2,21.3-4.7c0,7.2-7,8.6-12.4,11.8c-8,4.7-17.6,11.2-24.2,16.8c9.7-6.5,20.3-14.6,31.8-20.3
				c-6,7.4-13.4,13.3-20.3,19.7c4.6-2.4,8.9-7.2,13-11.1c5.2-2,8.3-6.1,11.2-10.5c2.4-0.3,5.4-2.2,7.9-0.8
				c-0.8,5.5-4.5,9.5-7.9,13.4c-4.7,5.5-8.8,8.8-14,13.2c-2.7,2.3-4,4.7-8.1,5c2.7-2.7,6.3-4.5,9.2-7.1c-4.5,1.3-8.1,7.9-13,8.4
				c-1.3,0.1-3-1-4.3,0.3c0.5,1.1,0.1,1.9,1.3,2.6c-5.1,5.2-12.1,8.4-16.3,14.4c3.5-0.7,6.2-3.4,9.2-5.5c2.9-2.1,5.9-4.1,8.9-6.1
				c1.2,2.6,2.9,4.6,4.1,7.1c-4.7,5.1-10.4,9.4-15.3,14.4c-6.3-3.5-9.4-10.3-12.4-17.1c8.2-6.4,18.1-13.2,26.5-20.3
				c-2.8,0.6-4.4,3-6.6,4.7c-6.5,4.9-13.6,9.9-20.3,14.7c0.1-1.5-0.8-2-1-3.2c4.7-5.8,10.7-10.3,16-15.5
				c-5.8,3.3-10.7,9.7-16.3,14.2c-4.1-23.2,11.3-35.6,24.6-45c-0.6-0.8-1,0.8-2,0.5C138.6,54.3,146.1,52.9,152.1,52.6z M141.7,64.7
				c-9,9.3-17.8,18.9-28.2,26.8C120.3,79.9,130.5,71.7,141.7,64.7z M137.1,101.2c-4.8,3.8-9.6,7.6-15,10.8
				c4.1-4.5,9.2-7.8,13.7-11.8C136.7,100.1,136.6,100.9,137.1,101.2z"/>
			<path class="st0" d="M229.2,160.3c-1.2-1.1-2.4-1.3-3.6-2.9c-0.7,1.3,0.5,1.8,0,2.6c-2.4,0.3-4.1,2.6-5.6,2.9
				c2.1-1.5,2.5-4.8,5.3-5.5c-0.9-1.2,0.4-1.9-0.3-3.2c-3.2-0.3-5.5-3-8.1-4.7c-1.4,0.9-2.4,0.4-3.6,0.3c-6.9-0.7-12.4,1.9-15.7,5.8
				c0.1-0.1-0.7,1-0.7,1.1c-0.5,1.4-0.5,1.2-1,2.1c-2.6,4.8-2.2,10.2-1.6,17.6c0.5,6.1,4.2,12.5,8.1,16.5c1.8,1.9,3.8,2.8,5.3,4.5
				c-1.1,0.5-3.3-0.1-3.8,1.1c0.3,2.1,1.8,2.8,3.3,3.6c1-0.4,0.8-2.2,2-2.4c-0.7,1.8-0.1,3.8,0,4.7c0.2,3.5,0,8.2,0,11.8
				c0,2.2,0.3,5,0,6.5c-0.3,1.4-2,2.4-2,3.7c-0.1,1,1,2.1,1,3.2c0,0.8-0.6,1.8-0.7,2.9c-1.1,7.1,2.8,18.2-0.3,24.4
				c2,2.6,1.4,6,1.6,8.9c1.5,0,2.4-2,3.3-1.6c-1,0.8-2,3-3.6,2.4c-0.8,3.9-2,7.4-3.3,10.8c0.3,3.6-0.7,11.8,1.8,14.7
				c0.1,6.4,3.4,12.8,3.8,18.9c-0.8,1.8-2.2,4.3-1.8,6.5c1.8,0.4,2.8-2.2,2.8-4.5c0.8,0.1,0.5,1.1,1,1.6c0.7-2.3-0.1-5.3-1-6.8
				c0.4-5.6-0.9-10.7,0-15.3c1.4,0.5,2,2.4,1.3,3.6c0.5,0.1,0.5,0.7,0.7,1.1c-0.2,5.1,3.6,10.7,2.8,16.5c-0.3,1.9-2,3.5-1.3,5.8
				c2,0,2.3-1.8,2.6-3.7c0.7,0,0.3,1.2,1,0.5c0.5-2.8-1-5.2-1.3-7.6c-0.5-5,0.7-11-0.3-14.4c0.9-0.1,1-1.1,1.6-1.6
				c1.5-7.9,2.4-15.9-1-22.3c1.3-2.5-1.2-9.2,1.8-10.5c3.8,5.9,3.2,14.7,4.1,21.5c2.2-1.4,0.7-3.8,0.5-5.5c-0.2-1.6,0.5-3.4,0.5-5.5
				c0-2.4-0.5-5.1-0.7-7.9c-0.6-6.7-0.6-11.5-5.8-12.4c0.7-1.4,3-1.2,4.1-2.4c0.7,0.9,2.2,0.8,3,0c-1-2.3-2.4-8-4.8-8.2
				c-1.8-0.1-1.8,1.7-2.8,2.9c-1.9,2.4-3.4,2.6-1.8,5c-0.6,0.1-0.5,0.8-1,1.1c-0.4-0.6-1.4-0.7-2-1.1c-0.5-3.1-2.4-6.2-2.8-9.7
				c-0.3-2.6,0.3-5.3-0.5-7.9c-0.1-0.5-0.8-0.6-1-1.1c-0.5-0.9-0.1-2-0.7-2.9c2.4-1.8,2-5.1,2-8.6c0.1-6.3,0.7-13.6,0.5-18.6
				c0.1-0.5,0.7-0.5,1-0.8c0.1-0.7-0.9-0.6-0.3-1.3c1.7,0.1,3.4-0.5,5.1-1.1c-0.7,1.1-3,2-1.6,1.6c0.7-0.3,2.3-1.1,3.3-2.1
				c4.1-3.8,7-9,9.4-13.6c1.4-5.5,2.4-11.3,1-17.3c-0.6,0.5-1,1.2-1.6,1.8c0.2,0.9,0.4,1.7,0.5,2.6c-2.2,0.5-4.7,2.2-6.3,2.4
				C223.7,167.4,228.5,164.8,229.2,160.3z M210.2,258.8c0.3-0.5,0.3-1.3,1.3-1.1C211.1,258.2,210.9,258.8,210.2,258.8z M216.3,264.6
				c0.9-0.2,0.3,1.2,0.5,1.8c-2.6,1-3.5,3.7-5.8,5C212.4,268.7,214.9,267.3,216.3,264.6z M213.8,272.8c0-1.9,2.4-3.4,2.8-5.8
				c0.3,0,0.5,0,0.7,0C217.5,270.3,214.8,270.7,213.8,272.8z M214.5,276.9c-0.2-1.8,2.5-2.8,2.8-5
				C219.5,273.4,215.6,275.6,214.5,276.9z M211.5,267.5c0.8,1.6-2.7,3.2-3.3,5C207.2,270.7,210.7,269.2,211.5,267.5z M211.5,272.5
				c0.3,1.1-2.7,4.1-4.1,5.3C207.5,274.7,210.3,274.4,211.5,272.5z M213.8,274c0.4-0.1,0.5,0.2,0.5,0.5c-2.6,2.6-4.7,5.9-7.4,8.4
				C207.2,279,211.8,277.2,213.8,274z M213,279c-0.9-0.7,0.4-1.6,0.7-1.8C214.4,277.7,212.9,278.2,213,279z M212.8,280.9
				c-1.8,2.4-3.6,4.9-6.1,6.5C207.9,284.4,210.7,283,212.8,280.9z M210.7,305.6c-1.2-4.5-1.9-9.5-3-13.9c0.5-0.5,1.9-0.2,2.8-0.3
				C210,295.7,211.4,301.9,210.7,305.6z M212,290.9c-0.8-0.1-1.7-0.2-2.3-0.5c2.6-2.9,5.1-5.9,8.1-8.4
				C216.7,284.7,213.3,287.4,212,290.9z M217.1,306.9c-0.8-4-3-9.1-2.3-12.9c0.8,0.1,1.1,0.6,2,0.5
				C217.6,299,217.2,302.1,217.1,306.9z M216.5,292.5c1.1-0.1,0.5-1.9,1.8-1.8c-0.2,1.1,0.3,1.6,0.3,2.6c-1.4,0.7-3.3,0.1-4.3-0.5
				c1-2.1,2.4-3.8,3.6-5.8c-2,1.3-2.6,3.9-4.6,5.3c-0.7-2.5,3-4.5,4.3-6.5c-0.1-0.4-1.1,0.4-1.3,0.8c0-1.7,2.1-3.4,3.6-4.5
				C219.4,285.9,217.5,289.8,216.5,292.5z M219.4,279.3c-0.6,1.1-1.7,1.8-2.6,2.6c-0.5-1.2,1.6-1.8,1.8-3.2
				C219.2,278.6,219,279.3,219.4,279.3z M218.6,275.7c0.5,0.9-0.3,1.8,0.3,2.9c-2,1.9-3.9,4.2-5.8,6.3c-1.8,2-3.5,5.1-6.3,5
				c0.2-1.5,1.8-2.4,2.8-3.2c3-2.6,6.1-5.5,8.9-8.6c-1.6,0.9-2.7,2.3-4.1,3.4C214.8,279.6,217.1,277.3,218.6,275.7z M221.7,253.3
				c2,3.2,1.8,7.2,2,12.1C223.3,261.1,218.6,257.2,221.7,253.3z M220.9,252.5c-0.9,1.2-0.9,3.5-2.6,3.9c-0.1-0.9,0.7-0.9,0.7-1.8
				c-1.8,0.4-2.1,2.4-3.8,2.9c0.6-1.6,2.2-2.2,2.8-3.6c-1.9,0.5-2.8,2-4.3,2.9c-0.1-1,1.1-0.8,1-1.8c-1.6,0.3-2,1.8-3.6,2.1
				c0.5-1.5,1.9-1.9,2.6-3.2c0.6,0.1,1.1,0.3,1.3,0.8C217.1,254.2,219,251.3,220.9,252.5z M213.8,249.6c1.8,1.5,2.2-1.4,3.3-2.1
				c0.1-0.9-0.9-0.9-1-1.6c0.7-1.4,1.5-2.8,3-3.4c0.4,0.8,0.5,1.9,1,2.6c-1.4,1.8-1.8,3.4-3,5c-0.1,0.9,0.7,1,1.3,1.3
				c-0.2,1.3-1.6,1.3-2.6,1.8c-0.8-0.2-0.3-0.7-0.3-1.3c-0.6-0.1-0.5,0.5-1.3,0.3C213.8,251.6,213.7,250.8,213.8,249.6z
				 M213.3,252.2c-0.4,2.5-2.4,3.3-4.3,4.2c-0.1-0.5-0.7-0.5-0.5-1.3C210.6,255.7,211.1,252.6,213.3,252.2z M213,250.1
				c-0.2,1.8-2,1.8-2.6,3.2c-0.1-1,1.4-2.6,2-3.6C212.8,249.7,212.7,250.1,213,250.1z M209.2,231.5c-0.9,6.9,2.2,9.7,2,15.8
				c-0.1,1.1,0.9,1,1,1.8c-1.1,0.9-1.6,2.6-2.6,3.7c0.9-6.4-2.3-13.4-1.3-21.5C208.8,231.2,208.9,231.5,209.2,231.5z M227.5,160.3
				c0.5-0.1,0.7,0.2,1,0.3c0.1,0.8-0.7,0.7-0.7,1.3C227.1,161.8,227.1,160.6,227.5,160.3z M224.7,154.5c0.1,0.5-0.2,0.7-0.3,1.1
				c-0.4-0.2-0.8-0.4-0.7-1.1C224,154.5,224.4,154.5,224.7,154.5z M211.7,150.6c-0.7,0.5-2.3,1-3,0.5
				C209.2,150.4,211.1,150.4,211.7,150.6z M205.9,198.1c0.5,0.1,0.5,0.7,0.5,1.3c0.9-0.3,1.1-1.1,2.3-1.1
				C208.5,200.4,204.2,200.2,205.9,198.1z M205.7,194.2c5.7-3.4,10.5-7.6,16.5-10.5c-2.2,4.9-9,7.1-12.2,11.8c3.5-1,5.9-4.6,8.9-5.3
				C215.4,193,209.6,199.6,205.7,194.2z M218.6,193.9c-1.3,0.9-3,0.9-4.1,1.3c2.2-2.1,5.1-3.4,6.9-6.1
				C221.6,189.8,219.9,193,218.6,193.9z M222.1,188.6c-0.5-0.9-1.7-0.1-2.3-0.5c1.1-1.6,4.7-3.1,3.3-5.5c-1.1,0.1-1.8,0.5-2.8,0.8
				c0.9-2.2,3.6-2.6,4.3-5c-0.9-2.6-4,0.9-5.1,0.5c3-2.1,5.7-4.5,8.1-7.1C228.4,179.1,224.5,183.7,222.1,188.6z M227.7,170
				c-6.8,8.2-16.9,12.8-24.8,19.7c3.4,0.5,5.7-2.8,8.4-4.7c3.6-2.5,8.2-4.1,11.9-6.3c-2.5,3.7-7,5.3-9.7,8.9
				c-3.3,1.4-5.6,3.8-8.4,5.8c-1.9-1.5-3.4-3.4-4.8-5.5C209.6,182.2,216.4,172.6,227.7,170z M207.4,179.5c-1.2,0.9-2,2.1-3,2.9
				c-0.9,0.7-2.2,0.9-3,1.6c-0.9,0.7-1.4,1.8-2.6,1.8c-4.5-7.1-6.3-22.3-0.3-29.2c0.8-0.3,0.6,0,1.6,0c-0.5-1,0-1.3,0.5-1.8
				c0.3,0.1,0.5,0.3,0.4,0.5c2.9-1.3,6.6-3.9,11.5-3.8c-4.1,3.2-9,6.2-12.7,10c-1.5,1.6-3.6,3.7-3.6,6.3c1.6-0.1,1.4-1.9,2-2.9
				c2.8-4.3,8.9-8.7,13.4-11.5c1.7-1,3.6-2.8,5.6-2.1c-3.9,11.1-16,13.7-21.6,23.2c3.3-0.2,5.7-3.1,7.9-5.3
				c5.5-5.3,10.7-10.7,18.3-14.2c-3.8,0.6-5.8,3.3-9.1,4.5c1.9-2.5,3.8-5,5.3-7.9c2.7,0.9,4.4,2.8,5.8,5
				c-4.9,8.2-13.8,13.4-21.6,19.2c-1.8,1.3-4.3,2.4-4.8,4.7c2.3,0.3,4.3-1.7,6.1-3.2c1.8-1.5,3.9-3,5.8-4.5c3.8-3,6.9-7.4,11.1-8.6
				c1.5-1.6,3.4-2.6,5.8-3.2c1.3,2-1.6,5.4-3.3,7.1C219,172,212.8,175.7,207.4,179.5z M207.4,164.5c-3.2,3-6.3,6.1-9.9,8.6
				c-0.4-0.9,1-1.7,1.8-2.4c2.3-2.2,5.5-4.7,7.9-6.8C207.8,163.9,207.5,164.1,207.4,164.5z M208.7,171.6c-0.5,1.8-3.6,3.2-5.3,4.7
				C203.9,174.5,207.1,173.1,208.7,171.6z"/>
			<path class="st0" d="M93.1,303.5c-6.4,0.7-12.6,5.9-13.6,9.7c2.6-8.4,21.8-12.1,29.3-5c-4.3,0.2-6.3,2.4-9.4,3.7
				c0.9-1.8,2-5.7-0.3-6.8c-6.7,1.4-11.9,5.9-15.7,10.3c-1.8,2.2-3.6,4.7-4.5,7.1c5.5-6.3,10.6-13,19.6-16c2,5.8-3.4,8.2-6.5,10.8
				c-5.1,4.2-9.5,9.2-13.4,13.2c-1.1-3.8-1.8-10-0.3-13.9c-3.5,4.3-0.8,12.7-1.1,17.1c2,0.6,2,3.1,2.8,4.7c-0.3,1.1-2,1.6-1.1,2.9
				c1.2,0.7,1.4-0.4,2.8-0.3c3,5.2,7.6,10.3,13.4,12.1c0.3,7.6,0.7,15.1,1.7,22.1c-2.5,2.2-2.7,6.5-0.9,9.5c-2.2,2-1.5,7.7-2,10.3
				c-1.2,2.2-2.4,5.2-2.3,7.9c-1.8,0.6-3.5,2.7-4.5,3.2c0.1-1.4,0.9-2,1.1-3.2c-1.4-2-2.8-3.8-4-6.1c-3.6,0.5-5.3,2.8-7.4,4.7
				c0.1,3.2,2.8,5.4,5.1,5.8c0.9-0.8-0.4-1.9-0.3-3.2c0.1-1.8,1.4-3.2,2.3-4.2c0.7,0.7,2,0.9,2.3,2.1c-1.5,1.1-0.9,2.5-0.5,4.5
				c-3,2.5-6.7,4.4-9.7,6.8c-3,4.2-0.3,9.7-1.4,14.4c-0.1,0.6-0.7,1.2-0.9,1.8c-0.5,3.6,0.6,7-0.3,10.3c0.7,0.2,1.1-1.1,1.7-0.3
				c-0.5,0.4-0.3,1.4-0.3,2.1c-0.4-0.1-0.7-0.4-1.1-0.5c0.3,1.4,0.7,2.7,2.3,2.9c0.9-1.5,1.5-5,0-6.1c2.2-4,2.5-9.8,4.5-13.9
				c1.2,1.7,1.4,4.3,2.6,6.1c-0.3,0.3-0.4,0.7-0.3,1.3c1.9,2.1,0.1,4.9,0,7.4c-0.1,5.5,2.8,10.5,3.4,15.5c-2.8,4.9-0.6,14,0.3,18.6
				c-1-0.1-1.4-0.4-2.3,0c-0.1,2.1-2.8,5.3-0.3,6.5c3-1.1,3.6-4.2,5.1-6.5c-0.3-0.3-1.4-0.1-1.4-0.8c2-3.4,0.5-9,3.1-12.1
				c0.1-0.8-0.5-0.9-0.3-1.8c0.1-0.9,1.5-0.5,1.4-1.6c-0.1-5.1,0.8-9.2,2.6-12.6c4.8,5.4,5.5,16.3,3.7,23.9c2.6,1.6,3.6,5.7,6.8,5.8
				c-0.7-2.4,0.1-6-2.6-6.5c-0.3,0.9,1.1,1.4,0.3,1.8c-1.8-0.9-1.1-2.2-2.6-2.6c0.4-0.8,1.3,0.5,1.7-0.3c0.8-4.3,3.6-8.2,3.4-14.7
				c-3.3,0.2-1.9,3.4-3.7,4.7c-0.1-2.4-0.2-5.5,2.3-7.1c0,0.8-0.1,1.8,0.9,1.6c1.3-9-3.6-16.8-6.3-23.9c-0.7-0.3-1.2-0.8-1.7-1.3
				c0.9-4.5,0.2-9.4,0.3-12.9c0.1-11.1,5.1-17.8,0.5-26.3c0.7-1.8-0.3-5.1,1.4-7.1c-1.8,0.2-0.9,2.8-2.8,2.9
				c0.3-1.4,0.7-1.6,0.3-3.2c0.3-0.9,1.6-0.9,2-1.8c-2.2-4.7-0.7-12.9-1.1-18.6c1.1-0.1,2.7,0.3,3.4-0.3c0-2.5-2.7-2.6-3.1-4.7
				c9.2-5.2,16.4-12.8,18.2-23.9c0.6-3.6-0.3-7-0.9-10.8C113.4,307.2,104.3,302.3,93.1,303.5z M77.1,423.8c-2.2-1.6-0.4-5.3,1.1-6.5
				c0.7,0.3-0.6,1.3-0.9,2.6C77.1,421.3,77.8,422.8,77.1,423.8z M77.1,416.7c0.5-3.4,3.2-6.2,6.5-6.1
				C81.3,412.6,79.6,415.1,77.1,416.7z M80.5,417.6c2.4-3.2,5.3-5.8,8-8.6c0.3,0.1,0.3,0.5,0.3,0.8
				C86.1,412.3,85.1,417.6,80.5,417.6z M83.7,420.7c-1.3-3.4,4-4.8,5.1-7.6c2.2-0.5,3.2-2.2,4.5-3.4c0.5-0.1,0.6,0.3,0.3,0.3
				C90.8,414,87.5,417.6,83.7,420.7z M88.5,423.6c0.7-2.7,4.7-4.6,6.8-6.8c0,1.1,0,2.1,0,3.2C91.8,420,90.6,422.2,88.5,423.6z
				 M92.5,422.8c-2.6,3-4.8,6.4-8,8.9C84.4,426.2,88.8,424.9,92.5,422.8z M84.8,424.9c-0.5-4.1,3.7-5.9,6.5-8.9
				c1.6-1.7,1.9-3.4,3.7-3.4C92.5,417.5,88.7,421.3,84.8,424.9z M84.2,435.4c3.3-5.1,7.7-9.2,11.1-14.2c0.3,0.1,0.7,0.5,0.3,0.5
				c-1.5,5.5-5.5,8.6-9.4,11.8c-0.3,0.8,0,0.6,0,1.6C85.4,435.1,85,436.1,84.2,435.4z M84.8,437c0.9,0.2,1-0.3,1.7-0.3
				c-0.1,0.7-0.6,1.2-1.4,1.3C84.8,437.8,84.8,437.5,84.8,437z M88.5,438.4c1.1,1.3-1.8,3.4-2.3,5C84.1,441.2,87.5,439.8,88.5,438.4
				z M86.2,447.8c0.3-1.5,1.4-2.2,2-3.4C89.1,444.8,87.3,448.3,86.2,447.8z M87.9,459.6c0.1-1.1,0.6-1.9,1.1-2.6
				C89.8,457.9,88.8,459.4,87.9,459.6z M87.7,451.2c0-1.6,1.2-2,1.4-3.4C90.4,448.5,88.4,450.6,87.7,451.2z M89.3,447
				c0.3-0.6,0.7-1.3,0.9-2.1c0.3,0,0.5,0,0.9,0C90.6,445.8,90.8,447.1,89.3,447z M90.5,434.1c0.3-3.6,4.7-5.6,5.1-10
				C97.7,426.3,92,432.2,90.5,434.1z M92.2,436.7c-0.1-0.8,0.4-1,0.5-1.6C93.8,435.4,93.2,436.9,92.2,436.7z M94.2,439.6
				c-0.6-1.1,0.7-2.3,1.7-2.6C95.6,438.1,95.2,439.2,94.2,439.6z M99.6,451.2c-0.7-0.7,0.3-1.5,1.1-1.6
				C100.4,450.2,100.6,451.3,99.6,451.2z M103.3,446.2c-1.7-0.1-1.9,1.1-2.8,1.6c-0.7-0.6,1.6-2.7,2-3.9
				C103.4,444,103.2,445.2,103.3,446.2z M101.6,438.6c1.3-0.1,0.7,1.5,1.1,2.1c-1.4,0.1-1.7,1.1-2.8,1.3
				C100.4,440.8,101.4,440.1,101.6,438.6z M100.7,442.8c0.6,0.7-1.1,3.4-2.6,3.9C98.4,444.8,99.9,444.2,100.7,442.8z M97.9,436.5
				c-0.3,0.3-1.5,0.3-1.4-0.5C96.9,435.5,98.1,435.6,97.9,436.5z M97.3,427.8c0.9,1.2-0.6,2.4-1.7,2.6
				C96,429.4,96.7,428.6,97.3,427.8z M96.7,406.3c-2.8,0.2-3.8,2-6.3,2.6c2.4-1.3,4.2-4.5,6.8-4.7C97.2,405,96.6,405.3,96.7,406.3z
				 M98.7,398.4c-1.9,1.5-3,3.7-5.4,4.7c0.5-2.9,3.6-3.5,5.1-5.5C99.1,397.7,99.1,398,98.7,398.4z M94.7,398.7
				c0.9-1.5,2.3-2.6,3.7-3.7C98.9,396.7,96.4,398,94.7,398.7z M97.9,390.2c0.5,1.1-0.4,3.2-1.7,3.4
				C96.1,391.9,97.7,391.7,97.9,390.2z M91.9,318.7c-2.4,4.7-8.2,8.3-11.9,12.6C82.3,326.7,87.9,322.7,91.9,318.7z M80.8,336.9
				c-0.3-1.4-1.1-2.4-1.4-3.7c10.3-7.6,14.9-20.4,29.6-23.9c-2.8,10-11.8,14.6-19.4,20.5C86.6,332.1,84.2,335,80.8,336.9z
				 M82.5,340.1c8.8-6.9,15.4-17.3,27.3-20.5c-4.7,11.4-17.3,15.4-24.8,24.2C84,342.7,83.3,341.3,82.5,340.1z M85.6,344.2
				c5.4-1.7,9-5.7,12.8-8.9c3.9-3.3,8.3-5.9,12.8-8.6c0.3-0.1,0.5,0.1,0.5,0.3c-5.7,8.1-15.3,12.7-22.5,19.4
				c2.1,1.3,4.1-1.1,5.4-2.1c4.5-3.4,10.1-7.2,15.4-9.2c-0.3,1.8-2.9,3-4.3,4.2c-4.3,3.8-9.2,7.6-14.5,10.8
				C89.3,348.2,87.2,346.5,85.6,344.2z M114.1,332.7c-2.2,8.9-10.7,15.3-16.8,20c-1-1-1.8-0.9-3.4-1.1c1.8-2.5,4.7-4.1,7.4-5.8
				c-1.1,1.6-2.8,2.6-4.3,3.9c3.8-1.1,7.8-4.6,10.8-7.4c0.3-1.1-0.6-1-0.5-1.8c2.2-2,6-4.7,4.5-7.6c-2-0.3-2.5,0.8-4,1.1
				c2-2.8,5.3-4.3,6.3-8.2c-0.1-0.4-0.4-0.7-0.5-1.1c-3.4-0.2-4.5,1.8-6.8,2.6c1-2.8,6.5-6.7,3.1-9.5c-2.9,0.1-4.3,1.7-6.5,2.4
				c2.3-3.5,5.7-5.9,6.8-10.5C114.7,315.2,116.1,324.6,114.1,332.7z"/>
			<path class="st0" d="M254.4,246c0.6-1.1,0.5-2.8,1.4-3.7c0.7,5.4-0.6,13.2,0.3,18.2c0.8-4.9,1.5-13.2,1.1-18.4
				c4.1-2.8,8.7-4.3,12.2-7.4c1.1-0.9,1.9-2.6,2.8-4.2c2.2-3.6,4.7-7.5,4.9-12.6c1-1.5,3.8-2.5,2.8-5c-1.1-0.7-2.2,0.7-3.1,0
				c0.3-2.4-0.6-4.2,0.5-6.3c-0.3-0.7-1.4-0.5-1.7-1.1c-2.8-8-8.6-15.2-20.5-12.9c-10,1.9-16.2,8.9-16.8,18.6
				c-0.5,9.5,2.5,15.9,6.5,21.5c-0.3,0.8-0.9,1.1-0.3,2.1c3.7-0.7,5.8,3.4,8.8,5c-1.6,0.3-3.3,0.5-4,1.6
				C251.1,243.2,253.4,244.1,254.4,246z M278.9,214c0.1,0.9-0.9,0.9-1.1,1.6C276.8,214.8,278,213,278.9,214z M257,239.2
				c-1.1,0.1-1.5-0.5-2.3-0.8c0.3-2.4,3.4-2.4,4.3-4.2c3.6-0.5,5.7-4.5,9.7-5.5C265.2,232.6,260.8,235.6,257,239.2z M258.5,240
				c1.4-4.3,6.5-3.6,9.1-6.5c0.3-0.8-0.4-0.8-0.9-1.1c1.1-1.5,3-2.4,4-3.9c0.3-1.1-0.6-1-0.5-1.8c1.7-0.7,3-3,4.5-2.9
				C271.8,231.5,266.2,236.7,258.5,240z M276.3,213.1c-1.4,1.3-4.7,0.7-5.1,2.9c-1.8-0.4-1.8,0.8-3.1,0.8c2.2-2.2,4.8-4.2,6.8-6.5
				C276.1,210.6,275.7,212.3,276.3,213.1z M274.9,205.8c-2.4,0.7-4.6,1.7-6.8,2.6c1.6-2.3,3.6-4.1,4.5-6.8
				C274.1,202.5,274.2,204.4,274.9,205.8z M270.9,198.7c-4.8,0.3-7.4,2.6-10.8,4.2c1.7-2.8,4.1-5,4.3-9.2
				C267.3,194.7,269.7,196.1,270.9,198.7z M259.3,193.2c-6.8,3.8-13.7,7.4-18.2,13.2C242.7,199,249.4,193.9,259.3,193.2z
				 M240.2,208.1c5.9-4.9,13.6-11.9,21.3-15c0.5-0.2,1.4,0.2,2,0.5c-0.7,4.9-4.3,9.1-8,12.1c-2.5,2-5.3,3.8-8,5.8
				c-2.6,2-4.7,4.3-7.4,6.1C239.9,214.7,239.8,211.1,240.2,208.1z M246.4,214.2c-0.7-0.5,0.9-1.1,1.1-1.6
				C248.2,213.1,246.8,213.9,246.4,214.2z M240.8,220.8c9.7-7.6,16.5-17.8,30.2-21.5c2,1.8-0.6,4.3-1.7,5.8
				c-6.5,8.6-19.6,12.8-26.7,21.3C241.6,224.8,241.7,222.3,240.8,220.8z M260.7,214c-2.3,3.2-6.7,4.5-8.2,8.4
				c-4.3,0.8-5.1,4.2-8.8,5C248.1,221.9,254.4,217.9,260.7,214z M243.3,228.4c13-4.8,18-18.4,32.1-21.3c-0.6,2.7-3.4,4.3-5.4,6.1
				c-2,1.8-3.6,3.9-5.7,5.5c-5.9,4.6-13.4,7.6-18.2,13.4C244.6,231.4,244.1,229.8,243.3,228.4z M256.2,225c0.7,0,0.3,0.2,0.3,0.5
				c-3.1,2.6-6.1,5.4-9.7,7.6C248.9,229.5,253.1,227.9,256.2,225z M247.9,233.9c8.9-6.5,15.3-15.5,27.6-18.9
				c-0.5,5.4-5.6,7.1-10,9.5c-5.7,3.1-10.7,7.4-15.7,11.1C249.2,234.9,248.5,234.5,247.9,233.9z M263.5,227.1
				c-3,2.4-5.9,4.8-9.7,6.5C256.8,231.2,259.8,228.8,263.5,227.1z M251.9,236.6c7.3-4.7,13.4-10.6,21.6-14.4
				c-1.6,2.4-4.9,3.2-6.3,5.8c-4,2.2-7.6,4.7-10.8,7.6C254.9,234.8,253.7,238.4,251.9,236.6z M250.8,241.6c0.6-0.3,1.3-0.5,2-0.8
				C253,242.2,251.4,242.4,250.8,241.6z"/>
			<path class="st0" d="M172.2,237.4c-2.2-3.1-7.2-3.8-10-6.3c0.9-2.5,1.9-4.9,5.1-5.3c0.1,0.2,0.3,0.3,0.5,0.3
				c0.5,1.6-0.5,3.4-0.5,4.7c-0.9-0.1-1.4-0.7-2.6-0.5c-0.1,0.5-0.7,0.7-0.5,1.6c0.9,0.9,2.4-0.5,3.7-0.3c1.1-2.3,1.8-5.1,2.8-7.4
				c-1.8-1.4-5.9-1.8-8.8-1.3c-1.9,1.6-0.8,5.4-1.7,7.4c-1.8,0.1-3.2-2-3.7-3.4c-0.4-1.2-0.1-3-0.5-4.7c-0.4-1.7-1.6-3.2-1.7-4.2
				c-0.1-0.8,0.3-1.6,0.3-2.4c0.1-5.2-0.8-10.1-0.5-14.7c-1.6,0.3-1.6-1-2-2.4c-1.4,2.2,0.6,3.9,0.9,6.1c-0.9-0.1-0.7,0.8-1.7,0.5
				c-0.9-1.6-0.9-3.1-0.3-5c-3.3,1.6-0.4,4.6-0.3,7.1c0.2,4.3-1.8,9.3-1.1,14.2c0.8,5.9,0.1,12.6-0.3,18.6c-0.3,0.8-1.4,0.8-1.4,1.8
				c0.1,0.6,1.4,0.1,1.1,1.1c-0.5,0.9-0.1,2.6-1.4,2.6c-0.2,0.9,1.1,0.3,0.9,1.3c-0.9,3.9-2,9.8-0.3,13.4c-2.5,1.4-1.1,4.8-2.6,7.1
				c0.2,0.5,1.4,0.1,1.1,1.1c0.7,6.2,1.4,12.4,3.7,17.1c0.2-1.3-0.3-2-0.3-3.2c1.1,1.1,2-0.5,2.6-0.3c-1,1-0.3,3.5-2.3,3.7
				c-0.1,3.2,0.6,5.5,1.4,7.9c-0.3,2.5-1.9,6.3-0.5,8.6c2.4-2.2,4-4.1,4.3-6.8c0-0.3-0.1-2.4-0.3-2.9c-0.2-0.6-1.4-1.2-1.4-1.8
				c0,0.1,0.9-1.1,0.9-1.1c0.4-1.7-0.5-4.7,0.5-6.1c-0.9-4.2,0.2-10.1,1.4-13.6c0.9,7.6,2,15.1,5.7,20.3c0-0.9-0.3-1.7-0.5-2.4
				c1.1,0.2,1.8-0.7,2.3-1.8c1,2.6-0.9,4.5-2.3,5.8c2.2,3.4,1.5,8.4,3.4,12.4c0.7,0,1.4,0,2,0c2.8-6.2-2.5-12.7-0.3-19.2
				c-0.7-0.3-0.9,1-1.1,0.3c-1-9.5-0.3-18.6-2.3-26c2.4-2.8,0.9-9.2,3.4-11.8c2,4.5,1.9,9.5,2.8,15c-0.5,0.9-1.6,1.1-1.7,2.4
				c1.1,1.1,0.4,3.8,1.4,5c1.6-0.9,2.8-3.6,2-5.8c-0.7,1-0.6,2.8-1.7,3.4c-0.3-0.9-0.5-2-0.5-3.2c1-0.1,1.3-0.9,2.6-0.8
				c1.8-3.4,2.2-10.4,1.1-14.7C174.3,245.4,172.7,240.6,172.2,237.4z M164.6,292.3c1.4,0.9,1.9,3.2,1.1,4.7
				C165.4,295.7,164.3,294,164.6,292.3z M166.8,234.5c0.2,0.9-0.6,1-1.4,1.1C165.4,234.7,165.8,234.3,166.8,234.5z M162,232.7
				c0.7,0.5,2.4,0.1,2.3,1.3c-1.4,0.3-2.4,0.9-3.7,1.3C160.8,234.1,161.9,233.9,162,232.7z M158.9,231c0.4,0.2,1.1,0.2,0.9,1.1
				c-0.4,0-0.7,0-1.1,0C158.5,231.6,158.7,231.4,158.9,231z M156.6,229.7c0.3,0,0.5,0,0.9,0c0.1,1.2-0.8,1.6-1.4,2.1
				C155.2,231.3,156.7,230.6,156.6,229.7z M151.7,238.1c1.5-2.3,3.9-3.8,5.1-6.3C157.3,233.8,154.2,237.1,151.7,238.1z M156,228.9
				c-1.1,2.6-2.6,4.7-4.3,6.8c-0.1-2.9,1.9-3.8,3.1-5.5c0-0.9-0.9,0.5-0.9-0.3C154.2,229.2,154.8,228.8,156,228.9z M152.3,231.3
				c-0.5-1.8,1.8-3.2,2.8-4.5C155.5,228.5,152.9,229.7,152.3,231.3z M154,222.7c0.3,0,0.5,0,0.9,0c-0.4,2.4-1.6,4.1-3.1,5.5
				C152.5,226.3,153.3,224.6,154,222.7z M152.6,221.3c0.8,1.1-0.3,2.8-0.9,3.7C150.2,223.9,152.4,222.5,152.6,221.3z M153.1,212.1
				c1.4,0.3,0.3,2.4-0.9,2.1C152.7,213.6,152.8,212.7,153.1,212.1z M153.1,215.3c0.7,1.4-1.1,4.9-2.3,6.3
				C151,218.9,152.7,217.7,153.1,215.3z M151.5,231.6c0.8,0,0.5,1.6-0.5,1.3C150.6,232,151.3,232,151.5,231.6z M160.3,233.4
				c-3,3.3-5.8,6.7-9.7,9.2C152.8,238.6,156.3,235.8,160.3,233.4z M150,244.9c4.7-3.3,9.4-6.6,13.6-10.3c0.5-0.1,0.5,0.2,0.5,0.5
				c-4.7,4.9-9.5,9.8-15.4,13.6C149,247.4,150,246.6,150,244.9z M151.2,248.7c4.2-3.8,9-7.4,13.6-11c0.5-0.1,0.5,0.2,0.5,0.5
				c-5.2,5.9-11,11.2-17.1,16.3C147.6,251.8,149.2,250.5,151.2,248.7z M154.3,251c3.4-2.8,6.8-5.7,10.3-8.6c0.3,0.1,0.3,0.5,0.3,0.8
				c-5.3,5.1-10.3,10.7-16.8,14.7C148.7,255,152.1,252.8,154.3,251z M160.8,266.3c0.3-1.1,1.2-1.7,1.7-2.6
				C164.1,264.4,162,266.1,160.8,266.3z M162.3,268.9c-0.8-0.5,0.4-1.4,0.5-1.8C163.7,267.6,162.7,268.6,162.3,268.9z M160,263.6
				c0.3-1.3,1.4-1.8,2-2.9c0.4,0.1,0.5,0.5,0.9,0.5C162.4,262.5,161,262.9,160,263.6z M158.5,257.8c0.2-0.9,1.1-1.2,2-1.6
				C160,257,160.2,258.2,158.5,257.8z M162,258.6c0.1,1.1-0.7,1.3-1.7,1.3C160.4,259,161.1,258.8,162,258.6z M162,258.4
				c-0.3-0.2-0.7-0.3-1.1-0.3c0.1-1.2,0.9-1.8,1.4-2.6C163.1,256.2,161.6,257.1,162,258.4z M152.6,257.6c1.1-2.8,5.5-5.1,8.5-7.1
				C159,253.4,156,255.8,152.6,257.6z M154,259.9c-0.1,1.2-2,3-3.7,3.6C151.2,262,153,261.4,154,259.9z M149.2,258.9
				c0.5-0.7,1.1-1.3,2.3-1.3C151.3,258.6,150.2,258.8,149.2,258.9z M148.4,265.5c0.6,0.7,0.5,0.7,1.7,0.5c-0.5,0.9-0.8,1.8-2,2.1
				C148.6,267.1,147.7,266.4,148.4,265.5z M150.3,281.8c-0.9-0.5-0.4-2.4-0.9-3.4c1.1,0.8,2-0.5,2.3-1.3
				C153.3,278.4,150.4,280.2,150.3,281.8z M149.5,277.5c-0.4-0.9-0.4-2.2-0.9-3.2c2-0.6,3.2-2,4-3.7
				C153.1,272.3,150.7,275.9,149.5,277.5z M152.6,291.7c-1.1-0.3-0.6-2.5,0.9-2.1C153.3,290.5,152.9,291.1,152.6,291.7z
				 M148.6,273.1c0.3-1.4,0-1.6,0-3.2c3.1-1.1,4.1-4.1,6.5-5.8c0.5-0.1,0.5,0.2,0.5,0.5C152.7,266.9,151.3,270.5,148.6,273.1z
				 M155.4,257.8c1.1-2,3.8-2.6,5.1-4.5c1.1,1.3-2.8,2.4-3.1,4.2C156.5,257.4,156.3,258,155.4,257.8z M156.6,260.2
				c-0.8-0.9,1.4-2.5,2.6-1.6C159,260.3,157.2,258.9,156.6,260.2z M161.1,266.8c0.8,1.1-2,3.4-2.6,5
				C156.7,269.6,160.3,268.2,161.1,266.8z M162.3,269.4c-0.2,1.9-2.2,4.4-3.7,6.1C158.8,272.6,160.8,271.1,162.3,269.4z
				 M160.8,275.5c0.7,0.9-1.1,2-1.1,3.2C158.1,277.6,160.4,276.3,160.8,275.5z M161.4,286.7c-0.7-2.2,1.6-3.5,2-5.5
				C164.8,282.9,162.6,285.7,161.4,286.7z M160.8,283.1c-0.7-0.2-0.4-1.4-0.9-1.8c1.4-2,2-4.7,3.1-7.4
				C164.6,277,163.2,281,160.8,283.1z M163.4,273.1c-0.4,0-0.7,0-1.1,0c-0.3-1,0.7-0.7,0.5-1.6C163.5,271.5,163.4,272.4,163.4,273.1
				z M162,247.4c1-1.4,2-2.9,4-3.4C165,245.4,163.8,246.6,162,247.4z M163.7,242.1c1.4-2.2,2.9-4.3,4.3-6.5c0.9-0.1,0.9,0.8,1.4,1.1
				C167.7,238.6,166,240.6,163.7,242.1z M167.1,242.4c0.7-2.2,2.5-3.3,3.7-5c1.4,0.2,0.4,1.1,0.9,1.8
				C169.5,239.7,168.8,241.5,167.1,242.4z M171.6,240c1.1,2-1.4,2.9-2,4.2C169.1,242.6,170.9,241.1,171.6,240z M170.8,262.6
				c-0.2-0.8,0.3-0.9,0.3-1.6C172.2,260.8,171.8,263,170.8,262.6z M172,254.9c-1.5-0.3-1-1.6-0.3-2.4
				C172.8,252.9,171.6,253.9,172,254.9z M170.5,248.4c0.2-0.9,0.8-1.6,1.1-2.4c0.5-0.1,0.5,0.3,0.9,0.3
				C172.7,247.8,171.7,248.1,170.5,248.4z"/>
			<path class="st0" d="M278.6,302.8c-0.7-4.7-6.3-10-10.8-9.5c-3.2,0.4-5.3,4.5-8,5c2.9-2.5,8-7.4,3.1-11.1
				c0.8-1.4,1.6-2.9,2.8-3.9c0.8,1.3,1.9,2.2,2.8,3.4c-1.7,1-1.5,3.4-0.9,5.5c6.8-1,4.9-11-1.4-11.3c-0.5,2.6-4.7,3.8-5.7,6.8
				c0.3,1.4,1.6,1.8,2,3.2c-3.2-0.3-3.6-4.3-4-7.1c-0.7-4.5-0.9-10.6-2.3-15.3c0.6-1.2,1-3.6,0.5-5c-0.3,0-0.5,0-0.9,0
				c-0.3,1.8-0.3,3.6-0.5,5.3c-1.1,0.3-0.8-0.7-1.7-0.5c0.1,4.9-0.8,9.5-1.1,13.4c-0.6,6.8,1.1,14.4,1.1,21.3c0,7.2,0,14.7-0.9,21
				c-0.6,4.3-2.5,8.1-2.6,12.1c-0.1,6.5,2.3,14,4.3,18.9c0.4,1,1.4,1.8,1.4,2.9c0.1,2.6-3.1,5.9-0.9,8.2c1.7-0.1,2.6-0.9,3.7-1.6
				c-0.1-2.1,0.8-3.3,1.1-5c-0.2-0.7-1.4-0.7-1.1-1.8c0.5-4.9-1.4-11.6,0.9-17.1c1.6,7.1,1.1,16,4.3,21.5c-0.5,2.4-2,5.7-0.3,7.9
				c1.1-0.1,2-0.5,2.8-0.8c1.3-2.3,2.6-7.2,0.3-8.4c0.9-9.7-0.3-18.2,2.8-26.5c-1.2-2.7,0.7-4.7,0.9-7.6c0.1-3.2-1.6-6.3-1.1-9.5
				c0.2-1.6,1.4-3,1.7-4.5c0.4-2.3-0.6-4.7,1.1-6.3c1.7,5.9,4.7,14.4,2.6,20c2,1.4-0.9,3.8,0.3,5.3c1.9-0.9,4.9-4,2.6-6.3
				c0.9-2.2,1.1-5.5,1.4-8.2c0.4-3.8-0.8-8-0.9-11.8C278.3,304.6,278.7,303.5,278.6,302.8z M274.9,298.9c1.4,0.3-0.3,1.8-0.9,1.1
				C274.2,299.4,274.7,299.2,274.9,298.9z M270.1,295.4c-1.4,0.9-2.8,2-4.3,2.9C266.7,296.9,268.2,293.7,270.1,295.4z M269.8,297.5
				c-2.5,4.7-8.3,6.3-10.5,11.3c-1.9,0.7-2.6,3.8-4.5,3.7c-0.1-1.1,0.1-2,0.3-2.9c4.5-4.6,9.9-8.4,14.8-12.6
				C270.1,297.1,270.1,297.5,269.8,297.5z M265.3,295.7c0.3,0.1,0.3,0.5,0.3,0.8c-4,2.9-6.6,7-10.3,10.3c-0.1-1.2,0.5-1.8,0.3-3.2
				C259.8,301.9,261.9,298.2,265.3,295.7z M261.6,293.6c-0.5,2.4-4.1,4.2-5.4,6.5C254.4,296.8,260,295.6,261.6,293.6z M260.7,292.5
				c0.2,1.4-2.1,0.5-1.7,2.1c-2.4-0.4-2.3,1.6-4,1.8C256.5,294.8,257.2,292.4,260.7,292.5z M254.7,287.5c-0.3-2.2,1.1-5.3,1.4-7.9
				C258.6,282,255.2,285.3,254.7,287.5z M255.3,273.6c0.9,0.3,0.3,3.4-0.9,3.4C254.4,275.7,255.2,274.8,255.3,273.6z M257,285.4
				c2.4,2.8-0.2,7.2-2.8,8.4C255.8,291.7,256.6,288.8,257,285.4z M258.7,318.6c-1.9,0.7-2.8,2.2-4.5,3.2c0.3-1.2,0.3-2.7,0.9-3.7
				c4.4-3.7,8.3-8,12.5-11.8c0.3,0.1,0.3,0.5,0.3,0.8C264.5,310.6,260.8,313.9,258.7,318.6z M265.8,312.5c-0.8-1,1.2-1.7,1.4-2.6
				c0.3-0.1,0.5,0.1,0.5,0.3C268.1,311.8,266.4,311.7,265.8,312.5z M254.1,327.8c0.3,0.7-0.9,2.4-2,2.6
				C251.8,328.6,253.3,328.5,254.1,327.8z M254.7,331.4c-0.2-0.8-0.6,0.3-1.1,0c0.9-1.7,2.5-2.8,3.7-4.2c-0.7,2.5-2.4,6.3-5.1,7.9
				C252.6,333.5,253.8,332.6,254.7,331.4z M253.9,337c0.5-0.1,0.5,0.3,0.9,0.3c-0.7,0.9-0.8,2.4-2,2.9
				C252.7,338.6,253.3,337.8,253.9,337z M255,350.1c-0.9,0-1-1.4-0.5-1.8C255.7,348.4,255.1,349.2,255,350.1z M253.6,346.9
				c-0.3-1-1.7-7,1.7-5.5C254.9,343.5,253.9,344.9,253.6,346.9z M257,362.2c-1.4-0.1,0.1-1-0.3-1.8C257.4,360.2,257.6,362,257,362.2
				z M257.6,356.9c-1.4-0.9-1.9-3.7-1.4-5.5C256.6,353.4,258.2,354.7,257.6,356.9z M255,324.1c-0.1-2.2,2.8-3,4.5-4.5
				c2.4-2,4.1-4.7,7.7-5.8c0.3,0.1,0.3,0.5,0.3,0.8c-2.7,2.3-4.4,5.4-6.8,7.9C258.3,322.6,257.3,323.9,255,324.1z M263.5,324.6
				c-0.6,1.4-2,2-2.6,3.4C259.9,326.2,262.4,325.3,263.5,324.6z M264.9,329.3c-1.2,1.6-2.2,3.4-4,4.5
				C261.4,331.6,263.5,329.6,264.9,329.3z M265.8,335.9c0.5-0.1,0.5,0.2,0.5,0.5c-2,1.8-2.6,4.7-4.3,6.8c-0.5-0.9-0.3-2.5-0.5-3.7
				C262.9,338.3,264.5,337.2,265.8,335.9z M262.1,345.7c2-0.2,2-2.2,2.8-3.4c1.2,1.5-1.2,4.1-1.4,6.1
				C262.5,347.9,262.2,346.9,262.1,345.7z M264.1,350.9c1.2,0,0.3,2,0.5,2.9C263.8,353.3,263.7,351.8,264.1,350.9z M264.7,367.5
				c0-0.4,0-0.9,0-1.3c0.3-0.7,1.1,0.5,1.4-0.3C266.9,366.6,266,367.8,264.7,367.5z M267.2,333.8c-1,0.7-2.2,1.3-3.4,1.8
				c0.9-2.2,2.4-3.8,3.1-6.1c0.3,0,0.5,0,0.9,0C267.6,331,266.6,332.4,267.2,333.8z M267.2,324.6c0.5,0.5-0.1,1-0.9,1.1
				C266.3,325,266.5,324.5,267.2,324.6z M261.8,322.5c1.8-2.2,3.6-4.4,6.3-5.8C267.6,320.1,265.3,321.9,261.8,322.5z M269.8,303.3
				c-5.5,3.2-9.2,8.1-14.2,11.8c0.5,0.9-0.1,2.1-1.4,2.1c0.3-0.7,0.4-1.4,0.3-2.4c6.5-4.6,10.7-11.4,17.6-15.5
				C271.4,300.8,269.5,301.8,269.8,303.3z M271.2,303.1c0.2-1.6,1.8-1.9,3.4-2.1c-0.4,1.1-1.4,1.6-2,2.6
				C272.1,303.5,272,303,271.2,303.1z M274.1,306.4c0.2-0.9-0.6-1-0.5-1.8c0.8-0.4,1.2-1.1,2.3-1.3
				C275.3,304.5,275.3,306,274.1,306.4z M276.6,322c-0.1-0.7-0.1-1.4,0.9-1.3C277.4,321.4,277.4,322,276.6,322z M277.2,328.6
				c-0.2-0.7,0.4-0.7,0.3-1.3C278.6,327.1,278,328.8,277.2,328.6z M277.2,319.6c-1.8-3.6,2.3-9.2-1.7-11c0.7-1.1,1-2.4,1.7-3.4
				C278.5,309.9,277.8,315.3,277.2,319.6z"/>
		</g>
		<path class="st0" d="M1,189.7c-0.5,3.4-1.4,6.5-0.8,9.9c1.6,10.3,8.3,17.2,16.7,21.9c-0.4,2-2.8,2-2.9,4.3
			c0.6,0.5,2.1,0.1,3.1,0.3c-0.3,5.3,0.9,12.8-1,17.1c0.3,0.8,1.6,0.8,1.8,1.7c-0.4,1.4,0,1.6,0.3,2.9c-1.8-0.1-1-2.5-2.6-2.6
			c1.6,1.8,0.7,4.9,1.3,6.5c-4.2,7.8,0.4,13.9,0.5,24.2c0.1,3.2-0.5,7.8,0.3,11.8c-0.5,0.5-0.9,0.9-1.6,1.2
			c-2.4,6.5-6.9,13.7-5.7,21.9c0.9,0.1,0.8-0.7,0.8-1.4c2.3,1.5,2.2,4.4,2.1,6.5c-1.7-1.3-0.3-4.1-3.4-4.3c-0.1,6,2.4,9.6,3.1,13.5
			c0.4,0.7,1.2-0.5,1.6,0.3c-1.3,0.3-0.7,1.6-2.4,2.4c-0.7-0.4,0.6-0.9,0.3-1.7c-2.4,0.5-1.8,3.8-2.4,6c3-0.1,3.9-3.9,6.3-5.3
			c-1.7-7-1-17,3.4-21.9c1.6,3.1,2.4,6.9,2.4,11.6c-0.1,0.9,1.2,0.7,1.3,1.4c0.2,0.8-0.4,0.9-0.3,1.7c2.4,2.8,1,7.9,2.9,11.1
			c0,0.6-0.9,0.4-1.3,0.7c1.4,2.2,2,5.1,4.7,6c2.3-1.2-0.1-4.1-0.3-6c-0.8-0.3-1.1-0.1-2.1,0c0.9-4.3,2.8-12.6,0.3-17.1
			c0.6-4.5,3.2-9.2,3.1-14.2c-0.1-2.3-1.8-4.9,0-6.8c0.1-0.5-0.1-0.9-0.3-1.2c1.1-1.6,1.2-4,2.4-5.5c1.9,3.8,2.2,9.1,4.2,12.8
			c-1.4,1-0.9,4.2,0,5.5c1.5-0.2,1.8-1.4,2.1-2.6c-0.4,0.1-0.7,0.3-1,0.5c0-0.7,0.1-1.6-0.3-2c0.5-0.8,0.9,0.4,1.6,0.3
			c-0.8-3,0.2-6.1-0.3-9.4c-0.1-0.6-0.7-1.1-0.8-1.7c-1-4.4,1.5-9.5-1.3-13.3c-2.8-2.3-6.1-4-8.9-6.3c0.3-1.8,0.8-3.1-0.5-4.1
			c0.2-1.1,1.5-1.2,2.1-2c0.8,0.9,2,2.3,2.1,3.8c0.1,1.1-1.1,2.2-0.3,2.9c2.1-0.3,4.6-2.4,4.7-5.3c-1.9-1.8-3.5-3.8-6.8-4.3
			c-1.1,2-2.4,3.8-3.6,5.5c0.2,1.1,0.9,1.7,1,2.9c-0.9-0.4-2.6-2.3-4.2-2.9c0.1-2.5-1-5.2-2.1-7.2c-0.5-2.4,0.1-7.6-1.8-9.4
			c1.7-2.7,1.5-6.8-0.8-8.7c0.9-6.4,1.2-13.4,1.6-20.3c5.3-1.7,9.5-6.3,12.3-11.1c1.3-0.1,1.5,0.9,2.6,0.3c0.7-1.2-0.7-1.7-1-2.6
			c0.8-1.5,0.8-3.8,2.6-4.3c-0.3-4.1,2.2-11.7-1-15.7c1.4,3.6,0.8,9.3-0.3,12.8c-3.6-3.6-7.6-8.2-12.3-12.1c-2.9-2.4-7.8-4.6-6-9.9
			c8.3,2.8,13,8.9,18,14.7c-0.8-2.2-2.5-4.6-4.2-6.5c-3.4-4.1-8.2-8.1-14.4-9.4c-2.2,1-1.1,4.7-0.3,6.3c-2.8-1.1-4.7-3.2-8.6-3.4
			c6.9-6.5,24.5-3.2,26.9,4.6c-1-3.5-6.6-8.3-12.6-8.9C10.7,174.9,2.4,179.4,1,189.7z M35.5,282.9c-0.3-1.2-1.4-2.1-0.8-2.4
			c1.4,1.1,3,4.6,1,6C35.1,285.6,35.7,284.2,35.5,282.9z M29.7,274.5c3.1-0.1,5.5,2.4,6,5.5C33.5,278.4,31.9,276.2,29.7,274.5z
			 M25,273.6c0.1-0.3-0.1-0.7,0.3-0.7c2.5,2.6,5.1,5.1,7.3,8C28.5,280.8,27.4,275.9,25,273.6z M20.6,273.8c-0.3,0-0.2-0.3,0.3-0.3
			c1.3,1.1,2.2,2.7,4.2,3.1c1,2.6,5.9,3.9,4.7,7C26.2,280.9,23.2,277.5,20.6,273.8z M19,282.9c0-0.9,0-2,0-2.9c2,2,5.7,3.8,6.3,6.3
			C23.4,285,22.2,283,19,282.9z M28.9,293.8c-2.9-2.3-4.9-5.4-7.3-8.2C25,287.5,29.1,288.8,28.9,293.8z M19.3,276.2
			c1.7,0,2,1.6,3.4,3.2c2.6,2.8,6.5,4.5,6,8.2C25.1,284.2,21.6,280.7,19.3,276.2z M27.4,296.9c0-0.9,0.3-0.7,0-1.4
			c-3.6-3-7.3-5.9-8.6-10.9c-0.4-0.1-0.1-0.4,0.3-0.5c3.1,4.6,7.2,8.4,10.2,13C28.6,297.8,28.2,296.9,27.4,296.9z M28.5,299.6
			c-0.7-0.1-1.2-0.5-1.3-1.2c0.6,0,0.7,0.4,1.6,0.3C28.7,299.1,28.7,299.4,28.5,299.6z M27.4,304.4c-0.4-1.5-3-3.4-2.1-4.6
			C26.2,301.2,29.3,302.5,27.4,304.4z M25.6,305.4c0.5,1.1,1.6,1.8,1.8,3.2C26.4,309,24.7,305.8,25.6,305.4z M24.8,317
			c0.5,0.7,1,1.4,1,2.4C25,319.2,24.1,317.8,24.8,317z M24.8,308.5c0.2,1.3,1.3,1.7,1.3,3.1C25.4,311.2,23.6,309.2,24.8,308.5z
			 M22.9,305.9c0.3,0,0.5,0,0.8,0c0.1,0.7,0.5,1.4,0.8,2C23.1,308,23.3,306.7,22.9,305.9z M18.7,286.8c0.4,4,4.5,5.9,4.7,9.2
			C22,294.2,16.8,288.8,18.7,286.8z M21.4,296.9c0.1,0.5,0.7,0.7,0.5,1.4C21,298.5,20.4,297.1,21.4,296.9z M18.5,298.7
			c0.9,0.3,2.2,1.4,1.6,2.4C19.1,300.6,18.8,299.7,18.5,298.7z M14.1,310.2c0.8,0.1,1.6,0.8,1,1.4C14.1,311.8,14.3,310.8,14.1,310.2
			z M12.5,305c0.3,1.1,2.6,3,1.8,3.6c-0.9-0.5-1.1-1.6-2.6-1.4C11.8,306.2,11.6,305.1,12.5,305z M14.8,303.2
			c-1.1-0.2-1.4-1.1-2.6-1.2c0.4-0.5-0.1-2.1,1-2C13.5,301.4,14.4,302.1,14.8,303.2z M16.4,307.6c-1.4-0.5-2.9-3-2.4-3.6
			C14.8,305.2,16.2,305.8,16.4,307.6z M18,297.7c0.1,0.7-1.1,0.7-1.3,0.5C16.5,297.3,17.6,297.3,18,297.7z M18.7,292.6
			c-1-0.2-2.4-1.3-1.6-2.4C17.7,291,18.3,291.7,18.7,292.6z M17.2,268.4c2.4,0.1,4.1,3.2,6.3,4.3c-2.2-0.5-3.2-2.2-5.7-2.4
			C17.8,269.5,17.2,269.2,17.2,268.4z M16.2,262.4c1.4,1.8,4.2,2.4,4.7,5.1c-2.2-0.9-3.2-3-5-4.3C15.6,262.8,15.6,262.6,16.2,262.4z
			 M16.2,260c1.3,1,2.5,2,3.4,3.4C18,262.8,15.8,261.6,16.2,260z M18.3,258.8c-1.2-0.3-2.1-2.1-1.6-3.1
			C16.8,257,18.3,257.2,18.3,258.8z M33.1,201.6c-3.4-4-8.8-7.4-11-11.6C25.9,193.6,31,197.3,33.1,201.6z M24.3,200.1
			c-7-5.4-15.2-9.7-17.8-18.8c13.5,3.2,17.8,15,27.2,21.9c-0.3,1.2-1.1,2-1.3,3.4C29.3,204.9,27,202.3,24.3,200.1z M28.5,212.9
			c-6.9-8-18.5-11.7-22.8-22.2c10.9,2.9,16.9,12.5,25.1,18.8C30.1,210.8,29.4,212,28.5,212.9z M22.7,218.7
			c-4.9-2.9-9.4-6.5-13.3-9.9c-1.3-1.1-3.6-2.2-3.9-3.8c4.9,1.8,9.9,5.3,14.1,8.4c1.3,0.9,3,3.1,5,2C18,209.2,9.2,205,4,197.5
			c0.1-0.2,0.2-0.3,0.5-0.3c4.2,2.6,8.2,4.9,11.7,8c3.5,3,6.8,6.7,11.7,8.2C26.5,215.5,24.6,217.1,22.7,218.7z M5.4,181.8
			c1,4.2,4.2,6.4,6.3,9.7c-2.1-0.7-3.3-2.1-6-2.2c-3.1,2.6,1.9,6.1,2.9,8.7c-2.2-0.7-3.1-2.6-6.3-2.4c-0.1,0.3-0.4,0.6-0.5,0.9
			c0.8,3.5,4,4.9,5.7,7.5c-1.4-0.2-1.8-1.2-3.6-0.9c-1.4,2.8,2.2,5.2,4.2,7c0,0.7-0.8,0.7-0.5,1.7c2.8,2.6,6.4,5.7,9.9,6.8
			c-1.3-1.2-2.9-2.2-3.9-3.6c2.5,1.6,5.1,3,6.8,5.3c-1.5,0.1-2.2,0-3.1,0.9c-5.6-4.3-13.4-10.2-15.4-18.4
			C0,195.4,1.3,186.7,5.4,181.8z"/>
		<g>
			<path class="st0" d="M277.3,262.1c-0.1-0.4-0.5-0.6-0.9-0.8c0.6-1.8,1.4-2.4,1.1-4.5c2.1-2.3,5.7-2.4,10-1.8
				c0.8-4.6,5.9-8.3,10.8-6.5c1.8-6.3,8.7-8.3,16.2-6.3c1.1,0.3,3.2,1.8,5.1,2.6c5,2.2,10.5,8,5.1,12.1c-0.4-1.8,1.4-3.8,0.3-5.8
				c-1-0.5-2-1.2-3.1-1.6c-1.7-3-5.1-4.9-9.4-6.1c-5.3-1.4-11.6-0.6-13.6,4.7c-0.3,0.8,0.5,1.9-0.9,2.4c-1.7-4.5-9.6,0.3-9.1,3.9
				c0.4,0.5,2-0.1,2,0.8c-3.9,2.4-10.3-1.6-11.9,2.9C278.4,259.6,280,262,277.3,262.1z"/>
			<path class="st0" d="M326,257.1c4.1,0.2,9.9-1.1,12.5,1.6c0.9,2,4.3,4.5,2.3,7.4c-0.9-0.1-0.7-2.4-0.3-2.9
				c-2-1.5-1.6-3.4-3.7-4.5c-3.4-1.8-8.7-0.4-13.1,0.8C323.9,258.2,325.2,257.8,326,257.1z"/>
			<path class="st0" d="M331.9,266.8c-3,0.1-4.7-3.2-8.2-3.4c-0.9,0.7-1,2-1.7,2.9c-4.1-1.6-10.3-2.3-13.1,0.3
				c-0.3-0.5-1.3-0.4-1.1-1.3c3.2-2.4,8-1.7,13.1-0.8C323.2,259.7,330.3,264.3,331.9,266.8z"/>
			<path class="st0" d="M291.8,267.4c-2.8-0.5-5.4-0.9-8-1.1c1.4-2.5,3.5-0.2,7.1-0.8c1.2-2.9,8.4-2.8,9.1,0.8
				c-2.1-0.5-4-2.3-6.8-1.3C293.4,266.3,292.6,266.7,291.8,267.4z"/>
			<path class="st0" d="M273.9,264.7c-0.6,0.4-1.9,0.2-2.6,0.5c-1,1.8,0.1,2.9,0,5.3C267.1,269.4,269.9,261.4,273.9,264.7z"/>
			<path class="st0" d="M350.7,270.5c-1.7-2.8-8.2-1.2-10-3.2c3.4-3,7.6,1.1,10.8,2.1c0.3,0.7,0.5,2,0,2.6c-1.8,0.6-4.6,0.1-6.8,0.3
				C345.2,270.1,349.7,272.6,350.7,270.5z"/>
			<path class="st0" d="M291.5,271.5c4.2,0,8.8,0,13.1-0.3c3.6-0.2,7.5-1.2,11.1-1.3c2.2-0.1,4,0.5,5.9,0.3c1.1-0.1,2.1-0.7,3.1-0.8
				c5.3-0.6,11,1.6,16.2,0.5c0.7,0.9,2.5,0.8,2.8,2.1c-5.9-0.9-11.1,0.3-15.1-1.1c-14.1,1.1-30.6,2.2-48.7,1.6
				C283.2,270.4,287.7,271.5,291.5,271.5z"/>
			<path class="st0" d="M279,272.6c-2.2-1-6.5,0.9-7.4-0.8C273.2,269.9,278,270.9,279,272.6z"/>
		</g>
	</g>
	<path class="st0" d="M328.1,310.5c-1.2-1.1-2.4-1.3-3.6-2.9c-0.7,1.3,0.5,1.8,0,2.6c-2.4,0.3-4.1,2.6-5.6,2.9
		c2.1-1.5,2.5-4.8,5.3-5.5c-0.9-1.2,0.4-1.9-0.3-3.2c-3.2-0.3-5.5-3-8.1-4.7c-1.4,0.9-2.4,0.4-3.6,0.3c-6.9-0.7-12.4,1.9-15.7,5.8
		c0.1-0.1-0.7,1-0.7,1.1c-0.5,1.4-0.5,1.2-1,2.1c-2.6,4.8-2.2,10.2-1.6,17.6c0.5,6.1,4.2,12.5,8.1,16.5c1.8,1.9,3.8,2.8,5.3,4.5
		c-1.1,0.5-3.3-0.1-3.8,1.1c0.3,2.1,1.8,2.8,3.3,3.6c1-0.4,0.8-2.2,2-2.4c-0.7,1.8-0.1,3.8,0,4.7c0.2,3.5,0,8.2,0,11.8
		c0,2.2,0.3,5,0,6.5c-0.3,1.4-2,2.4-2,3.7c-0.1,1,1,2.1,1,3.2c0,0.8-0.6,1.8-0.7,2.9c-1.1,7.1,2.8,18.2-0.3,24.4
		c2,2.6,1.4,6,1.6,8.9c1.5,0,2.4-2,3.3-1.6c-1,0.8-2,3-3.6,2.4c-0.8,3.9-2,7.4-3.3,10.8c0.3,3.6-0.7,11.8,1.8,14.7
		c0.1,6.4,3.4,12.8,3.8,18.9c-0.8,1.8-2.2,4.3-1.8,6.5c1.8,0.4,2.8-2.2,2.8-4.5c0.8,0.1,0.5,1.1,1,1.6c0.7-2.3-0.1-5.3-1-6.8
		c0.4-5.6-0.9-10.7,0-15.3c1.4,0.5,2,2.4,1.3,3.6c0.5,0.1,0.5,0.7,0.7,1.1c-0.2,5.1,3.6,10.7,2.8,16.5c-0.3,1.9-2,3.5-1.3,5.8
		c2,0,2.3-1.8,2.6-3.7c0.7,0,0.3,1.2,1,0.5c0.5-2.8-1-5.2-1.3-7.6c-0.5-5,0.7-11-0.3-14.4c0.9-0.1,1-1.1,1.6-1.6
		c1.5-7.9,2.4-15.9-1-22.3c1.3-2.5-1.2-9.2,1.8-10.5c3.8,5.9,3.2,14.7,4.1,21.5c2.2-1.4,0.7-3.8,0.5-5.5c-0.2-1.6,0.5-3.4,0.5-5.5
		c0-2.4-0.5-5.1-0.7-7.9c-0.6-6.7-0.6-11.5-5.8-12.4c0.7-1.4,3-1.2,4.1-2.4c0.7,0.9,2.2,0.8,3,0c-1-2.3-2.4-8-4.8-8.2
		c-1.8-0.1-1.8,1.7-2.8,2.9c-1.9,2.4-3.4,2.6-1.8,5c-0.6,0.1-0.5,0.8-1,1.1c-0.4-0.6-1.4-0.7-2-1.1c-0.5-3.1-2.4-6.2-2.8-9.7
		c-0.3-2.6,0.3-5.3-0.5-7.9c-0.1-0.5-0.8-0.6-1-1.1c-0.5-0.9-0.1-2-0.7-2.9c2.4-1.8,2-5.1,2-8.6c0.1-6.3,0.7-13.6,0.5-18.6
		c0.1-0.5,0.7-0.5,1-0.8c0.1-0.7-0.9-0.6-0.3-1.3c1.7,0.1,3.4-0.5,5.1-1.1c-0.7,1.1-3,2-1.6,1.6c0.7-0.3,2.3-1.1,3.3-2.1
		c4.1-3.8,7-9,9.4-13.6c1.4-5.5,2.4-11.3,1-17.3c-0.6,0.5-1,1.2-1.6,1.8c0.2,0.9,0.4,1.7,0.5,2.6c-2.2,0.5-4.7,2.2-6.3,2.4
		C322.5,317.6,327.3,315,328.1,310.5z M309,409c0.3-0.5,0.3-1.3,1.3-1.1C310,408.4,309.8,409,309,409z M315.1,414.8
		c0.9-0.2,0.3,1.2,0.5,1.8c-2.6,1-3.5,3.7-5.8,5C311.1,418.9,313.7,417.5,315.1,414.8z M312.6,423c0-1.9,2.4-3.4,2.8-5.8
		c0.3,0,0.5,0,0.7,0C316.3,420.5,313.7,420.9,312.6,423z M313.3,427.1c-0.2-1.8,2.5-2.8,2.8-5C318.3,423.6,314.4,425.8,313.3,427.1z
		 M310.3,417.7c0.8,1.6-2.7,3.2-3.3,5C306,420.9,309.5,419.4,310.3,417.7z M310.3,422.7c0.3,1.1-2.7,4.1-4.1,5.3
		C306.3,424.9,309.1,424.6,310.3,422.7z M312.6,424.2c0.4-0.1,0.5,0.2,0.5,0.5c-2.6,2.6-4.7,5.9-7.4,8.4
		C306.1,429.2,310.6,427.4,312.6,424.2z M311.8,429.2c-0.9-0.7,0.4-1.6,0.7-1.8C313.2,427.9,311.7,428.4,311.8,429.2z M311.6,431.1
		c-1.8,2.4-3.6,4.9-6.1,6.5C306.7,434.6,309.5,433.2,311.6,431.1z M309.5,455.8c-1.2-4.5-1.9-9.5-3-13.9c0.5-0.5,1.9-0.2,2.8-0.3
		C308.8,445.9,310.2,452.1,309.5,455.8z M310.8,441.1c-0.8-0.1-1.7-0.2-2.3-0.5c2.6-2.9,5.1-5.9,8.1-8.4
		C315.5,434.9,312.1,437.6,310.8,441.1z M315.8,457.1c-0.8-4-3-9.1-2.3-12.9c0.8,0.1,1.1,0.6,2,0.5
		C316.4,449.2,316,452.3,315.8,457.1z M315.4,442.7c1.1-0.1,0.5-1.9,1.8-1.8c-0.2,1.1,0.3,1.6,0.3,2.6c-1.4,0.7-3.3,0.1-4.3-0.5
		c1-2.1,2.4-3.8,3.6-5.8c-2,1.3-2.6,3.9-4.6,5.3c-0.7-2.5,3-4.5,4.3-6.5c-0.1-0.4-1.1,0.4-1.3,0.8c0-1.7,2.1-3.4,3.6-4.5
		C318.1,436.1,316.2,440,315.4,442.7z M318.1,429.5c-0.6,1.1-1.7,1.8-2.6,2.6c-0.5-1.2,1.6-1.8,1.8-3.2
		C317.9,428.8,317.7,429.5,318.1,429.5z M317.4,425.9c0.5,0.9-0.3,1.8,0.3,2.9c-2,1.9-3.9,4.2-5.8,6.3c-1.8,2-3.5,5.1-6.3,5
		c0.2-1.5,1.8-2.4,2.8-3.2c3-2.6,6.1-5.5,8.9-8.6c-1.6,0.9-2.7,2.3-4.1,3.4C313.5,429.8,315.8,427.5,317.4,425.9z M320.4,403.5
		c2,3.2,1.8,7.2,2,12.1C322.1,411.3,317.3,407.4,320.4,403.5z M319.7,402.7c-0.9,1.2-0.9,3.5-2.6,3.9c-0.1-0.9,0.7-0.9,0.7-1.8
		c-1.8,0.4-2.1,2.4-3.8,2.9c0.6-1.6,2.2-2.2,2.8-3.6c-1.9,0.5-2.8,2-4.3,2.9c-0.1-1,1.1-0.8,1-1.8c-1.6,0.3-2,1.8-3.6,2.1
		c0.5-1.5,1.9-1.9,2.6-3.2c0.6,0.1,1.1,0.3,1.3,0.8C315.8,404.4,317.7,401.5,319.7,402.7z M312.6,399.8c1.8,1.5,2.2-1.4,3.3-2.1
		c0.1-0.9-0.9-0.9-1-1.6c0.7-1.4,1.5-2.8,3-3.4c0.4,0.8,0.5,1.9,1,2.6c-1.4,1.8-1.8,3.4-3,5c-0.1,0.9,0.7,1,1.3,1.3
		c-0.2,1.3-1.6,1.3-2.6,1.8c-0.8-0.2-0.3-0.7-0.3-1.3c-0.6-0.1-0.5,0.5-1.3,0.3C312.7,401.8,312.5,401,312.6,399.8z M312.1,402.4
		c-0.4,2.5-2.4,3.3-4.3,4.2c-0.1-0.5-0.7-0.5-0.5-1.3C309.4,405.9,310,402.7,312.1,402.4z M311.8,400.3c-0.2,1.8-2,1.8-2.6,3.2
		c-0.1-1,1.4-2.6,2-3.6C311.6,399.9,311.5,400.3,311.8,400.3z M308,381.7c-0.9,6.9,2.2,9.7,2,15.8c-0.1,1.1,0.9,1,1,1.8
		c-1.1,0.9-1.6,2.6-2.6,3.7c0.9-6.4-2.3-13.4-1.3-21.5C307.7,381.4,307.7,381.6,308,381.7z M326.3,310.5c0.5-0.1,0.7,0.2,1,0.3
		c0.1,0.8-0.7,0.7-0.7,1.3C325.8,312,325.9,310.8,326.3,310.5z M323.5,304.7c0.1,0.5-0.2,0.7-0.3,1.1c-0.4-0.2-0.8-0.4-0.7-1.1
		C322.8,304.7,323.1,304.7,323.5,304.7z M310.6,300.8c-0.7,0.5-2.3,1-3,0.5C308.1,300.5,309.9,300.6,310.6,300.8z M304.7,348.3
		c0.5,0.1,0.5,0.7,0.5,1.3c0.9-0.3,1.1-1.1,2.3-1.1C307.3,350.6,303,350.4,304.7,348.3z M304.4,344.4c5.7-3.4,10.5-7.6,16.5-10.5
		c-2.2,4.9-9,7.1-12.2,11.8c3.5-1,5.9-4.6,8.9-5.3C314.2,343.2,308.3,349.7,304.4,344.4z M317.4,344.1c-1.3,0.9-3,0.9-4.1,1.3
		c2.2-2.1,5.1-3.4,6.9-6.1C320.4,340,318.7,343.2,317.4,344.1z M321,338.8c-0.5-0.9-1.7-0.1-2.3-0.5c1.1-1.6,4.7-3.1,3.3-5.5
		c-1.1,0.1-1.8,0.5-2.8,0.8c0.9-2.2,3.6-2.6,4.3-5c-0.9-2.6-4,0.9-5.1,0.5c3-2.1,5.7-4.5,8.1-7.1C327.3,329.3,323.3,333.9,321,338.8
		z M326.5,320.2c-6.8,8.2-16.9,12.8-24.8,19.7c3.4,0.5,5.7-2.8,8.4-4.7c3.6-2.5,8.2-4.1,11.9-6.3c-2.5,3.7-7,5.3-9.7,8.9
		c-3.3,1.4-5.6,3.8-8.4,5.8c-1.9-1.5-3.4-3.4-4.8-5.5C308.4,332.4,315.2,322.8,326.5,320.2z M306.3,329.7c-1.2,0.9-2,2.1-3,2.9
		c-0.9,0.7-2.2,0.9-3,1.6c-0.9,0.7-1.4,1.8-2.6,1.8c-4.5-7.1-6.3-22.3-0.3-29.2c0.8-0.3,0.6,0,1.6,0c-0.5-1,0-1.3,0.5-1.8
		c0.3,0.1,0.5,0.3,0.4,0.5c2.9-1.3,6.6-3.9,11.5-3.8c-4.1,3.2-9,6.2-12.7,10c-1.5,1.6-3.6,3.7-3.6,6.3c1.6-0.1,1.4-1.9,2-2.9
		c2.8-4.3,8.9-8.7,13.4-11.5c1.7-1,3.6-2.8,5.6-2.1c-3.9,11.1-16,13.7-21.6,23.2c3.3-0.2,5.7-3.1,7.9-5.3
		c5.5-5.3,10.7-10.7,18.3-14.2c-3.8,0.6-5.8,3.3-9.1,4.5c1.9-2.5,3.8-5,5.3-7.9c2.7,0.9,4.4,2.8,5.8,5c-4.9,8.2-13.8,13.4-21.6,19.2
		c-1.8,1.3-4.3,2.4-4.8,4.7c2.3,0.3,4.3-1.7,6.1-3.2c1.8-1.5,3.9-3,5.8-4.5c3.8-3,6.9-7.4,11.1-8.6c1.5-1.6,3.4-2.6,5.8-3.2
		c1.3,2-1.6,5.4-3.3,7.1C317.8,322.2,311.6,325.9,306.3,329.7z M306.3,314.7c-3.2,3-6.3,6.1-9.9,8.6c-0.4-0.9,1-1.7,1.8-2.4
		c2.3-2.2,5.5-4.7,7.9-6.8C306.6,314.1,306.3,314.3,306.3,314.7z M307.5,321.8c-0.5,1.8-3.6,3.2-5.3,4.7
		C302.7,324.7,305.8,323.3,307.5,321.8z"/>
</g>
</svg>
