<?xml version="1.0" encoding="utf-8"?>
<!-- Generator: Adobe Illustrator 22.0.1, SVG Export Plug-In . SVG Version: 6.00 Build 0)  -->
<svg version="1.1" id="Calque_1" xmlns="http://www.w3.org/2000/svg" xmlns:xlink="http://www.w3.org/1999/xlink" x="0px" y="0px"
	 viewBox="0 0 227.6 256.6" style="enable-background:new 0 0 227.6 256.6;" xml:space="preserve">
<style type="text/css">
	.st0{fill:#D1D3D4;}
	.st1{fill:#61BCDD;}
	.st2{fill:#28ADE1;}
	.st3{fill:#199BCB;}
	.st4{fill:#2377BA;}
	.st5{fill:url(#SVGID_1_);}
	.st6{fill:url(#SVGID_2_);}
	.st7{fill:#414042;}
</style>
<g>
	<path class="st0" d="M207.7,182.3l2.7-126.8h-79.5H51.5l2.7,126.8c0.4,18.2-0.1,36.1-1.3,54.3l-1.4,20h79.4h79.5l-1.4-20
		C207.7,218.3,207.3,200.5,207.7,182.3z"/>
	<g>
		<g>
			<g>
				<rect x="-1" class="st1" width="227.6" height="73.3"/>
				<rect x="8.2" y="7.1" class="st2" width="209.2" height="59"/>
				<rect x="22.9" y="28.1" class="st3" width="179.9" height="17.1"/>
				<rect x="26.6" y="33.1" class="st4" width="172.4" height="7.1"/>
			</g>
			
				<linearGradient id="SVGID_1_" gradientUnits="userSpaceOnUse" x1="114.95" y1="364.0509" x2="114.95" y2="587.215" gradientTransform="matrix(1 0 0 1 0 -332.0177)">
				<stop  offset="0" style="stop-color:#F2F2F1"/>
				<stop  offset="0.25" style="stop-color:#FFFFFF"/>
				<stop  offset="0.4734" style="stop-color:#E7E8E9"/>
				<stop  offset="0.6346" style="stop-color:#DBDDDE"/>
				<stop  offset="1" style="stop-color:#FFFFFF"/>
			</linearGradient>
			<path class="st5" d="M191.7,164.3l2.7-126.8h-79.5H35.5l2.7,126.8c0.4,18.2-0.1,36.1-1.3,54.3l-1.4,20h79.4h79.5l-1.4-20
				C191.7,200.3,191.3,182.5,191.7,164.3z"/>
			
				<linearGradient id="SVGID_2_" gradientUnits="userSpaceOnUse" x1="114.95" y1="364.0509" x2="114.95" y2="587.215" gradientTransform="matrix(1 0 0 1 0 -332.0177)">
				<stop  offset="0" style="stop-color:#F7F9F8"/>
				<stop  offset="7.763818e-02" style="stop-color:#FBFCFC"/>
				<stop  offset="0.25" style="stop-color:#FFFFFF"/>
				<stop  offset="0.4629" style="stop-color:#F3F3F3"/>
				<stop  offset="0.6058" style="stop-color:#E8E9E9"/>
				<stop  offset="0.8273" style="stop-color:#F8F9F9"/>
				<stop  offset="1" style="stop-color:#FFFFFF"/>
			</linearGradient>
			<path class="st6" d="M191.7,164.3l2.7-126.8h-79.5H35.5l2.7,126.8c0.4,18.2-0.1,36.1-1.3,54.3l-1.4,20h79.4h79.5l-1.4-20
				C191.7,200.3,191.3,182.5,191.7,164.3z"/>
		</g>
		<g>
			<path class="st7" d="M63.8,87.1c-0.2,0-0.5,0-0.7,0c0-3.4,0-6.8,0-10.2c0.2,0,0.5,0,0.7,0C63.8,80.3,63.8,83.7,63.8,87.1z"/>
			<path class="st7" d="M66.1,76.9c0.7,0,1.3,0,1.9,0c1.5,0,2.8,0.2,4,1.3c1.1,1,1.7,2.4,1.7,3.9c0,1.4-0.5,2.8-1.7,3.8
				c-1.2,1.1-2.4,1.4-4,1.4c-0.7,0-1.3,0-1.9,0C66.1,83.7,66.1,80.4,66.1,76.9z M68,86.6c1.4,0,2.6-0.2,3.6-1.2
				c0.9-0.9,1.4-2.1,1.4-3.3c0-1.3-0.5-2.6-1.5-3.5s-2.1-1.1-3.5-1.1c-0.4,0-0.8,0-1.2,0c0,3,0,6,0,9C67.2,86.6,67.6,86.6,68,86.6z"
				/>
			<path class="st7" d="M76,77.5c0,1.2,0,2.5,0,3.7c1.4,0,2.9-0.1,4.3-0.1c0,0.2,0,0.4,0,0.6c-1.4,0.1-2.9,0.1-4.3,0.1
				c0,1.6,0,3.2,0,4.8c1.5,0,2.9-0.1,4.4-0.1c0,0.2,0,0.4,0,0.6c-1.7,0.1-3.4,0.1-5.1,0.1c0-3.5,0-6.9,0-10.4
				c1.7-0.1,3.4-0.1,5.1-0.1c0,0.2,0,0.4,0,0.6C78.9,77.4,77.4,77.4,76,77.5z"/>
			<path class="st7" d="M92.1,87.1c-3-3-6-6-8.9-8.9c0,3,0,6,0,8.9c-0.2,0-0.5,0-0.7,0c0-3.5,0-7,0-10.5c3,3,6,5.9,8.9,8.9
				c0-3,0-6.1,0-9.1c0.2,0,0.5,0,0.7-0.1C92.1,79.9,92.1,83.4,92.1,87.1z"/>
			<path class="st7" d="M96.8,86.5c-0.2,0-0.5,0-0.7,0.1c0-3.3,0-6.6,0-9.9c-0.9,0.1-1.8,0.1-2.7,0.2c0-0.2,0-0.4,0-0.7
				c2.1-0.1,4.1-0.2,6.2-0.4c0,0.2,0,0.4,0,0.7c-0.9,0.1-1.8,0.1-2.7,0.2C96.8,79.9,96.8,83.2,96.8,86.5z"/>
			<path class="st7" d="M101.4,86.2c-0.2,0-0.5,0-0.7,0.1c0-3.5,0-7,0-10.5c0.2,0,0.5-0.1,0.7-0.1C101.4,79.2,101.4,82.7,101.4,86.2
				z"/>
			<path class="st7" d="M106.1,85.9c-0.2,0-0.5,0-0.7,0.1c0-3.3,0-6.6,0-9.9c-0.9,0.1-1.8,0.1-2.7,0.2c0-0.2,0-0.4,0-0.7
				c2.1-0.1,4.1-0.3,6.2-0.4c0,0.2,0,0.4,0,0.7c-0.9,0.1-1.8,0.1-2.7,0.2C106.1,79.3,106.1,82.6,106.1,85.9z"/>
			<path class="st7" d="M110.8,75.6c0,1.3,0,2.6,0,3.9c1.4-0.1,2.9-0.2,4.3-0.3c0,0.2,0,0.4,0,0.7c-1.4,0.1-2.9,0.2-4.3,0.3
				c0,1.6,0,3.2,0,4.9c1.5-0.1,2.9-0.2,4.4-0.3c0,0.2,0,0.4,0,0.7c-1.7,0.1-3.4,0.2-5.1,0.4c0-3.5,0-7.1,0-10.6
				c1.7-0.1,3.4-0.2,5.1-0.4c0,0.2,0,0.4,0,0.7C113.7,75.4,112.3,75.5,110.8,75.6z M113.9,72c-0.6,0.7-1.2,1.4-1.7,2.2
				c-0.2-0.1-0.4-0.1-0.5-0.2c0.5-0.7,1-1.4,1.4-2.2C113.4,71.8,113.7,71.9,113.9,72z"/>
			<path class="st7" d="M124.4,83.1L124.4,83.1c1.1-3.1,2.1-6.2,3.2-9.4c0.2,0,0.5-0.1,0.7-0.1c-1.3,3.8-2.6,7.6-3.9,11.4
				c-1.2-3.6-2.6-7.2-3.8-10.8c0.2,0,0.5-0.1,0.7-0.1C122.3,77.2,123.3,80.2,124.4,83.1z"/>
			<path class="st7" d="M130.2,84.3c-0.2,0-0.5,0-0.7,0.1c0-3.6,0-7.2,0-10.8c0.2,0,0.5-0.1,0.7-0.1
				C130.2,77.2,130.2,80.8,130.2,84.3z"/>
			<path class="st7" d="M137.4,74.9c-0.5-0.8-1.1-1.2-2.1-1.1c-1.1,0.1-2,1.1-2,2.2s1.1,1.5,1.9,1.9c0.7,0.3,1.4,0.7,2,1
				c0.8,0.5,1.2,1.1,1.2,2.1c0,1.8-1.6,3.2-3.3,3.3c-1.5,0.1-2.6-0.8-3.2-2.1c0.2-0.1,0.4-0.2,0.6-0.3c0.5,1.1,1.3,1.8,2.6,1.8
				c1.4-0.1,2.6-1.2,2.6-2.7c0-1.2-1.2-1.7-2.1-2.1c-0.7-0.3-1.3-0.6-1.9-0.9c-0.7-0.4-1.1-1-1.1-1.8c0-1.6,1.1-2.8,2.7-2.9
				c1.1-0.1,2.1,0.5,2.6,1.4C137.7,74.6,137.6,74.8,137.4,74.9z"/>
			<path class="st7" d="M146.6,72.7c0.2,0,0.5,0,0.7,0c0,2.3,0,4.5,0,6.8c0,1.1,0,2.1-0.7,3s-1.8,1.4-2.9,1.4
				c-1.1,0.1-2.2-0.4-2.9-1.1c-0.7-0.9-0.7-1.8-0.7-2.9c0-2.3,0-4.5,0-6.8c0.2,0,0.5,0,0.7-0.1c0,2.2,0,4.3,0,6.5c0,1,0,2,0.5,2.7
				s1.5,1,2.4,1c0.8-0.1,1.8-0.4,2.4-1.1c0.5-0.7,0.5-1.8,0.5-2.7C146.6,77,146.6,74.8,146.6,72.7z"/>
			<path class="st7" d="M150.2,73.1c0,1.3,0,2.6,0,4c1.4-0.1,2.9-0.1,4.3-0.1c0,0.2,0,0.4,0,0.7c-1.4,0.1-2.9,0.1-4.3,0.1
				c0,1.7,0,3.3,0,5c1.5-0.1,2.9-0.1,4.4-0.1c0,0.2,0,0.4,0,0.7c-1.7,0.1-3.4,0.1-5.1,0.1c0-3.6,0-7.3,0-10.9
				c1.7-0.1,3.4-0.1,5.1-0.2c0,0.2,0,0.4,0,0.7C153.1,73,151.6,73.1,150.2,73.1z"/>
			<path class="st7" d="M157.3,82.6c0.9,0,1.8,0,2.7,0c0,0.2,0,0.4,0,0.7c-1.1,0-2.3,0-3.4,0c0-3.6,0-7.3,0-11c0.2,0,0.5,0,0.7,0
				C157.3,75.8,157.3,79.2,157.3,82.6z"/>
			<path class="st7" d="M162,82.6c0.9,0,1.8,0,2.7,0c0,0.2,0,0.4,0,0.7c-1.1,0-2.3,0-3.4,0c0-3.7,0-7.3,0-11c0.2,0,0.5,0,0.7,0
				C162,75.7,162,79.2,162,82.6z"/>
			<path class="st7" d="M166.5,72.9c0,1.3,0,2.7,0,4c1.4,0,2.9,0.1,4.3,0.1c0,0.2,0,0.4,0,0.7c-1.4-0.1-2.9-0.1-4.3-0.1
				c0,1.7,0,3.4,0,5.1c1.5,0,2.9,0.1,4.4,0.1c0,0.2,0,0.4,0,0.7c-1.7-0.1-3.4-0.1-5.1-0.1c0-3.7,0-7.4,0-11.1c1.7,0,3.4,0.1,5.1,0.1
				c0,0.2,0,0.4,0,0.7C169.5,73,168,72.9,166.5,72.9z"/>
			<path class="st7" d="M63.8,119.2c0.9,0.1,1.8,0.1,2.7,0.1c0,0.2,0,0.4,0,0.6c-1.1-0.1-2.3-0.1-3.4-0.2c0-3.4,0-6.8,0-10.2
				c0.2,0,0.5,0,0.7,0.1C63.8,112.7,63.8,115.9,63.8,119.2z"/>
			<path class="st7" d="M73.9,116.9c0,1.9-1.5,3.3-3.5,3.2c-1.9-0.1-3.4-1.6-3.4-3.4s1.5-3.2,3.4-3.2
				C72.4,113.6,73.9,115,73.9,116.9z M67.7,116.8c0,1.4,1.2,2.7,2.7,2.8c1.6,0.1,2.9-1.1,2.9-2.6s-1.2-2.7-2.9-2.8
				C68.9,114.1,67.7,115.3,67.7,116.8z"/>
			<path class="st7" d="M81.3,119.9c0,1,0,1.8-0.7,2.7c-0.6,0.8-1.5,1.2-2.6,1.2c-1.7,0-3.1-1-3.2-2.7c0.2,0,0.4,0,0.7,0
				c0.1,1.3,1.2,2.1,2.6,2.2c0.8,0,1.6-0.2,2.1-1c0.5-0.7,0.6-1.5,0.6-2.4c0-0.2,0-0.5,0-0.8l0,0c-0.6,0.8-1.5,1.2-2.6,1.2
				c-1.9,0-3.2-1.6-3.2-3.3c0-1.8,1.4-3.3,3.3-3.3c1.1,0,1.8,0.4,2.4,1.2l0,0c0-0.4,0-0.7,0-1.1c0.2,0,0.4,0,0.7,0
				C81.3,115.8,81.3,117.8,81.3,119.9z M75.5,116.9c0,1.4,1,2.8,2.6,2.8c1.7,0,2.6-1.3,2.6-2.9c0-1.5-1-2.6-2.6-2.6
				C76.6,114.2,75.5,115.5,75.5,116.9z"/>
			<path class="st7" d="M89.6,116.9c0,1.9-1.5,3.4-3.5,3.4c-1.9,0-3.4-1.5-3.4-3.3s1.5-3.3,3.4-3.4C88.1,113.6,89.6,115,89.6,116.9z
				 M83.5,117c0,1.4,1.2,2.7,2.7,2.7c1.6,0,2.9-1.2,2.9-2.8c0-1.6-1.2-2.7-2.9-2.7C84.6,114.2,83.5,115.5,83.5,117z"/>
			<path class="st7" d="M71.6,128.3c-0.8-1-2.3-1.7-3.6-1.7c-2.7-0.1-4.8,2-4.8,4.5c0,1.2,0.5,2.4,1.4,3.3c0.9,0.9,2.1,1.5,3.4,1.6
				c1.2,0.1,2.8-0.5,3.6-1.4c0,0.3,0,0.6,0,0.9c-1,0.8-2.3,1.2-3.6,1.1c-3-0.1-5.5-2.7-5.5-5.6c0-2.9,2.6-5.1,5.6-5
				c1.3,0.1,2.6,0.6,3.5,1.5C71.6,127.6,71.6,128,71.6,128.3z"/>
			<path class="st7" d="M74.2,125.2c0,2,0,4,0,6l0,0c0.4-0.7,1.1-1.1,2-1.1c1.7,0.1,2.1,1.1,2.1,2.7c0,1.2,0,2.6,0,3.8
				c-0.2,0-0.4,0-0.7,0c0-1.2,0-2.6,0-3.8c0-1.1-0.1-2.1-1.5-2.1c-1.7-0.1-1.9,1.4-1.9,2.7c0,1,0,2.1,0,3.1c-0.2,0-0.4,0-0.7,0
				c0-3.7,0-7.6,0-11.3C73.8,125.2,73.9,125.2,74.2,125.2z"/>
			<path class="st7" d="M86.2,136.7c-0.2,0-0.4,0-0.7,0c0-0.4,0-0.8,0-1.1l0,0c-0.5,0.8-1.5,1.2-2.5,1.2c-2,0-3.2-1.5-3.2-3.4
				s1.2-3.3,3.2-3.3c1,0,2,0.4,2.5,1.2l0,0c0-0.4,0-0.7,0-1.1c0.2,0,0.4,0,0.7,0C86.2,132.4,86.2,134.6,86.2,136.7z M80.4,133.4
				c0,1.5,1,2.8,2.6,2.8c1.7,0,2.6-1.3,2.6-2.9c0-1.5-1-2.6-2.6-2.6C81.5,130.8,80.4,132.1,80.4,133.4z"/>
			<path class="st7" d="M89,131.1L89,131.1c0.3-0.6,0.8-1,1.4-1c0.2,0,0.5,0.1,0.7,0.1c-0.1,0.2-0.2,0.4-0.4,0.5
				c-0.2-0.1-0.3-0.1-0.5-0.1c-1.4,0-1.4,1.8-1.4,2.7c0,1.1,0,2.2,0,3.3c-0.2,0-0.4,0-0.7,0c0-2.1,0-4.3,0-6.4c0.2,0,0.4,0,0.7,0
				C89,130.6,89,130.9,89,131.1z"/>
			<path class="st7" d="M93.3,136.7c-0.2,0-0.4,0-0.7,0c0-2,0-3.9,0-5.8c-0.2,0-0.5,0-0.7,0c0-0.2,0-0.4,0-0.6c0.2,0,0.5,0,0.7,0
				c0-0.8,0-1.5,0-2.3c0.2,0,0.4,0,0.7,0c0,0.8,0,1.5,0,2.3c0.4,0,0.8,0,1.1,0c0,0.2,0,0.4,0,0.6c-0.4,0-0.8,0-1.1,0
				C93.3,132.8,93.3,134.8,93.3,136.7z"/>
			<path class="st7" d="M95.5,133.5c-0.1,1.6,1.1,2.7,2.6,2.7c1,0,1.8-0.7,2.3-1.5c0.2,0.1,0.4,0.2,0.5,0.3
				c-0.6,1.1-1.7,1.8-2.9,1.8c-2,0.1-3.2-1.5-3.2-3.3s1.2-3.3,3.2-3.4c2-0.1,3.2,1.5,3.2,3.3C99.3,133.4,97.4,133.4,95.5,133.5z
				 M100.5,132.8c-0.2-1.2-1.1-2.2-2.5-2.2c-1.3,0.1-2.4,1.1-2.6,2.3C97.2,132.8,98.9,132.8,100.5,132.8z"/>
			<path class="st7" d="M113,135.9c0,1,0,1.9-0.7,2.8c-0.6,0.8-1.5,1.3-2.6,1.3c-1.7,0.1-3.1-0.9-3.2-2.7c0.2,0,0.4,0,0.7,0
				c0.1,1.4,1.2,2.1,2.6,2.1c0.8,0,1.6-0.3,2.1-1c0.5-0.8,0.6-1.6,0.6-2.5c0-0.2,0-0.5,0-0.8l0,0c-0.6,0.8-1.5,1.3-2.6,1.4
				c-1.9,0.1-3.2-1.5-3.2-3.3s1.4-3.4,3.3-3.5c1.1-0.1,1.8,0.4,2.4,1.2l0,0c0-0.4,0-0.8,0-1.1c0.2,0,0.4,0,0.7,0
				C113,131.8,113,133.9,113,135.9z M107.2,133.1c0,1.5,1,2.8,2.6,2.7c1.7-0.1,2.6-1.4,2.6-3c0-1.5-1-2.7-2.6-2.6
				C108.3,130.3,107.2,131.7,107.2,133.1z"/>
			<path class="st7" d="M115.8,130.5L115.8,130.5c0.3-0.6,0.8-1,1.4-1c0.2,0,0.5,0.1,0.7,0.1c-0.1,0.2-0.2,0.4-0.4,0.6
				c-0.2-0.1-0.3-0.1-0.5-0.1c-1.4,0.1-1.4,1.8-1.4,2.8c0,1.1,0,2.2,0,3.3c-0.2,0-0.4,0-0.7,0c0-2.2,0-4.3,0-6.5c0.2,0,0.4,0,0.7,0
				C115.8,129.9,115.8,130.2,115.8,130.5z"/>
			<path class="st7" d="M124.8,135.9c-0.2,0-0.4,0-0.7,0c0-0.4,0-0.8,0-1.2l0,0c-0.5,0.8-1.5,1.4-2.5,1.4c-2,0.1-3.2-1.4-3.2-3.3
				c0-1.9,1.2-3.4,3.2-3.5c1-0.1,2,0.4,2.5,1.2l0,0c0-0.4,0-0.8,0-1.1c0.2,0,0.4,0,0.7,0C124.8,131.5,124.8,133.7,124.8,135.9z
				 M119,132.7c0,1.5,1,2.9,2.6,2.8c1.7-0.1,2.6-1.4,2.6-3c0-1.5-1-2.7-2.6-2.6C120.1,129.9,119,131.4,119,132.7z"/>
			<path class="st7" d="M127.6,130.4L127.6,130.4c0.5-0.8,1.5-1.4,2.5-1.4c2-0.1,3.2,1.5,3.2,3.4s-1.2,3.4-3.2,3.5
				c-1,0-2-0.4-2.5-1.2l0,0c0,1.7,0,3.3,0,5c-0.2,0-0.4,0-0.7,0c0-3.5,0-7,0-10.4c0.2,0,0.4,0,0.7,0
				C127.6,129.6,127.6,130,127.6,130.4z M127.6,132.7c0,1.5,1,2.7,2.6,2.6c1.5-0.1,2.6-1.4,2.6-2.9s-1-2.9-2.6-2.9
				C128.5,129.7,127.6,131.1,127.6,132.7z"/>
			<path class="st7" d="M135.5,123.8c0,2.1,0,4.2,0,6.2l0,0c0.4-0.7,1.1-1.2,2-1.2c1.7-0.1,2.1,1,2.1,2.7c0,1.3,0,2.7,0,4
				c-0.2,0-0.4,0-0.7,0c0-1.3,0-2.7,0-4c0-1.2-0.1-2.1-1.5-2.1c-1.7,0.1-1.9,1.6-1.9,2.9c0,1.1,0,2.2,0,3.3c-0.2,0-0.4,0-0.7,0
				c0-3.9,0-7.9,0-11.8C135.1,123.9,135.3,123.9,135.5,123.8z"/>
			<path class="st7" d="M143,126.7c0,0.4-0.2,0.6-0.6,0.6c-0.3,0-0.6-0.2-0.6-0.6c0-0.3,0.2-0.6,0.6-0.6S143,126.4,143,126.7z
				 M142.7,135.6c-0.2,0-0.4,0-0.7,0c0-2.2,0-4.5,0-6.7c0.2,0,0.4,0,0.7,0C142.7,131.1,142.7,133.3,142.7,135.6z"/>
			<path class="st7" d="M150.9,139.5c-0.2,0-0.4,0-0.7,0c0-1.7,0-3.4,0-5.1l0,0c-0.5,0.8-1.5,1.3-2.5,1.3c-2,0-3.2-1.5-3.2-3.4
				c0-2,1.2-3.6,3.2-3.6c1,0,2,0.5,2.5,1.4l0,0c0-0.4,0-0.8,0-1.2c0.2,0,0.4,0,0.7,0C150.9,132.4,150.9,135.9,150.9,139.5z
				 M145.1,132.4c0,1.5,1,2.7,2.6,2.7c1.5,0,2.6-1.3,2.6-2.8s-1-3-2.6-3C146.1,129.3,145.1,130.8,145.1,132.4z"/>
			<path class="st7" d="M157.7,129c0,1.4,0,2.7,0,4c0,0.7,0,1.4-0.4,1.9c-0.5,0.6-1.2,0.9-2,0.8c-0.7,0-1.5-0.3-2-1
				c-0.4-0.6-0.4-1.2-0.4-2c0-1.4,0-2.7,0-4c0.2,0,0.4,0,0.7,0c0,1.2,0,2.5,0,3.8s0.1,2.4,1.7,2.5c1.5,0.1,1.7-1.1,1.7-2.4
				c0-1.2,0-2.6,0-3.8C157.2,129,157.4,129,157.7,129z"/>
			<path class="st7" d="M159.7,132.4c-0.1,1.7,1.1,2.9,2.6,2.9c1,0.1,1.8-0.5,2.3-1.4c0.2,0.1,0.4,0.2,0.5,0.4
				c-0.6,1.1-1.7,1.7-2.9,1.7c-2-0.1-3.2-1.7-3.2-3.6c0-1.9,1.2-3.5,3.2-3.4s3.2,1.8,3.2,3.7C163.5,132.6,161.6,132.5,159.7,132.4z
				 M164.8,132c-0.2-1.2-1.1-2.4-2.5-2.4c-1.3-0.1-2.4,1-2.6,2.3C161.4,131.9,163.1,132,164.8,132z"/>
			<path class="st7" d="M63.8,152.4c-0.2,0-0.5-0.1-0.7-0.1c0-3.4,0-6.8,0-10.2c0.7,0.1,1.2,0.1,1.9,0.1c0.8,0.1,1.7,0.2,2.3,0.7
				c0.7,0.6,1,1.4,1,2.1c0,0.7-0.3,1.5-0.9,2c-0.7,0.5-1.5,0.5-2.4,0.5c-0.4,0-0.8-0.1-1.2-0.1C63.8,149.1,63.8,150.8,63.8,152.4z
				 M65.1,147c0.7,0.1,1.3,0,1.8-0.4s0.7-0.9,0.7-1.5c0-0.7-0.3-1.3-0.8-1.7s-1.2-0.5-1.8-0.5c-0.4,0-0.8-0.1-1.1-0.1
				c0,1.4,0,2.8,0,4.2C64.2,146.9,64.6,147,65.1,147z"/>
			<path class="st7" d="M75.5,153c-0.2,0-0.4,0-0.7,0c0-0.4,0-0.8,0-1.1l0,0c-0.5,0.8-1.5,1.2-2.5,1.2c-2-0.1-3.2-1.7-3.2-3.5
				s1.2-3.2,3.2-3.1c1,0.1,2,0.5,2.5,1.3l0,0c0-0.4,0-0.7,0-1.1c0.2,0,0.4,0,0.7,0C75.5,148.8,75.5,150.9,75.5,153z M69.8,149.6
				c0,1.4,1,2.8,2.6,2.9c1.7,0.1,2.6-1.2,2.6-2.7s-1-2.7-2.6-2.7C70.8,147,69.8,148.2,69.8,149.6z"/>
			<path class="st7" d="M82.7,148.3c-0.6-0.7-1.4-1.1-2.3-1.1c-1.5-0.1-2.7,1.2-2.7,2.7c0,1.4,1.1,2.8,2.7,2.8c1,0,1.8-0.4,2.4-1.1
				c0,0.3,0,0.5,0,0.8c-0.7,0.5-1.5,0.8-2.4,0.8c-2-0.1-3.3-1.5-3.3-3.5c0-1.8,1.4-3.3,3.4-3.2c0.8,0,1.6,0.3,2.3,0.8
				C82.7,147.8,82.7,148.1,82.7,148.3z"/>
			<path class="st7" d="M85.1,149.6c0.9-0.9,1.8-1.8,2.7-2.7c0.3,0,0.5,0,0.8,0c-0.9,0.9-1.8,1.8-2.7,2.7c1.2,1.2,2.4,2.4,3.7,3.7
				c-0.3,0-0.5,0-0.8,0c-1.1-1.1-2.1-2.1-3.2-3.2c-0.1,0.1-0.2,0.2-0.4,0.4c0,1,0,1.9,0,2.9c-0.2,0-0.4,0-0.7,0c0-3.8,0-7.6,0-11.4
				c0.2,0,0.4,0,0.7,0C85.1,144.5,85.1,147,85.1,149.6z"/>
			<path class="st7" d="M96.2,153.3c-0.2,0-0.4,0-0.7,0c0-0.4,0-0.8,0-1.1l0,0c-0.5,0.8-1.5,1.3-2.5,1.3c-2,0-3.2-1.5-3.2-3.4
				c0-1.8,1.2-3.3,3.2-3.3c1,0,2,0.4,2.5,1.2l0,0c0-0.4,0-0.7,0-1.1c0.2,0,0.4,0,0.7,0C96.2,149,96.2,151.2,96.2,153.3z M90.4,150.1
				c0,1.5,1,2.8,2.6,2.8c1.7,0,2.6-1.3,2.6-2.9c0-1.5-1-2.7-2.6-2.6C91.5,147.4,90.4,148.7,90.4,150.1z"/>
			<path class="st7" d="M104.2,153c0,1,0,1.9-0.7,2.7c-0.6,0.8-1.5,1.2-2.6,1.2c-1.7,0-3.1-1-3.2-2.7c0.2,0,0.4,0,0.7,0
				c0.1,1.3,1.2,2.2,2.6,2.1c0.8,0,1.6-0.3,2.1-1c0.5-0.8,0.6-1.6,0.6-2.4c0-0.2,0-0.5,0-0.8l0,0c-0.6,0.8-1.5,1.2-2.6,1.3
				c-1.9,0-3.2-1.5-3.2-3.3s1.4-3.3,3.3-3.4c1.1,0,1.8,0.4,2.4,1.2l0,0c0-0.4,0-0.8,0-1.1c0.2,0,0.4,0,0.7,0
				C104.2,148.9,104.2,150.9,104.2,153z M98.5,150c0,1.5,1,2.8,2.6,2.8c1.7,0,2.6-1.4,2.6-2.9s-1-2.7-2.6-2.6
				C99.5,147.3,98.5,148.7,98.5,150z"/>
			<path class="st7" d="M107.5,144.6c0,0.3-0.2,0.6-0.6,0.6c-0.3,0-0.6-0.2-0.6-0.5s0.2-0.6,0.6-0.6
				C107.3,144,107.5,144.3,107.5,144.6z M107.3,153.3c-0.2,0-0.4,0-0.7,0c0-2.1,0-4.3,0-6.5c0.2,0,0.4,0,0.7,0
				C107.3,148.9,107.3,151.1,107.3,153.3z"/>
			<path class="st7" d="M110.3,147.7C110.3,147.7,110.4,147.7,110.3,147.7c0.4-0.7,1.1-1.2,2-1.2c1.7-0.1,2.1,1,2.1,2.7
				c0,1.3,0,2.6,0,3.9c-0.2,0-0.4,0-0.7,0c0-1.3,0-2.6,0-3.9c0-1.2-0.1-2.1-1.5-2.1c-1.7,0.1-1.9,1.5-1.9,2.9c0,1.1,0,2.1,0,3.2
				c-0.2,0-0.4,0-0.7,0c0-2.1,0-4.3,0-6.5c0.2,0,0.4,0,0.7,0C110.3,147,110.3,147.4,110.3,147.7z"/>
			<path class="st7" d="M122.4,152.7c0,1,0,1.9-0.7,2.8c-0.6,0.8-1.5,1.3-2.6,1.3c-1.7,0-3.1-1-3.2-2.7c0.2,0,0.4,0,0.7,0
				c0.1,1.4,1.2,2.2,2.6,2.1c0.8,0,1.6-0.3,2.1-1c0.5-0.8,0.6-1.6,0.6-2.5c0-0.3,0-0.5,0-0.8l0,0c-0.6,0.8-1.5,1.3-2.6,1.3
				c-1.9,0.1-3.2-1.5-3.2-3.4s1.4-3.4,3.3-3.5c1.1,0,1.8,0.4,2.4,1.2l0,0c0-0.4,0-0.8,0-1.1c0.2,0,0.4,0,0.7,0
				C122.4,148.5,122.4,150.6,122.4,152.7z M116.7,149.8c0,1.5,1,2.9,2.6,2.8c1.7,0,2.6-1.4,2.6-3c0-1.5-1-2.7-2.6-2.7
				C117.7,147,116.7,148.4,116.7,149.8z"/>
			<path class="st7" d="M72.1,160.8C72,160.8,72,160.8,72.1,160.8c-1.2,2.9-2.5,5.8-3.7,8.6c-1.2-3-2.4-6.1-3.7-9.1l0,0
				c-0.6,2.8-1.2,5.5-1.8,8.3c-0.2,0-0.4-0.1-0.7-0.1c0.8-3.5,1.5-6.9,2.3-10.4c1.3,3.2,2.6,6.4,3.9,9.6c1.3-3,2.6-6.1,3.9-9.1
				c0.8,3.6,1.5,7.2,2.3,10.8c-0.2,0-0.4,0-0.7-0.1C73.3,166.5,72.7,163.6,72.1,160.8z"/>
			<path class="st7" d="M81.5,169.7c-0.2,0-0.4,0-0.7,0c0-0.4,0-0.8,0-1.1l0,0c-0.5,0.8-1.5,1.2-2.5,1.2c-2-0.1-3.2-1.7-3.2-3.5
				s1.2-3.2,3.2-3.1c1,0.1,2,0.5,2.5,1.3l0,0c0-0.4,0-0.7,0-1.1c0.2,0,0.4,0,0.7,0C81.5,165.5,81.5,167.6,81.5,169.7z M75.8,166.3
				c0,1.4,1,2.8,2.6,2.9c1.7,0.1,2.6-1.2,2.6-2.7s-1-2.7-2.6-2.7C76.8,163.6,75.8,164.9,75.8,166.3z"/>
			<path class="st7" d="M86.4,164.7c-0.2-0.4-0.7-0.7-1.1-0.8c-0.5,0-1.1,0.4-1.1,1c0,1.5,3.2,0.9,3.2,3.2c0,1.2-1,2-2.1,2
				c-1.1-0.1-2-0.7-2.3-1.7c0.2-0.1,0.4-0.1,0.6-0.2c0.2,0.8,0.8,1.3,1.6,1.4c0.8,0,1.5-0.6,1.5-1.4c0-0.8-0.6-1.1-1.2-1.3
				c-0.9-0.4-1.9-0.7-1.9-1.8c0-1,0.8-1.6,1.8-1.5c0.7,0,1.4,0.5,1.7,1.1C86.8,164.5,86.6,164.6,86.4,164.7z"/>
			<path class="st7" d="M94,165.1c-0.6-0.7-1.4-1.1-2.3-1.1c-1.5,0-2.7,1.2-2.7,2.7s1.1,2.8,2.7,2.8c1,0,1.8-0.4,2.4-1.1
				c0,0.3,0,0.5,0,0.8c-0.7,0.5-1.5,0.9-2.4,0.8c-2-0.1-3.3-1.5-3.3-3.4s1.4-3.3,3.4-3.3c0.8,0,1.6,0.2,2.3,0.8
				C94,164.5,94,164.8,94,165.1z"/>
			<path class="st7" d="M101.9,166.8c0,1.9-1.5,3.4-3.5,3.3c-1.9,0-3.4-1.5-3.4-3.4c0-1.8,1.5-3.3,3.4-3.3
				C100.4,163.5,101.9,164.9,101.9,166.8z M95.7,166.8c0,1.5,1.2,2.8,2.7,2.8c1.6,0,2.9-1.2,2.9-2.7c0-1.6-1.2-2.8-2.9-2.8
				C96.8,164.1,95.7,165.3,95.7,166.8z"/>
			<path class="st7" d="M104.2,170.1c-0.2,0-0.4,0-0.7,0c0-2,0-3.9,0-5.9c-0.2,0-0.5,0-0.7,0c0-0.2,0-0.4,0-0.6c0.2,0,0.5,0,0.7,0
				c0-0.8,0-1.5,0-2.3c0.2,0,0.4,0,0.7,0c0,0.8,0,1.5,0,2.3c0.4,0,0.8,0,1.1,0c0,0.2,0,0.4,0,0.6c-0.4,0-0.8,0-1.1,0
				C104.2,166.2,104.2,168.1,104.2,170.1z"/>
			<path class="st7" d="M106.4,166.9c-0.1,1.7,1.1,2.7,2.6,2.7c1,0,1.8-0.6,2.3-1.5c0.2,0.1,0.4,0.2,0.5,0.3
				c-0.6,1.1-1.7,1.8-2.9,1.8c-2,0-3.2-1.5-3.2-3.4c0-1.8,1.2-3.4,3.2-3.4s3.2,1.5,3.2,3.5C110.2,166.9,108.3,166.9,106.4,166.9z
				 M111.4,166.3c-0.2-1.2-1.1-2.3-2.5-2.3c-1.3,0-2.4,1.1-2.6,2.3C108.1,166.3,109.8,166.3,111.4,166.3z"/>
			<path class="st7" d="M68,176.8c-0.5-0.8-1.1-1.3-2.1-1.4c-1.1-0.1-2,0.7-2,1.8s1.1,1.6,1.9,2.1c0.7,0.4,1.4,0.8,2,1.2
				c0.8,0.5,1.2,1.2,1.2,2.1c0,1.7-1.6,2.9-3.3,2.7c-1.5-0.1-2.6-1.1-3.2-2.5c0.2-0.1,0.4-0.1,0.6-0.2c0.5,1.1,1.3,2,2.6,2.1
				c1.4,0.1,2.6-0.8,2.6-2.2c0-1.1-1.2-1.7-2.1-2.3c-0.7-0.4-1.3-0.8-1.9-1.1c-0.7-0.5-1.1-1.1-1.1-2c0-1.5,1.1-2.5,2.7-2.3
				c1.1,0.1,2.1,0.7,2.6,1.7C68.4,176.5,68.2,176.7,68,176.8z"/>
			<path class="st7" d="M71.9,177.2c0,0.3-0.2,0.5-0.6,0.5c-0.3,0-0.6-0.3-0.6-0.6s0.2-0.5,0.6-0.5
				C71.7,176.7,71.9,176.9,71.9,177.2z M71.6,185.6c-0.2,0-0.4-0.1-0.7-0.1c0-2.1,0-4.2,0-6.3c0.2,0,0.4,0.1,0.7,0.1
				C71.6,181.5,71.6,183.6,71.6,185.6z"/>
			<path class="st7" d="M79.9,185.9c0,1,0,1.8-0.7,2.7c-0.6,0.8-1.5,1.1-2.6,1.1c-1.7-0.1-3.1-1.2-3.2-2.9c0.2,0,0.4,0,0.7,0.1
				c0.1,1.3,1.2,2.2,2.6,2.3c0.8,0.1,1.6-0.2,2.1-0.8c0.5-0.7,0.6-1.5,0.6-2.4c0-0.2,0-0.5,0-0.8l0,0c-0.6,0.7-1.5,1.1-2.6,1.1
				c-1.9-0.1-3.2-1.8-3.2-3.5c0-1.8,1.4-3.2,3.3-3.1c1.1,0.1,1.8,0.5,2.4,1.4l0,0c0-0.4,0-0.7,0-1.1c0.2,0,0.4,0,0.7,0.1
				C79.9,181.8,79.9,183.9,79.9,185.9z M74.2,182.6c0,1.4,1,2.9,2.6,2.9c1.7,0.1,2.6-1.2,2.6-2.7s-1-2.7-2.6-2.7
				C75.2,180,74.2,181.2,74.2,182.6z"/>
			<path class="st7" d="M82.7,180.9L82.7,180.9c0.4-0.7,1.1-1.1,2-1.1c1.7,0.1,2.1,1.1,2.1,2.7c0,1.3,0,2.6,0,3.9
				c-0.2,0-0.4,0-0.7,0c0-1.3,0-2.6,0-3.9c0-1.1-0.1-2.1-1.5-2.1c-1.7-0.1-1.9,1.4-1.9,2.7c0,1.1,0,2.1,0,3.2c-0.2,0-0.4,0-0.7-0.1
				c0-2.1,0-4.2,0-6.4c0.2,0,0.4,0,0.7,0C82.7,180.3,82.7,180.6,82.7,180.9z"/>
			<path class="st7" d="M94.8,186.7c-0.2,0-0.4,0-0.7,0c0-0.4,0-0.8,0-1.1l0,0c-0.5,0.8-1.5,1.2-2.5,1.2c-2-0.1-3.2-1.6-3.2-3.5
				s1.2-3.3,3.2-3.2c1,0,2,0.5,2.5,1.3l0,0c0-0.4,0-0.7,0-1.1c0.2,0,0.4,0,0.7,0C94.8,182.4,94.8,184.6,94.8,186.7z M89,183.3
				c0,1.5,1,2.9,2.6,2.9c1.7,0.1,2.6-1.2,2.6-2.8c0-1.5-1-2.7-2.6-2.7C90.1,180.6,89,181.9,89,183.3z"/>
			<path class="st7" d="M97.6,186.8c-0.2,0-0.4,0-0.7,0c0-3.8,0-7.7,0-11.5c0.2,0,0.4,0,0.7,0C97.6,179.2,97.6,183,97.6,186.8z"/>
			<path class="st7" d="M99.8,183.7c-0.1,1.6,1.1,2.7,2.6,2.7c1,0,1.8-0.6,2.3-1.4c0.2,0.1,0.4,0.2,0.5,0.3
				c-0.6,1.1-1.7,1.7-2.9,1.7c-2,0-3.2-1.6-3.2-3.5c0-1.8,1.2-3.3,3.2-3.3s3.2,1.6,3.2,3.5C103.5,183.7,101.6,183.7,99.8,183.7z
				 M104.8,183.1c-0.2-1.2-1.1-2.3-2.5-2.3c-1.3,0-2.4,1-2.6,2.2C101.4,183.1,103.1,183.1,104.8,183.1z M103.6,177.2
				c-0.6,0.7-1.2,1.4-1.7,2c-0.2-0.1-0.4-0.2-0.5-0.2c0.5-0.7,1-1.4,1.4-2C103,177,103.3,177.1,103.6,177.2z"/>
			<path class="st7" d="M107.7,186.9c-0.2,0-0.4,0-0.7,0c0-2,0-3.9,0-5.9c-0.2,0-0.5,0-0.7,0c0-0.2,0-0.4,0-0.6c0.2,0,0.5,0,0.7,0
				c0-0.8,0-1.5,0-2.3c0.2,0,0.4,0,0.7,0c0,0.8,0,1.5,0,2.3c0.4,0,0.8,0,1.1,0c0,0.2,0,0.4,0,0.6c-0.4,0-0.8,0-1.1,0
				C107.7,183,107.7,185,107.7,186.9z"/>
			<path class="st7" d="M111.1,178.3c0,0.3-0.2,0.6-0.6,0.6c-0.3,0-0.6-0.2-0.6-0.6c0-0.3,0.2-0.6,0.6-0.6
				C110.8,177.7,111.1,178,111.1,178.3z M110.8,186.9c-0.2,0-0.4,0-0.7,0c0-2.1,0-4.3,0-6.5c0.2,0,0.4,0,0.7,0
				C110.8,182.7,110.8,184.8,110.8,186.9z"/>
			<path class="st7" d="M118.9,190.9c-0.2,0-0.4,0-0.7,0c0-1.7,0-3.3,0-4.9l0,0c-0.5,0.8-1.5,1.2-2.5,1.2c-2,0-3.2-1.5-3.2-3.3
				c0-1.9,1.2-3.5,3.2-3.5c1,0,2,0.5,2.5,1.3l0,0c0-0.4,0-0.8,0-1.2c0.2,0,0.4,0,0.7,0C118.9,184,118.9,187.4,118.9,190.9z
				 M113.2,183.9c0,1.5,1,2.7,2.6,2.7c1.5,0,2.6-1.2,2.6-2.7s-1-2.9-2.6-2.9C114.1,180.9,113.2,182.3,113.2,183.9z"/>
			<path class="st7" d="M125.7,180.5c0,1.3,0,2.6,0,3.9c0,0.7,0,1.3-0.4,1.9c-0.5,0.6-1.2,0.9-2,0.8c-0.7,0-1.5-0.3-2-0.9
				c-0.4-0.5-0.4-1.2-0.4-1.9c0-1.3,0-2.6,0-3.9c0.2,0,0.4,0,0.7,0c0,1.2,0,2.4,0,3.7s0.1,2.4,1.7,2.4c1.5,0,1.7-1.1,1.7-2.4
				c0-1.2,0-2.5,0-3.7C125.3,180.5,125.5,180.5,125.7,180.5z"/>
			<path class="st7" d="M127.8,183.9c-0.1,1.7,1.1,2.8,2.6,2.8c1,0,1.8-0.6,2.3-1.5c0.2,0.1,0.4,0.2,0.5,0.3
				c-0.6,1.1-1.7,1.8-2.9,1.7c-2,0-3.2-1.6-3.2-3.5c0-1.8,1.2-3.4,3.2-3.4s3.2,1.7,3.2,3.6C131.6,183.9,129.7,183.9,127.8,183.9z
				 M132.9,183.4c-0.2-1.2-1.1-2.3-2.5-2.3c-1.3,0-2.4,1-2.6,2.3C129.5,183.3,131.1,183.3,132.9,183.4z"/>
		</g>
	</g>
</g>
</svg>
