<?xml version="1.0" encoding="utf-8"?>
<!-- Generator: Adobe Illustrator 22.0.1, SVG Export Plug-In . SVG Version: 6.00 Build 0)  -->
<svg version="1.1" id="Calque_1" xmlns="http://www.w3.org/2000/svg" xmlns:xlink="http://www.w3.org/1999/xlink" x="0px" y="0px"
	 viewBox="0 0 186.9 42" style="enable-background:new 0 0 186.9 42;" xml:space="preserve">
<style type="text/css">
	.st0{fill:#000;}
</style>
<g id="XMLID_19_">
	<g id="XMLID_20_">
		<g id="XMLID_30_">
			<path id="XMLID_33_" class="st0" d="M139.2,1.5c-7.2,0-13.1,5.8-13.1,13.1c0,6.3,5,12.2,11.5,12.2c1.4,0,2.7-0.2,3.8-0.7l0.1,0
				l-11.8,15.8h5.4l12.9-17.3c2.3-3.1,4.3-6.5,4.3-10.4C152.4,7.1,146.1,1.5,139.2,1.5z M139.3,22.5c-4.1,0-8.4-3.6-8.4-8.3
				c0-4.5,4-8.3,8.7-8.3c4.3,0,8.1,4.1,8.1,8.3C147.7,18.5,144.3,22.5,139.3,22.5z"/>
			<polygon id="XMLID_32_" class="st0" points="155.8,5.8 163.8,5.8 163.8,41.9 168.8,41.9 168.8,0.8 159.1,0.8 			"/>
			<polygon id="XMLID_31_" class="st0" points="174,5.8 181.9,5.8 181.9,41.9 186.9,41.9 186.9,0.8 177.4,0.8 			"/>
		</g>
		<path id="XMLID_27_" class="st0" d="M109.7,12.8v4.6c-3-2.4-6-3.8-9.6-3.8C92.3,13.6,86,20,86,27.8c0,7.8,6.3,14.1,14.1,14.1
			c3.6,0,6.6-1.4,9.6-3.8v3.8h4V12.8H109.7z M109.7,27.8c0,5.3-4.3,9.6-9.6,9.6c-5.3,0-9.6-4.3-9.6-9.6c0-5.3,4.3-9.6,9.6-9.6
			C105.4,18.2,109.7,22.5,109.7,27.8z"/>
		<path id="XMLID_26_" class="st0" d="M55.6,17.8v-5h-0.7c-3.6,0-7.4,2.2-9.4,4.6v-4.6h-5v29.1h5V27.7c0-5.3,4.1-9.9,9.4-9.9H55.6z"
			/>
		<path id="XMLID_23_" class="st0" d="M78,31.9c-1.8,4-4.9,5-8.3,5c-4.5,0-8.3-3-9.4-7h23.5l0.1-0.8c0.1-0.5,0.1-0.9,0.1-1.4
			c0-7.9-6.4-14.2-14.3-14.2c-7.9,0-14.3,6.4-14.3,14.3c0,7.9,6.4,14.3,14.3,14.3c5.7,0,10.9-3.9,13.1-9.1l0.2-1H78z M69.7,17.5
			c4.5,0,8.3,3.3,9.4,7.3H60.4C61.4,20.8,65.3,17.5,69.7,17.5z"/>
		<g id="XMLID_21_">
			<path id="XMLID_22_" class="st0" d="M34.4,28.8h-0.2L34,29.7c-3,4.2-7.8,6.9-13,6.9c-8.8,0-15.9-7-15.9-15.8
				c0-8.7,7.1-15.8,15.9-15.8c5.1,0,10,2.5,13,6.8l0.3,0.4l3.2-4.3C33.5,3,27.5,0,21,0C9.4,0,0,9.4,0,21c0,11.6,9.4,21,21,21
				c6.5,0,12.6-3.5,16.6-8.5L34.4,28.8z"/>
		</g>
	</g>
</g>
</svg>
