<?xml version="1.0" encoding="utf-8"?>
<!-- Generator: Adobe Illustrator 22.0.1, SVG Export Plug-In . SVG Version: 6.00 Build 0)  -->
<svg version="1.1" id="Calque_1" xmlns="http://www.w3.org/2000/svg" xmlns:xlink="http://www.w3.org/1999/xlink" x="0px" y="0px"
	 viewBox="0 0 147.4 33.1" style="enable-background:new 0 0 147.4 33.1;" xml:space="preserve">
<style type="text/css">
	.st0{fill:#2AAAE3;}
</style>
<g id="XMLID_19_">
	<g id="XMLID_20_">
		<g id="XMLID_30_">
			<path id="XMLID_33_" class="st0" d="M109.8,1.1c-5.7,0-10.3,4.6-10.3,10.3c0,5,3.9,9.6,9.1,9.6c1.1,0,2.1-0.1,3-0.6l0.1,0
				L102.4,33h4.3l10.2-13.7c1.8-2.5,3.4-5.1,3.4-8.2C120.2,5.6,115.2,1.1,109.8,1.1z M109.8,17.8c-3.2,0-6.6-2.8-6.6-6.6
				c0-3.6,3.2-6.6,6.9-6.6c3.4,0,6.4,3.2,6.4,6.6C116.5,14.6,113.8,17.8,109.8,17.8z"/>
			<polygon id="XMLID_32_" class="st0" points="122.9,4.6 129.2,4.6 129.2,33 133.2,33 133.2,0.6 125.5,0.6 			"/>
			<polygon id="XMLID_31_" class="st0" points="137.3,4.6 143.4,4.6 143.4,33 147.4,33 147.4,0.6 139.9,0.6 			"/>
		</g>
		<path id="XMLID_27_" class="st0" d="M86.5,10.1v3.6c-2.4-1.9-4.7-3-7.6-3c-6.1,0-11.1,5-11.1,11.2C67.8,28,72.8,33,79,33
			c2.8,0,5.2-1.1,7.6-3v3h3.2V10.1H86.5z M86.6,21.9c0,4.2-3.4,7.6-7.6,7.6c-4.2,0-7.6-3.4-7.6-7.6c0-4.2,3.4-7.6,7.6-7.6
			C83.2,14.3,86.6,17.7,86.6,21.9z"/>
		<path id="XMLID_26_" class="st0" d="M43.9,14.1v-4h-0.5c-2.8,0-5.8,1.7-7.4,3.6v-3.6h-4V33h4V21.9c0-4.2,3.2-7.8,7.4-7.8H43.9z"/>
		<path id="XMLID_23_" class="st0" d="M61.5,25.1c-1.4,3.2-3.8,3.9-6.5,3.9c-3.5,0-6.6-2.3-7.4-5.5h18.5l0.1-0.6
			c0-0.4,0.1-0.7,0.1-1.1c0-6.2-5-11.2-11.2-11.2c-6.2,0-11.2,5.1-11.2,11.3c0,6.2,5,11.2,11.2,11.2c4.5,0,8.6-3.1,10.3-7.2l0.2-0.8
			H61.5z M55,13.8c3.5,0,6.6,2.6,7.4,5.8H47.6C48.4,16.4,51.5,13.8,55,13.8z"/>
		<g id="XMLID_21_">
			<path id="XMLID_22_" class="st0" d="M27.2,22.8H27l-0.2,0.7c-2.3,3.3-6.2,5.5-10.2,5.5c-6.9,0-12.5-5.5-12.5-12.4
				C4.1,9.6,9.7,4,16.6,4c4.1,0,7.9,2,10.2,5.3L27,9.7l2.5-3.4C26.4,2.3,21.7,0,16.6,0C7.4,0,0,7.4,0,16.6c0,9.1,7.4,16.6,16.6,16.6
				c5.1,0,9.9-2.7,13.1-6.7L27.2,22.8z"/>
		</g>
	</g>
</g>
</svg>
