<?xml version="1.0" encoding="utf-8"?>
<!-- Generator: Adobe Illustrator 22.0.1, SVG Export Plug-In . SVG Version: 6.00 Build 0)  -->
<svg version="1.1" id="Calque_1" xmlns="http://www.w3.org/2000/svg" xmlns:xlink="http://www.w3.org/1999/xlink" x="0px" y="0px"
	 viewBox="0 0 83.7 83.7" style="enable-background:new 0 0 83.7 83.7;" xml:space="preserve">
<style type="text/css">
	.st0{fill:#F2F2F2;}
	.st1{fill:#3C3C3B;}
</style>
<title>Plan de travail 3 copie</title>
<path class="st0" d="M12.7,67.8c6-4.2,15.1-2,20.8-9.5c0,0,2.1-2.4-2.6-8.2s-5.2-15.1-4-22.2s8-11.9,15-11.9s13.7,4.8,14.9,11.9
	s0.8,16.4-4,22.2s-2.7,8.2-2.7,8.2c5.7,7.5,14.8,5.3,20.8,9.5c0.8,0.6,1.5,1.3,2,2.1c15.5-17.1,14.1-43.6-3-59.1s-43.6-14.1-59.1,3
	c-14.4,15.9-14.4,40.1,0,56C11.3,69.1,12,68.4,12.7,67.8z"/>
<path class="st1" d="M70.9,67.8c-5.9-4.2-15.1-2-20.8-9.5c0,0-2.1-2.4,2.7-8.2s5.2-15.1,4-22.2s-8-11.9-15-11.9S28,20.8,26.9,27.9
	s-0.8,16.4,4,22.2s2.6,8.2,2.6,8.2c-5.7,7.5-14.8,5.3-20.8,9.5c-0.8,0.6-1.5,1.3-2,2.1C26.2,87,52.6,88.4,69.7,73
	c1.1-1,2.1-2,3.1-3.1C72.3,69.1,71.7,68.4,70.9,67.8z"/>
</svg>
