<?xml version="1.0" encoding="utf-8"?>
<!-- Generator: Adobe Illustrator 22.0.1, SVG Export Plug-In . SVG Version: 6.00 Build 0)  -->
<svg version="1.1" id="Calque_1" xmlns="http://www.w3.org/2000/svg" xmlns:xlink="http://www.w3.org/1999/xlink" x="0px" y="0px"
	 viewBox="0 0 21.7 19.8" style="enable-background:new 0 0 21.7 19.8;" xml:space="preserve">
<title>Plan de travail 1 copie 3</title>
<path d="M21.7,18v1.7h-3V7l-3.6-0.5v13.3H9.3V2.5L5.7,2v17.8H0V18h1V1l2.9-1l1,0.1l5.3,0.8L11,1v11.5l0.4-0.3l0.9-7.3l1.1-0.4l1,0.1
	l5.3,0.8l0.7,0.1V18H21.7z M7.2,5.4H6.8L6.4,5.3v1.3h0.4h0.4V5.4z M7.2,3.1L6.8,3H6.4v1.3l0.4,0.1l0.4,0.1C7.2,4.4,7.2,3.1,7.2,3.1z
	 M7.2,7.7H6.8H6.4V9h0.4h0.4C7.2,9,7.2,7.7,7.2,7.7z M7.2,10H6.8H6.4v1.3h0.4h0.4V10L7.2,10z M7.2,12.3H6.8H6.4v1.3h0.8
	C7.2,13.6,7.2,12.3,7.2,12.3z M8.7,5.5H8.3L7.9,5.5v1.3h0.4h0.4V5.5z M8.7,3.3H8.3L7.9,3.2v1.3h0.4l0.4,0.1V3.3z M8.7,7.8H8.3H7.9V9
	h0.4h0.4V7.8z M8.7,10.1H8.3H7.9v1.3h0.4h0.4V10.1z M8.7,12.3H8.3H7.9v1.3h0.8V12.3z M7.2,14.6H6.4v1.3h0.8V14.6z M8.7,14.6H7.9v1.3
	h0.8V14.6L8.7,14.6z M18.1,9.9h-0.4h-0.4v1.3h0.4h0.4V9.9L18.1,9.9z M16.6,9.7h-0.4h-0.4V11h0.4h0.4V9.7L16.6,9.7z M16.6,7.4h-0.4
	l-0.4-0.1v1.3h0.4h0.4V7.4L16.6,7.4z M16.6,12h-0.4h-0.4v1.3h0.4h0.4V12L16.6,12z M16.6,14.4h-0.4h-0.4v1.3h0.8V14.4L16.6,14.4z
	 M16.6,16.7h-0.8V18h0.8L16.6,16.7L16.6,16.7z M18.1,7.6h-0.4l-0.4-0.1v1.3h0.4l0.4,0.1V7.6L18.1,7.6z M18.1,12.1h-0.4h-0.4v1.3h0.4
	h0.4V12.1L18.1,12.1z M18.1,14.4h-0.4h-0.4v1.3h0.8L18.1,14.4L18.1,14.4z M17.7,16.7h-0.4V18h0.8v-1.3L17.7,16.7z"/>
</svg>
