<?xml version="1.0" encoding="utf-8"?>
<!-- Generator: Adobe Illustrator 22.0.1, SVG Export Plug-In . SVG Version: 6.00 Build 0)  -->
<svg version="1.1" id="Calque_1" xmlns="http://www.w3.org/2000/svg" xmlns:xlink="http://www.w3.org/1999/xlink" x="0px" y="0px"
	 viewBox="0 0 86.4 86.4" style="enable-background:new 0 0 86.4 86.4;" xml:space="preserve">
<style type="text/css">
	.st0{fill:none;}
	.st1{fill:#2A2929;}
	.st2{fill:#28ADE1;}
</style>
<g>
	<path class="st0" d="M70.3,9.7v2H56.1v30.4h14.2v2H56.1V53h21.8V2.3c0-0.2-0.1-0.3-0.3-0.3H56.4c-0.2,0-0.3,0.1-0.3,0.3v7.4H70.3z
		 M65.3,29.2h-7.5v-2h7.5V29.2z"/>
	<path class="st0" d="M79.5,55h-0.7h-2.2v14.2h-2V55H55.1h-1h-9.9v14.2h-2V55H11.8v14.2h-2V55H6.9C4.2,55,2,57.2,2,59.9v12
		c0,2.7,2.2,4.9,4.9,4.9h47.2h1h23.8h0.7c2.7,0,4.9-2.2,4.9-4.9v-12C84.4,57.2,82.2,55,79.5,55z M26.7,64.2h-2v-7.5h2V64.2z
		 M59.2,64.2h-2v-7.5h2V64.2z"/>
	<path class="st2" d="M56.1,84.1c0,0.2,0.1,0.3,0.3,0.3h21.2c0.2,0,0.3-0.1,0.3-0.3v-5.3H56.1V84.1z"/>
	<rect x="24.7" y="56.7" class="st1" width="2" height="7.5"/>
	<rect x="57.2" y="56.7" class="st1" width="2" height="7.5"/>
	<path class="st1" d="M79.9,53.1V2.3c0-1.3-1-2.3-2.3-2.3H56.4c-1.3,0-2.3,1-2.3,2.3V53H6.9C3.1,53,0,56.1,0,59.9v12
		c0,3.8,3.1,6.9,6.9,6.9h47.2v5.3c0,1.3,1,2.3,2.3,2.3h21.2c1.3,0,2.3-1,2.3-2.3v-5.3c3.6-0.2,6.5-3.2,6.5-6.9v-12
		C86.4,56.2,83.5,53.2,79.9,53.1z M56.4,2h21.2c0.2,0,0.3,0.1,0.3,0.3V53H56.1v-8.9h14.2v-2H56.1V11.7h14.2v-2H56.1V2.3
		C56.1,2.1,56.2,2,56.4,2z M77.9,84.1c0,0.2-0.1,0.3-0.3,0.3H56.4c-0.2,0-0.3-0.1-0.3-0.3v-5.3h21.8V84.1z M84.4,71.9
		c0,2.7-2.2,4.9-4.9,4.9h-0.7H55.1h-1H6.9c-2.7,0-4.9-2.2-4.9-4.9v-12C2,57.2,4.2,55,6.9,55h2.9v14.2h2V55h30.4v14.2h2V55h9.9h1
		h19.6v14.2h2V55h2.2h0.7c2.7,0,4.9,2.2,4.9,4.9V71.9z"/>
	<rect x="57.8" y="27.2" class="st1" width="7.5" height="2"/>
</g>
</svg>
