<?xml version="1.0" encoding="utf-8"?>
<!-- Generator: Adobe Illustrator 22.0.1, SVG Export Plug-In . SVG Version: 6.00 Build 0)  -->
<svg version="1.1" id="Calque_1" xmlns="http://www.w3.org/2000/svg" xmlns:xlink="http://www.w3.org/1999/xlink" x="0px" y="0px"
	 viewBox="0 0 26.1 26.6" style="enable-background:new 0 0 26.1 26.6;" xml:space="preserve">
<style type="text/css">
	.st0{fill:#818D93;}
</style>
<title>Plan de travail 1</title>
<path class="st0" d="M19.6,26.6h-13c-2.2,0-3.9-1.7-3.9-3.9V4.6h2v18.1c0,1,0.9,1.9,1.9,1.9l0,0h13c1,0,1.9-0.9,1.9-1.9V4.6h2v18.1
	C23.5,24.8,21.8,26.6,19.6,26.6z"/>
<rect y="3.6" class="st0" width="26.1" height="2"/>
<path class="st0" d="M17.4,5.6H8.7c-0.6,0-1-0.4-1-1V3c0-1.7,1.3-3,3-3h4.7c1.7,0,3,1.3,3,3v1.6C18.4,5.1,18,5.6,17.4,5.6z M9.7,3.6
	h6.7V3c0-0.6-0.4-1-1-1h-4.7c-0.6,0-1,0.4-1,1V3.6z"/>
<rect x="12.1" y="8.2" class="st0" width="2" height="13.8"/>
<rect x="16.4" y="8.2" class="st0" width="2" height="13.8"/>
<rect x="7.7" y="8.2" class="st0" width="2" height="13.8"/>
</svg>
