<?xml version="1.0" encoding="utf-8"?>
<!-- Generator: Adobe Illustrator 22.0.1, SVG Export Plug-In . SVG Version: 6.00 Build 0)  -->
<svg version="1.1" id="Calque_1" xmlns="http://www.w3.org/2000/svg" xmlns:xlink="http://www.w3.org/1999/xlink" x="0px" y="0px"
	 viewBox="0 0 31.5 26.6" style="enable-background:new 0 0 31.5 26.6;" xml:space="preserve">
<style type="text/css">
	.st0{fill:#223344;}
</style>
<title>Plan de travail 3</title>
<path class="st0" d="M19.3,15.8L29.6,5.5c1.1-1,1.1-2.6,0.2-3.6s-2.6-1.1-3.6-0.2C26,1.8,26,1.8,25.9,1.9L15.7,12.2L19.3,15.8z"/>
<polygon class="st0" points="14.2,16.8 4.3,16.8 4.3,17.9 15.3,17.9 15.3,17.1 18.4,16.7 14.8,13.1 "/>
<polygon class="st0" points="29.2,8.8 29.2,24.3 2.3,24.3 2.3,2.3 22.6,2.3 22.6,0 0,0 0,26.6 31.5,26.6 31.5,8.8 "/>
</svg>
