<?xml version="1.0" encoding="utf-8"?>
<!-- Generator: Adobe Illustrator 22.0.1, SVG Export Plug-In . SVG Version: 6.00 Build 0)  -->
<svg version="1.1" id="Calque_1" xmlns="http://www.w3.org/2000/svg" xmlns:xlink="http://www.w3.org/1999/xlink" x="0px" y="0px"
	 viewBox="0 0 63.4 64.9" style="enable-background:new 0 0 63.4 64.9;" xml:space="preserve">
<title>Plan de travail 4</title>
<path d="M28.3,36c-0.2,0-0.5-0.1-0.6-0.3c-0.2-0.2-0.3-0.5-0.2-0.8l2.4-9.7c0-0.2,0.1-0.3,0.2-0.4l23-23c2.4-2.4,6.2-2.4,8.5,0
	c2.4,2.4,2.4,6.2,0,8.5l-23,23c-0.1,0.1-0.3,0.2-0.4,0.2L28.5,36C28.4,36,28.3,36,28.3,36z M31.5,25.9l-2,8l8-2L60.4,9
	c1.5-1.8,1.3-4.5-0.5-6c-1.6-1.3-3.9-1.3-5.5,0L31.5,25.9z"/>
<rect x="54.1" y="3.3" transform="matrix(0.7071 -0.7071 0.7071 0.7071 10.1289 41.3346)" width="1.8" height="10.3"/>
<rect x="9.3" y="19.9" width="22.9" height="1.8"/>
<rect x="9.3" y="27.1" width="15.7" height="1.8"/>
<rect x="9.3" y="34.2" width="19" height="1.8"/>
<path d="M54.4,64.9H2.1c-1.2,0-2.1-1-2.1-2.1V9.8c0-1.2,1-2.1,2.1-2.1h30.1v1.8H2.1c-0.2,0-0.3,0.2-0.3,0.3v53
	c0,0.2,0.2,0.3,0.3,0.3h52.3c0.2,0,0.4-0.2,0.4-0.3V30.8h1.8v31.9C56.5,63.9,55.6,64.9,54.4,64.9z"/>
</svg>
