<?xml version="1.0" encoding="utf-8"?>
<!-- Generator: Adobe Illustrator 22.1.0, SVG Export Plug-In . SVG Version: 6.00 Build 0)  -->
<svg version="1.1" id="Calque_1" xmlns="http://www.w3.org/2000/svg" xmlns:xlink="http://www.w3.org/1999/xlink" x="0px" y="0px"
	 viewBox="0 0 156.7 122.2" style="enable-background:new 0 0 156.7 122.2;" xml:space="preserve">
<style type="text/css">
	.st0{fill:#2DABE3;}
</style>
<g>
	<g>
		<path class="st0" d="M132.8,70.2c-13.2,0-24,10.8-24,24c0,13.2,10.8,24,24,24s24-10.8,24-24C156.7,80.9,146,70.2,132.8,70.2z
			 M130.7,108l-15.9-15.9l3.8-3.8l12.1,12.1l16.2-16.2l3.8,3.8L130.7,108z"/>
	</g>
	<path d="M102,84.1l0-5l3,1.2l0,0l0,0c0.2,0.1,0.4,0.1,0.6,0.2c1.6-3.2,3.8-6.1,6.4-8.5l-4.9,2.8l0,0l-5-2l0-5l3,1.2l0,0l0,0
		c0.2,0.1,0.5,0.2,0.8,0.2c0.3,0.1,0.5,0.1,0.8,0.1c1.3,0.1,2.6-0.2,3.6-0.9l25.6-14.8l4.8,1.8L124,65c2.8-0.8,5.7-1.3,8.7-1.3
		c5.1,0,9.9,1.3,14.1,3.5c0.1-1.1-0.1-2.2-0.7-3.2l0,0l0,0l0,0c-0.1-0.2-0.2-0.3-0.3-0.5l0,0c-0.1-0.1-0.2-0.3-0.3-0.4
		c-0.6-0.7-1.4-1.2-2.2-1.5l-0.9-0.3l1.7-1l0,0l0,0l0,0c0.4-0.2,0.7-0.5,1-0.7c0.3-0.3,0.6-0.6,0.8-0.9c1.2-1.7,1.3-4,0.2-5.9l0,0
		l0,0l0,0c-0.1-0.2-0.2-0.3-0.3-0.5l0,0c-0.1-0.1-0.2-0.3-0.3-0.4c-0.6-0.7-1.4-1.2-2.2-1.5l-0.9-0.3l1.7-1l0,0l0,0l0,0
		c0.4-0.2,0.7-0.5,1-0.7c0.3-0.3,0.6-0.6,0.8-0.9c1.2-1.7,1.3-4,0.2-5.9l0,0l0,0l0,0c-0.1-0.2-0.2-0.3-0.3-0.5l0,0
		c-0.1-0.1-0.2-0.3-0.3-0.4c-0.6-0.7-1.4-1.2-2.2-1.5l-0.2-0.1l1-0.6l0,0l0,0l0,0c0.4-0.2,0.7-0.5,1-0.7c0.3-0.3,0.6-0.6,0.8-0.9
		c1.2-1.7,1.3-4,0.2-5.9l0,0l0,0l0,0c-0.1-0.2-0.2-0.3-0.3-0.5l0,0c-0.1-0.1-0.2-0.3-0.3-0.4c-0.6-0.7-1.4-1.2-2.2-1.5L68.3,0.4l0,0
		l0,0c-0.2-0.1-0.4-0.1-0.7-0.2l0,0c-0.2,0-0.4-0.1-0.7-0.1c-1.1-0.1-2.3,0.1-3.2,0.6v0L31,18.6l0,0l0,0l0,0
		c-1.3,0.7-2.2,1.9-2.6,3.3c-0.4,1.4-0.3,2.9,0.4,4.2l0,0l0,0l0,0c0.1,0.2,0.2,0.3,0.3,0.5c0.1,0.2,0.2,0.3,0.3,0.4
		c0.6,0.7,1.3,1.2,2.2,1.6l0,0l0.4,0.1L31,29.2l0,0l0,0l0,0c-1.3,0.7-2.2,1.9-2.6,3.3c-0.4,1.4-0.3,2.9,0.4,4.2l0,0l0,0l0,0
		c0.1,0.2,0.2,0.3,0.3,0.5c0.1,0.2,0.2,0.3,0.3,0.4c0.6,0.7,1.3,1.2,2.2,1.6l0,0l1,0.4L31,40.6l0,0l0,0l0,0
		c-1.3,0.7-2.2,1.9-2.6,3.3c-0.1,0.3-0.2,0.7-0.2,1c-6.9-0.1-13.8,0.9-19.2,3C3.4,50,0,53.2,0,57l0,27.1c0,3.8,3.4,7,8.8,9.1
		c9.4,3.7,23.5,4,33.7,1l0,14.6c0,4.2,3.7,7.7,9.7,10c11.3,4.4,28.8,4.4,40.1,0c6-2.3,9.7-5.8,9.7-10l0-18.5l0.5,0.2
		c0.2-2,0.7-3.9,1.3-5.8L102,84.1z M107.1,63.5L107.1,63.5l-5.1-2l0-4.3l3,1.2l0,0l0,0c0.2,0.1,0.5,0.2,0.8,0.2
		c0.3,0.1,0.5,0.1,0.8,0.1c1.3,0.1,2.6-0.2,3.6-0.9l26.3-15.2l4.1,1.5L107.1,63.5z M140.6,33.5l-33.5,19.3l0,0l-5-2l0-1.8
		c0-4.2-3.7-7.7-9.7-10c-0.6-0.2-1.2-0.4-1.9-0.7l24.9-14.2L140.6,33.5z M109.2,21.8L83.4,36.6c-6.2-1.1-13.1-1.2-19.5-0.4v-0.1
		L97,17.3L109.2,21.8z M66.6,5.8L66.6,5.8L66.6,5.8L66.6,5.8z M66.3,5.8L66.3,5.8L66.3,5.8L66.3,5.8L66.3,5.8L66.3,5.8L66.3,5.8
		L66.3,5.8L66.3,5.8L66.3,5.8L66.3,5.8z M66.4,5.9L90.8,15l-32,18.3l-24.5-9.9L66.4,5.9z M38.9,31.6L55,38.1
		c-0.9,0.3-1.9,0.6-2.7,0.9c-1,0.4-1.8,0.8-2.7,1.2l-15.2-6.2L38.9,31.6z M39.6,42.5l4.7,1.9c-0.6,0.8-1.1,1.7-1.4,2.6
		c-2.6-0.8-5.4-1.3-8.4-1.7L39.6,42.5z M10.7,52.6c8.8-3.4,22.7-3.6,31.9-0.4l0,9.6c-9.2,3.2-23.1,3-31.9-0.4
		c-1.6-0.6-5.5-2.1-5.6-4.4C5.1,55.6,7.2,54,10.7,52.6z M42.6,89c-9.2,3.2-23.1,3-31.9-0.4c-3.4-1.3-5.6-2.9-5.6-4.4
		c0-1,0-3.8,0-6.4c1.1,0.7,2.3,1.3,3.7,1.8c9.4,3.7,23.5,4,33.7,1L42.6,89z M42.6,75.3c-9.2,3.2-23.1,3-31.9-0.4
		c-3.4-1.3-5.6-2.9-5.6-4.4c0.1-2,0-4.1,0-6.1c1.1,0.7,2.3,1.3,3.7,1.8c9.4,3.7,23.5,4,33.7,1L42.6,75.3z M96.4,108.9
		c0,1.6-2.3,3.3-6.1,4.8c-10,3.9-26.1,3.9-36.1,0c-3.8-1.5-6.1-3.2-6.1-4.8c0-1.1,0-4.2,0-7.1c1.2,0.7,2.6,1.4,4.1,2
		c11.3,4.4,28.8,4.4,40.1,0c1.5-0.6,2.9-1.3,4.1-2C96.4,104.7,96.4,107.8,96.4,108.9z M96.4,93.8c0,1.6-2.3,3.3-6.1,4.8
		c-10,3.9-26.1,3.9-36.1,0c-3.8-1.5-6.1-3.2-6.1-4.8c0-1.1,0-4.2,0-7.1c1.2,0.7,2.6,1.4,4.1,2c11.3,4.4,28.8,4.4,40.1,0
		c1.5-0.6,2.9-1.3,4.1-2C96.4,89.6,96.4,92.7,96.4,93.8z M96.4,78.7c0,1.6-2.3,3.3-6.1,4.8c-10,3.9-26.1,3.9-36.1,0
		c-3.8-1.5-6.1-3.2-6.1-4.8c0-1.1,0-4.1,0-7c1.2,0.7,2.6,1.4,4.1,2c11.3,4.4,28.8,4.4,40.1,0c1.5-0.6,2.9-1.3,4.1-2
		C96.4,74.6,96.4,77.6,96.4,78.7z M48.1,57.1c1.2,0.7,2.6,1.4,4.1,2c11.3,4.4,28.8,4.4,40.1,0c1.5-0.6,2.9-1.3,4.1-2
		c0,2.2,0,4.5,0,6.7c0,1.6-2.3,3.3-6.1,4.8c-10,3.9-26.1,3.9-36.1,0c-3.8-1.5-6.1-3.2-6.1-4.8C48.2,61.5,48.1,59.3,48.1,57.1z
		 M90.3,53.9c-10,3.9-26.1,3.9-36.1,0c-1.7-0.7-6-2.3-6.1-4.8c0-1.6,2.3-3.4,6.1-4.8c10-3.9,26.1-3.9,36.1,0
		c3.8,1.5,6.1,3.2,6.1,4.8C96.5,51.4,91.9,53.2,90.3,53.9z"/>
</g>
</svg>
