<?xml version="1.0" encoding="utf-8"?>
<!-- Generator: Adobe Illustrator 22.1.0, SVG Export Plug-In . SVG Version: 6.00 Build 0)  -->
<svg version="1.1" id="Calque_1" xmlns="http://www.w3.org/2000/svg" xmlns:xlink="http://www.w3.org/1999/xlink" x="0px" y="0px"
	 viewBox="0 0 265.4 265.4" style="enable-background:new 0 0 265.4 265.4;" xml:space="preserve">
<style type="text/css">
	.st0{fill:#2DABE3;}
	.st1{fill:#FFFFFF;}
</style>
<g>
	<circle class="st0" cx="132.7" cy="132.7" r="132.7"/>
	<g>
		<path class="st1" d="M191.8,147.9l-11.4-46c-1.8,0.2-4.1,0.6-6.1,1l0,0l0,0h0l-0.2,0l0,0l-0.1,0l-0.1,0l-0.1,0
			c-0.4,0.1-0.7,0.1-1.1,0.2l-0.1,0h0l-0.2,0l0,0l-0.2,0l0,0c-0.1,0-0.2,0-0.3,0l0,0l0,0l-0.1,0l0,0l0,0l-0.1,0l0,0l-0.1,0l0,0
			l-0.1,0l-0.1,0c-2,0.2-5.9,0.2-9.4-0.2c-1.2-0.1-2.3-0.3-3.3-0.5c-2.1-0.5-5.4-1.8-8.5-3c-3.9-1.5-6.9-2.2-11.1-2.3
			c-2.1,0-4.2,0-6.1,0.4c-0.1,0-0.2,0-0.3,0.1l0,0l0,0l0,0l-0.1,0l-0.1,0l-0.1,0h0l-0.1,0l0,0l-0.1,0l0,0l0,0l-0.1,0h0
			c-0.2,0.1-0.4,0.1-0.6,0.2l-0.1,0l-0.1,0c-0.1,0-0.2,0.1-0.3,0.1l0,0c-0.3,0.1-0.6,0.2-0.9,0.3l0,0l-0.1,0l-0.1,0h0l-0.1,0h0
			l-0.1,0.1l0,0l-0.1,0c-1.1,0.4-2.2,1-3.2,1.6l0,0c-0.5,0.3-0.9,0.6-1.4,0.9l-1.6-0.5c0,0-3-1-2.9-1c0,0-2.7-0.7-3.4-0.9
			c-1.9-0.4-4-0.6-6.3-0.6l-0.7,0c-3.9,0-6.9,0.5-10.3,1.8c-0.8,0.3-1.7,0.7-2.6,1c-2.7,1-5.4,2.1-7.1,2.5c-2.1,0.5-5.2,0.7-8.6,0.7
			c-1.3,0-2.5,0-3.4-0.1l-0.9-0.1c-1.6-0.1-4.1-0.3-6.3-0.5l-2.1-0.2l-12.4,50.1l9.8,4.4l4.9,2.3c0,0,0-0.1,0-0.1l3.1,2
			c0,0.4-0.1,0.8-0.1,1.1c-0.1,3.8,2,7.4,7.3,5.7c2.3-0.7,4.7-5.4,6.2-8.7c1.8-3.8,2.3-8.3-2.9-10.4c-1.6-0.7-3.8,0-5.2,1.2
			c-1.3,1.1-2.8,3.4-3.9,6c-1-0.4-2.3-0.8-3.5-1.2c0-0.1,0.1-0.2,0.1-0.3c-0.7-0.4-1.3-0.8-1.9-1.3c0,0,0,0.1-0.1,0.1l-8.1-3.7
			l10.4-42.1c1.6,0.1,3.1,0.3,4.2,0.3l0.9,0.1c1,0.1,2.4,0.1,3.8,0.1c2.2,0,6.4-0.1,9.6-0.8c2-0.5,5-1.6,7.8-2.7
			c0.9-0.3,1.7-0.7,2.6-1c2.6-1,4.8-1.4,7.6-1.5c0.3,0,0.6,0,0.9,0c0,0,4.4,0.5,5.9,0.7c0,0,0,0,0.1-0.1c0.4,0.1,0.8,0.2,1.1,0.3
			c0.5,0.1,0.9,0.2,1,0.3c0.2,0,0.9,0.3,1.8,0.6c-2.2,1.7-4,3.4-4.7,4.6c-2,3.5-4,8.8-4.4,9.9c-0.4,1.1-3.3,7.9-3.3,7.9
			s-1.3,2.8-1.3,3.9c0,0.5,1.3,1.2,2.8,1.8c3.3,1.4,5.5,0.6,8.7-0.6c2.1-0.8,3.6-1.9,4.6-2.7c2.2-1.7,5.5-7.5,6.6-9.3
			c1.7-2.6,2.3-3.7,5.4-3.9c2.6-0.1,5,0.9,7,2.4c0.2,0.1,0.3,0.3,0.5,0.4c1.6,1.3,3.2,2.7,4.7,4.3c7.3,7.9,13.5,14.8,18.8,19.9
			c0.8,1,1.6,2,2.4,3l0,0c0.1,0.1,0.2,0.3,0.3,0.4c1.4,1.8,3.9,4.6,5.5,7.5c0.1,0.1,0.1,0.2,0.2,0.2c0,0.1,0.1,0.1,0.1,0.2
			c0,0.1,0.1,0.1,0.2,0.2c0.3,0.3,0.5,0.7,0.6,1c0.3,0.4,0.6,0.8,0.7,1.2c0.2,0.3,0.4,0.6,0.5,1c1.2,1.8,1.1,4.3-0.1,6
			c-0.2,0.3-0.4,0.6-0.6,0.8c-0.1,0.1-0.2,0.2-0.3,0.3c-0.1,0.1-0.1,0.1-0.2,0.2c-0.1,0.1-0.2,0.2-0.4,0.2c-0.7,0.4-1.5,0.7-2.5,0.7
			c-0.6,0-1.1-0.1-1.6-0.3c-0.1,0-0.1,0-0.2-0.1c-0.1,0-0.2-0.1-0.3-0.1c-0.2-0.1-0.3-0.1-0.5-0.2c-0.2-0.1-0.4-0.2-0.6-0.3
			c-0.6-0.2-1.1-0.6-1.5-1c-0.4-0.2-0.7-0.5-1-0.8c-0.1,0-0.1-0.1-0.2-0.1c-0.2-0.2-0.4-0.4-0.6-0.6c-0.3-0.2-0.5-0.5-0.7-0.8
			c-0.1-0.1-0.3-0.2-0.4-0.4l-18-18.5c-0.9-1-2.5-1.1-3.5-0.2c-1,0.9-1.1,2.5-0.2,3.5l18.4,18.9c0,0,0,0,0,0c0.4,0.5,0.7,1,0.8,1.6
			c0.2,0.5,0.3,1,0.3,1.6c0.1,1.1-0.1,2.3-0.7,3.2c-0.3,0.6-0.7,0.9-1,1.1c-1.1,0.7-1.9,0.8-2.3,0.7c-0.3,0-0.5-0.1-0.8-0.1
			c-0.3,0-0.6-0.1-0.9-0.2c-0.5-0.1-0.9-0.2-1.3-0.5c-0.5-0.2-1-0.5-1.3-0.9c0,0-0.1,0-0.1-0.1l-20-19.8c-1-1-2.5-1-3.5,0
			c-1,1-1,2.5,0,3.5l19.1,18.9c0,0,0,0.1,0,0.1c0.4,0.5,0.6,1.2,0.6,1.9c0.1,0.4,0.1,0.8,0,1.2c0,0.2,0,0.4-0.1,0.6
			c-0.1,0.4-0.3,0.8-0.5,1.2c-0.5,0.8-2.3,1.2-3.8,0.8c-0.2-0.1-0.6-0.2-1-0.4c-0.1,0-0.2-0.1-0.3-0.1c-0.2-0.1-0.3-0.2-0.5-0.3
			c-0.1-0.1-0.2-0.2-0.2-0.2c0,0-0.1-0.1-0.1-0.1c-0.2-0.1-0.4-0.3-0.5-0.5l-19.5-16.5c-1-0.9-2.6-0.8-3.5,0.3
			c-0.9,1-0.8,2.6,0.3,3.5l16.8,14.2c0,0,0.9,0.9,1.2,1.2c0.2,0.3,0.5,1.2,0.6,1.4c0,0.1,0,0.2,0.1,0.3l0,0.2c0.2,1,0.2,1.6-0.1,2.3
			c-0.1,0.2-0.2,0.4-0.3,0.6c-0.1,0.2-0.7,0.5-1.1,0.6c-0.4,0-0.6,0.3-0.9,0.2c-0.5-0.1-1.4-0.1-2-0.3c-1-0.3-2-0.7-2.5-0.8
			c-0.6-0.1-2.2-0.9-2.9-1.3c-1.6-0.9-4.2-2.3-4.2-2.3c0-0.1,0.1-0.2,0.1-0.2c0.9-2.2,1-4.5-1.4-6.8c-1.3-1.2-3.6-1.4-5.5-0.8
			c-3,1-8,5.1-9.8,9.1c-1.6,3.5-0.9,7.9,4.7,8.4c2.4,0.2,5.6-2.2,8.3-4.6c0.5-0.4,0.9-0.9,1.3-1.4c0.1-0.1,7.2,3.9,7.2,3.9
			c2.5,1.3,4.7,2,6.5,2.1c0.9,0,1.8-0.1,2.6-0.3c2.1-0.7,3.7-2.3,4.4-4.5c0.3-0.8,0.4-1.6,0.4-2.3c0.2,0.1,0.3,0.1,0.5,0.1
			c0.7,0.2,1.4,0.3,2.1,0.3c3.1,0.1,5.7-1.1,7-3.3c0.5-0.8,0.8-1.7,1.1-2.6c0.1-0.4,0.2-1,0.2-1.7c1,0.4,2,0.6,3.1,0.7
			c1.8,0.1,3.4-0.4,5.1-1.5c1.6-1.1,4-3.4,3.4-8c0.1,0.1,0.2,0.1,0.3,0.2c0.8,0.4,1.2,0.7,1.5,0.8c1.5,0.8,3.4,1.1,5,0.9
			c2.5-0.4,5.1-1.9,6.6-4.1c1.8-2.6,2.3-6,1-9l-0.1-0.3l-1.8-4.1c1.7-0.9,2.7-1.6,4-2.1C185.8,150.5,188.8,149.2,191.8,147.9z"/>
		<path class="st1" d="M99,170.3c1.8-2.4,3.4-5.8,2.5-8.7c-0.4-1.4-1.6-2.8-3.2-3.8c-1.5-1-3.9-0.8-5.7,0.1c-1.5,0.8-4.1,3-6,5.7
			c-1.7,2.4-2.8,5.1-3.3,7.2c-0.9,3.9,0.4,8.3,6.2,7.7C92,178.2,96.8,173.4,99,170.3z"/>
		<path class="st1" d="M110.1,180.8c1.4-1.7,2.4-3.2,3.1-4.4c1.3-2.3,2.1-5.1,0.4-7.9c-2.1-3.5-5.1-4-8.2-2.4
			c-2.8,1.5-4.9,4-6.4,5.7c-3.4,3.9-6.8,9.5-1.9,13.6C101.8,189.3,107,184.5,110.1,180.8z"/>
		<polygon class="st1" points="208.2,94.7 184.9,98.8 199.1,156 221.2,147.6 		"/>
		<polygon class="st1" points="41,96.7 27.9,149.5 50.2,158 64.3,100.8 		"/>
	</g>
</g>
</svg>
