<?xml version="1.0" encoding="utf-8"?>
<!-- Generator: Adobe Illustrator 22.0.1, SVG Export Plug-In . SVG Version: 6.00 Build 0)  -->
<svg version="1.1" id="Calque_1" xmlns="http://www.w3.org/2000/svg" xmlns:xlink="http://www.w3.org/1999/xlink" x="0px" y="0px"
	 viewBox="0 0 77.6 77.3" style="enable-background:new 0 0 77.6 77.3;" xml:space="preserve">
<style type="text/css">
	.st0{fill:none;}
	.st1{fill:#2A2929;}
	.st2{fill:#28ADE1;}
</style>
<g>
	<path class="st0" d="M35.5,33c-1.1-1.1-2.2-2.1-3.3-3l-3,3c0.9,1,1.9,2.1,3,3.3L35.5,33z"/>
	<polygon class="st0" points="18,17 16.3,18.7 27.5,31.7 31,28.2 	"/>
	<polygon class="st0" points="63,9.5 68.1,14.5 72.9,4.6 	"/>
	<rect x="13.5" y="30.1" transform="matrix(0.7071 -0.7071 0.7071 0.7071 -10.154 39.004)" class="st0" width="57" height="3.3"/>
	<rect x="17.3" y="33.9" transform="matrix(0.7071 -0.7071 0.7071 0.7071 -11.7315 42.8126)" class="st0" width="57" height="3.3"/>
	<path class="st0" d="M41.3,45.4c14,13.9,27.4,25.6,32.3,28.9C70.3,69.4,58.6,55.9,44.7,42L41.3,45.4z"/>
	<path class="st0" d="M3.1,68.4c-0.2,0.2-0.4,0.6-0.4,0.9c0,0.3,0.1,0.7,0.4,0.9l4.3,4.3c0.5,0.5,1.3,0.5,1.8,0l4.7-4.7l-6.1-6.1
		L3.1,68.4z"/>
	<path class="st1" d="M60.4,8.4l-0.2-0.2l-0.6,0.6l-0.2,0.1L59.5,9L37,31.5c-1.1-1.1-2.2-2.1-3.3-3l0.4-0.4L18.9,15
		c-0.3-2.5-1.8-5.3-4.2-7.7C9.8,2.4,1.8,1,1.5,0.9L0,0.7l0.2,1.5c0.1,0.3,1.4,8.4,6.3,13.2c2.4,2.4,5.2,3.9,7.7,4.2l13.1,15.2
		l0.4-0.4c0.9,1,2,2.1,3,3.3L19.2,49.2l-1-1L5.3,61.1l1,1l-4.7,4.7c-0.6,0.6-1,1.5-1,2.4c0,0.9,0.4,1.8,1,2.4L5.9,76
		c0.6,0.6,1.5,1,2.4,1c0.9,0,1.8-0.4,2.4-1l4.7-4.7l1,1l12.9-12.9l-1-1l11.5-11.5c7.4,7.4,15.8,15.2,22.5,21
		c3.6,3.1,6.5,5.5,8.7,7.1c2.2,1.6,3.5,2.4,4.4,2.4c0.4,0,0.7-0.1,0.9-0.4c0.9-0.9,0.4-2.2-2-5.4c-1.6-2.2-4-5.1-7.1-8.7
		c-5.8-6.7-13.6-15-21-22.5l22.4-22.4l0.1,0.1l0.1-0.2l0.6-0.6l-0.2-0.2L77.6,0L60.4,8.4z M8,13.9c-3.2-3.2-4.7-8-5.4-10.5
		C5.2,4,10,5.5,13.2,8.7c2.4,2.4,3.4,4.9,3.6,6.5l-2.2,2.2C12.9,17.3,10.5,16.3,8,13.9z M27.5,31.7l-11.1-13L18,17l13,11.1
		L27.5,31.7z M29.3,32.9l3-3c1,0.9,2.1,1.9,3.3,3l-3.2,3.2C31.2,35,30.2,33.9,29.3,32.9z M61,10.5l2.3,2.3L23,53.1l-2.3-2.3L61,10.5
		z M9.2,74.5c-0.5,0.5-1.3,0.5-1.8,0l-4.3-4.3c-0.2-0.2-0.4-0.6-0.4-0.9c0-0.3,0.1-0.7,0.4-0.9l4.7-4.7l6.1,6.1L9.2,74.5z
		 M16.4,69.3l-8.2-8.2l9.9-9.9l8.2,8.2L16.4,69.3z M73.6,74.3C68.7,71,55.3,59.2,41.3,45.4l3.4-3.4C58.6,55.9,70.3,69.4,73.6,74.3z
		 M26.8,56.9l-2.3-2.3l40.3-40.3l2.3,2.3L26.8,56.9z M68.1,14.5l-5-5l9.9-4.9L68.1,14.5z"/>
	<path class="st2" d="M13.2,8.7C10,5.5,5.2,4,2.7,3.3C3.3,5.8,4.9,10.7,8,13.9c2.4,2.4,4.9,3.4,6.5,3.6l2.2-2.2
		C16.6,13.6,15.6,11.1,13.2,8.7z"/>
</g>
</svg>
