<?xml version="1.0" encoding="utf-8"?>
<!-- Generator: Adobe Illustrator 22.0.1, SVG Export Plug-In . SVG Version: 6.00 Build 0)  -->
<svg version="1.1" id="Calque_1" xmlns="http://www.w3.org/2000/svg" xmlns:xlink="http://www.w3.org/1999/xlink" x="0px" y="0px"
	 viewBox="0 0 52.7 73.8" style="enable-background:new 0 0 52.7 73.8;" xml:space="preserve">
<title>Plan de travail 7</title>
<path d="M26.3,73.8c-5.2,0-9.4-4.2-9.4-9.4l0,0V50.9C3.3,45.7-3.5,30.5,1.8,16.9s20.4-20.3,34-15.1s20.3,20.4,15.1,34
	c-2.7,7-8.2,12.5-15.1,15.1v13.4C35.8,69.5,31.5,73.8,26.3,73.8z M26.3,2C12.9,2,2,12.9,2,26.4c0,10.3,6.5,19.5,16.2,22.9
	c0.4,0.1,0.7,0.5,0.7,0.9v14.1c0,4.1,3.3,7.4,7.4,7.4c4.1,0,7.4-3.3,7.4-7.4V50.2c0-0.4,0.3-0.8,0.7-0.9
	c12.7-4.5,19.3-18.4,14.8-31.1C45.8,8.5,36.6,2,26.3,2z"/>
<rect x="25.3" y="39" width="2" height="14.8"/>
<rect x="17.9" y="54.9" width="14.8" height="2"/>
<rect x="17.9" y="63.3" width="14.8" height="2"/>
<rect x="22.2" y="31.4" transform="matrix(0.7071 -0.7071 0.7071 0.7071 -18.5567 26.872)" width="2" height="8.9"/>
<rect x="25" y="34.8" transform="matrix(0.7071 -0.7071 0.7071 0.7071 -16.7017 31.3442)" width="8.9" height="2"/>
</svg>
