<?xml version="1.0" encoding="utf-8"?>
<!-- Generator: Adobe Illustrator 22.0.1, SVG Export Plug-In . SVG Version: 6.00 Build 0)  -->
<svg version="1.1" id="Calque_1" xmlns="http://www.w3.org/2000/svg" xmlns:xlink="http://www.w3.org/1999/xlink" x="0px" y="0px"
	 viewBox="0 0 13.4 19.3" style="enable-background:new 0 0 13.4 19.3;" xml:space="preserve">
<style type="text/css">
	.st0{fill:#231F20;}
</style>
<title>Plan de travail 1 copie</title>
<path class="st0" d="M6.7,5.1c-0.9,0-1.6,0.7-1.6,1.6c0,0.9,0.7,1.6,1.6,1.6c0.8,0,1.5-0.7,1.6-1.5C8.3,5.9,7.6,5.2,6.7,5.1
	C6.7,5.1,6.7,5.1,6.7,5.1z"/>
<path class="st0" d="M6.7,0C3,0,0,3,0,6.7c0,0,0,0,0,0.1c0,2.3,2.1,5.5,2.1,5.5l4.6,7l4.6-7c0,0,2.1-3.2,2.1-5.5
	C13.4,3,10.4,0,6.7,0C6.7,0,6.7,0,6.7,0z M6.7,9.1C5.3,9.1,4.2,8,4.2,6.7c0-1.3,1.1-2.4,2.4-2.4c1.3,0,2.4,1.1,2.4,2.4
	c0,0,0,0,0,0.1C9.1,8.1,8,9.1,6.7,9.1z"/>
</svg>
