<?xml version="1.0" encoding="utf-8"?>
<!-- Generator: Adobe Illustrator 22.0.1, SVG Export Plug-In . SVG Version: 6.00 Build 0)  -->
<svg version="1.1" id="Calque_1" xmlns="http://www.w3.org/2000/svg" xmlns:xlink="http://www.w3.org/1999/xlink" x="0px" y="0px"
	 viewBox="0 0 76.7 78.1" style="enable-background:new 0 0 76.7 78.1;" xml:space="preserve">
<style type="text/css">
	.st0{fill:none;}
	.st1{fill:#2A2929;}
	.st2{fill:#28ADE1;}
</style>
<g>
	<path class="st0" d="M74.7,50.3V2.7C74.7,2.3,74.4,2,74,2H2.7C2.3,2,2,2.3,2,2.7v47.6H74.7z M28,15c0-0.8,0.3-1.5,0.9-1.8
		c0.6-0.3,1.3-0.2,2,0.3l16.8,11.9c0.6,0.4,1,1.1,1,1.8c0,0.7-0.4,1.3-1,1.8L31,40.8c-0.4,0.3-0.9,0.4-1.3,0.4
		c-0.3,0-0.5-0.1-0.7-0.2c-0.6-0.3-0.9-1-0.9-1.8V15z"/>
	<path class="st0" d="M46.7,27.1c0,0,0-0.1-0.2-0.2L30,15.2v23.8l16.6-11.8C46.7,27.2,46.7,27.2,46.7,27.1z"/>
	<path class="st0" d="M2,52.3v23.1c0,0.4,0.3,0.7,0.7,0.7H74c0.4,0,0.7-0.3,0.7-0.7V52.3H2z M13.2,65.1H8.1v-2h5.1V65.1z M25.8,66.9
		c0,1.3-1,2.3-2.3,2.3h-6.3c-1.3,0-2.3-1-2.3-2.3v-6.3c0-1.3,1-2.3,2.3-2.3h6.3c1.3,0,2.3,1,2.3,2.3V66.9z M68.6,65.1H28v-2h40.6
		V65.1z"/>
	<path class="st1" d="M28.9,41.1c0.2,0.1,0.5,0.2,0.7,0.2c0.4,0,0.9-0.2,1.3-0.4l16.8-11.9c0.6-0.4,1-1.1,1-1.8c0-0.7-0.4-1.4-1-1.8
		L31,13.4c-0.7-0.5-1.4-0.6-2-0.3c-0.6,0.3-0.9,1-0.9,1.8v24.3C28,40.1,28.3,40.8,28.9,41.1z M30,15.2L46.6,27
		c0.1,0.1,0.1,0.2,0.2,0.2c0,0,0,0.1-0.2,0.2L30,39.1V15.2z"/>
	<path class="st1" d="M74,0H2.7C1.2,0,0,1.2,0,2.7v72.7c0,1.5,1.2,2.7,2.7,2.7H74c1.5,0,2.7-1.2,2.7-2.7V2.7C76.7,1.2,75.5,0,74,0z
		 M2.7,2H74c0.4,0,0.7,0.3,0.7,0.7v47.6H2V2.7C2,2.3,2.3,2,2.7,2z M74,76.1H2.7c-0.4,0-0.7-0.3-0.7-0.7V52.3h72.7v23.1
		C74.7,75.8,74.4,76.1,74,76.1z"/>
	<path class="st2" d="M23.5,60.2h-6.3c-0.2,0-0.3,0.1-0.3,0.3v6.3c0,0.2,0.1,0.3,0.3,0.3h6.3c0.2,0,0.3-0.1,0.3-0.3v-6.3
		C23.8,60.4,23.7,60.2,23.5,60.2z"/>
	<path class="st1" d="M23.5,58.2h-6.3c-1.3,0-2.3,1-2.3,2.3v6.3c0,1.3,1,2.3,2.3,2.3h6.3c1.3,0,2.3-1,2.3-2.3v-6.3
		C25.8,59.3,24.8,58.2,23.5,58.2z M23.8,66.9c0,0.2-0.1,0.3-0.3,0.3h-6.3c-0.2,0-0.3-0.1-0.3-0.3v-6.3c0-0.2,0.1-0.3,0.3-0.3h6.3
		c0.2,0,0.3,0.1,0.3,0.3V66.9z"/>
	<rect x="8.1" y="63.1" class="st1" width="5.1" height="2"/>
	<rect x="28" y="63.1" class="st1" width="40.6" height="2"/>
</g>
</svg>
