<?xml version="1.0" encoding="utf-8"?>
<!-- Generator: Adobe Illustrator 22.0.1, SVG Export Plug-In . SVG Version: 6.00 Build 0)  -->
<svg version="1.1" id="Calque_1" xmlns="http://www.w3.org/2000/svg" xmlns:xlink="http://www.w3.org/1999/xlink" x="0px" y="0px"
	 viewBox="0 0 63.4 64.6" style="enable-background:new 0 0 63.4 64.6;" xml:space="preserve">
<title>Plan de travail 6</title>
<path d="M24.6,34.3c-0.2,0-0.5-0.1-0.7-0.2c-0.6-0.3-0.9-1-0.9-1.6v-20c-0.1-0.9,0.6-1.7,1.5-1.8c0.4,0,0.9,0.1,1.2,0.4l13.8,9.8
	c0.9,0.6,1.2,1.8,0.6,2.7c-0.2,0.2-0.4,0.4-0.6,0.6l-13.8,9.8C25.4,34.1,25,34.3,24.6,34.3z M25,13v18.9l13.3-9.5L25,13z"/>
<path d="M61,64.6H2.4c-1.3,0-2.4-1.1-2.4-2.4l0,0V2.4C0,1.1,1.1,0,2.4,0h0H61c1.3,0,2.4,1.1,2.4,2.4v0v59.8
	C63.4,63.5,62.3,64.6,61,64.6L61,64.6z M2.4,2C2.2,2,2,2.2,2,2.4v59.8c0,0.2,0.2,0.4,0.4,0.4H61c0.2,0,0.4-0.2,0.4-0.4V2.4
	C61.4,2.2,61.2,2,61,2L2.4,2z"/>
<path d="M19.5,57.2h-5.2c-1.1,0-2.1-0.9-2.1-2.1v-5.2c0-1.1,0.9-2.1,2.1-2.1c0,0,0,0,0,0h5.2c1.1,0,2.1,0.9,2.1,2.1v5.2
	C21.6,56.3,20.6,57.2,19.5,57.2C19.5,57.2,19.5,57.2,19.5,57.2z M14.3,49.9l-0.1,5.3c0,0,0,0.1,0.1,0.1h5.2l0.1-5.3L14.3,49.9z"/>
<rect x="6.9" y="51.9" width="4.2" height="2"/>
<rect x="23.2" y="51.9" width="33.4" height="2"/>
<rect x="1.8" y="41.4" width="60.8" height="2"/>
</svg>
