<?xml version="1.0" encoding="utf-8"?>
<!-- Generator: Adobe Illustrator 22.0.1, SVG Export Plug-In . SVG Version: 6.00 Build 0)  -->
<svg version="1.1" id="Calque_1" xmlns="http://www.w3.org/2000/svg" xmlns:xlink="http://www.w3.org/1999/xlink" x="0px" y="0px"
	 viewBox="0 0 63.8 63.6" style="enable-background:new 0 0 63.8 63.6;" xml:space="preserve">
<title>Plan de travail 1</title>
<path d="M13.5,59.4l-9.2-9.2l10.6-10.6l9.2,9.2L13.5,59.4z M6.8,50.2l6.7,6.7l8.2-8.2l-6.7-6.7L6.8,50.2z"/>
<path d="M6.8,63.3c-0.8,0-1.5-0.3-2-0.8l-3.5-3.6c-1.1-1.1-1.1-2.8,0-3.9c0,0,0,0,0,0l4.5-4.5L7,51.7l-4.5,4.5
	c-0.4,0.4-0.4,1-0.1,1.4c0,0,0,0,0.1,0.1l3.5,3.6c0.4,0.4,1.1,0.4,1.5,0l4.5-4.4l1.2,1.2l-4.5,4.5C8.3,63,7.6,63.3,6.8,63.3z"/>
<rect x="8.7" y="23.7" transform="matrix(0.7071 -0.7071 0.7071 0.7071 -7.7027 30.4927)" width="48.6" height="1.7"/>
<rect x="14.9" y="29.9" transform="matrix(0.7071 -0.7071 0.7071 0.7071 -10.2948 36.7548)" width="48.6" height="1.7"/>
<path d="M56.4,14.9l-7.6-7.6L63.8,0L56.4,14.9z M51.8,7.8l4.2,4.2l4-8.2L51.8,7.8z"/>
<rect x="11.8" y="26.8" transform="matrix(0.7071 -0.7071 0.7071 0.7071 -8.9972 33.6273)" width="48.6" height="1.7"/>
<path d="M22.5,28.6L11.1,15.3l3.7-3.7L28.1,23L22.5,28.6z M13.4,15.4l9.2,10.7l2.9-2.9L14.9,14L13.4,15.4z"/>
<path d="M29.9,27.7c-1.4-1.3-2.7-2.5-3.9-3.6l1.1-1.3c1.2,1.1,2.6,2.3,4,3.7L29.9,27.7z"/>
<path d="M61.9,63.6c-0.7,0-1.8-0.6-3.6-2s-4.2-3.2-7.1-5.8c-5.7-5-12.8-11.6-19.1-17.9l1.2-1.2C45,48.3,56.4,58.3,60.5,61.1
	C57.8,57,47.8,45.6,36.1,33.9l1.2-1.2c6.2,6.3,12.9,13.4,17.8,19.1c2.6,2.9,4.5,5.3,5.8,7.1c1.9,2.6,2.3,3.7,1.6,4.4
	C62.5,63.5,62.2,63.6,61.9,63.6z"/>
<path d="M25.9,31.6c-1.3-1.4-2.6-2.8-3.7-4l1.3-1.2c1.1,1.2,2.3,2.5,3.6,3.9L25.9,31.6z"/>
<path d="M12.3,16.1c-2.7-0.3-5.1-1.5-6.9-3.5C1.4,8.6,0.2,2,0.2,1.8L0,0.5l1.2,0.2c0.3,0,6.9,1.2,10.9,5.2c2,1.8,3.2,4.3,3.5,6.9
	h-1.7c-0.3-2.2-1.3-4.2-3-5.7C8.2,4.5,4.2,3.2,2.2,2.7c0.5,2,1.8,6,4.4,8.6c1.5,1.7,3.5,2.7,5.7,3L12.3,16.1z"/>
</svg>
