<?xml version="1.0" encoding="utf-8"?>
<!-- Generator: Adobe Illustrator 22.0.1, SVG Export Plug-In . SVG Version: 6.00 Build 0)  -->
<svg version="1.1" id="Calque_1" xmlns="http://www.w3.org/2000/svg" xmlns:xlink="http://www.w3.org/1999/xlink" x="0px" y="0px"
	 viewBox="0 0 86.4 77.4" style="enable-background:new 0 0 86.4 77.4;" xml:space="preserve">
<style type="text/css">
	.st0{fill:none;}
	.st1{fill:#2A2929;}
	.st2{fill:#28ADE1;}
</style>
<g>
	<path class="st0" d="M59,63.6l-9.5,7.9L32.2,55.8L18.9,70.6V74c0,0.7,0.6,1.4,1.4,1.4h45.9c0.7,0,1.4-0.6,1.4-1.4v-3.4L59,63.6z"/>
	<path class="st0" d="M61.6,46.5c0,4-3.3,7.3-7.3,7.3c-4,0-7.3-3.3-7.3-7.3c0-3.2,2.1-5.9,4.9-6.9H18.9v28L32.1,53l17.5,15.9L59,61
		l8.5,7.1V39.6H56.7C59.5,40.6,61.6,43.3,61.6,46.5z"/>
	<path class="st0" d="M69.5,57.5h4.6c0,0,0-0.1,0-0.1V39.5h-4.7V57.5z"/>
	<path class="st0" d="M12.2,39.5v17.9c0,0.1,0,0.1,0,0.1h4.6v-18H12.2z"/>
	<path class="st0" d="M81.4,15.8H5c-1.7,0-3,1.3-3,3v15.8c0,1.7,1.3,3,3,3h76.4c1.7,0,3-1.3,3-3V18.8C84.4,17.1,83,15.8,81.4,15.8z"
		/>
	<rect x="15.9" y="2" class="st0" width="54.7" height="11.8"/>
	<path class="st2" d="M54.3,51.8c2.9,0,5.3-2.4,5.3-5.3s-2.4-5.3-5.3-5.3s-5.3,2.4-5.3,5.3S51.3,51.8,54.3,51.8z"/>
	<path class="st1" d="M81.4,13.8h-8.9V1.8c0-1-0.8-1.8-1.8-1.8h-55c-1,0-1.8,0.8-1.8,1.8v11.9H5c-2.8,0-5,2.2-5,5v15.8
		c0,2.8,2.2,5,5,5h5.2v17.9c0,1.2,0.9,2.1,1.9,2.1h4.7V74c0,1.8,1.5,3.4,3.4,3.4h45.9c1.8,0,3.4-1.5,3.4-3.4V59.5h4.7
		c1.1,0,1.9-1,1.9-2.1V39.5h5.2c2.8,0,5-2.2,5-5V18.8C86.4,16,84.1,13.8,81.4,13.8z M15.9,2h54.7v11.8H15.9V2z M12.3,57.5
		c0,0,0-0.1,0-0.1V39.5h4.7v18H12.3z M67.5,68.1L59,61l-9.5,7.9L32.1,53L18.9,67.6v-28h32.9c-2.9,1-4.9,3.7-4.9,6.9
		c0,4,3.3,7.3,7.3,7.3c4,0,7.3-3.3,7.3-7.3c0-3.2-2.1-5.9-4.9-6.9h10.8V68.1z M54.3,41.2c2.9,0,5.3,2.4,5.3,5.3s-2.4,5.3-5.3,5.3
		s-5.3-2.4-5.3-5.3S51.3,41.2,54.3,41.2z M66.1,75.4H20.3c-0.7,0-1.4-0.6-1.4-1.4v-3.4l13.3-14.8l17.3,15.7l9.5-7.9l8.5,7.1V74
		C67.5,74.8,66.9,75.4,66.1,75.4z M74.1,57.4c0,0.1,0,0.1,0,0.1h-4.6v-18h4.7V57.4z M84.4,34.5c0,1.7-1.3,3-3,3H5c-1.7,0-3-1.3-3-3
		V18.8c0-1.7,1.3-3,3-3h76.4c1.7,0,3,1.3,3,3V34.5z"/>
</g>
</svg>
