<?xml version="1.0" encoding="utf-8"?>
<!-- Generator: Adobe Illustrator 22.0.1, SVG Export Plug-In . SVG Version: 6.00 Build 0)  -->
<svg version="1.1" id="Calque_1" xmlns="http://www.w3.org/2000/svg" xmlns:xlink="http://www.w3.org/1999/xlink" x="0px" y="0px"
	 viewBox="0 0 71.4 64" style="enable-background:new 0 0 71.4 64;" xml:space="preserve">
<title>Plan de travail 2</title>
<path d="M54.5,64H16.8c-1.6,0-2.9-1.3-2.9-2.9c0,0,0,0,0-0.1V31.9c0-0.6,0.4-1,1-1h41.6c0.6,0,1,0.4,1,1V61
	C57.5,62.6,56.2,64,54.5,64C54.6,64,54.6,64,54.5,64z M15.9,32.9V61c0,0.5,0.4,0.9,0.9,0.9l0,0h37.7c0.5,0,0.9-0.4,0.9-0.9
	c0,0,0,0,0,0V32.9H15.9z"/>
<polygon points="40.9,59.2 26.7,46.3 15.6,58.6 14.2,57.2 26.5,43.5 40.9,56.6 48.7,50.1 57.1,57.1 55.8,58.7 48.7,52.7 "/>
<path d="M44.8,44.6c-3.4,0-6.2-2.8-6.2-6.2s2.8-6.2,6.2-6.2S51,35,51,38.4v0C51,41.8,48.2,44.6,44.8,44.6z M44.8,34.2
	c-2.3,0-4.2,1.9-4.2,4.2c0,2.3,1.9,4.2,4.2,4.2c2.3,0,4.2-1.9,4.2-4.2c0,0,0,0,0,0C49,36.1,47.1,34.2,44.8,34.2z"/>
<path d="M66.4,32.9H5c-2.8,0-5-2.2-5-5V16.3c0-2.8,2.2-5,5-5h61.4c2.8,0,5,2.2,5,5v11.5C71.4,30.6,69.1,32.9,66.4,32.9z M5,13.3
	c-1.7,0-3,1.3-3,3v11.5c0,1.7,1.3,3,3,3h61.4c1.7,0,3-1.3,3-3V16.3c0-1.7-1.3-3-3-3H5z"/>
<path d="M60,12h-2V2H13.4v10h-2V1.7c0-0.9,0.7-1.7,1.7-1.7c0,0,0,0,0,0h45.2C59.2,0,60,0.8,60,1.7V12z"/>
<path d="M14.9,49.3h-4.7c-1,0-1.8-0.9-1.8-1.9V31.8h2v15.6h4.5L14.9,49.3z"/>
<path d="M61.2,49.3h-4.7v-2H61V31.8h2v15.6C63,48.4,62.2,49.3,61.2,49.3z"/>
</svg>
