<?xml version="1.0" encoding="utf-8"?>
<!-- Generator: Adobe Illustrator 22.0.1, SVG Export Plug-In . SVG Version: 6.00 Build 0)  -->
<svg version="1.1" id="Calque_1" xmlns="http://www.w3.org/2000/svg" xmlns:xlink="http://www.w3.org/1999/xlink" x="0px" y="0px"
	 viewBox="0 0 71.4 71.4" style="enable-background:new 0 0 71.4 71.4;" xml:space="preserve">
<title>Plan de travail 5</title>
<rect x="8" y="44.8" width="2" height="12.3"/>
<rect x="34.7" y="44.8" width="2" height="12.3"/>
<rect x="61.4" y="44.8" width="2" height="12.3"/>
<rect x="20.3" y="46.8" width="2" height="6.2"/>
<rect x="47" y="46.8" width="2" height="6.2"/>
<path d="M64.5,65.2H6.9c-3.8,0-6.9-3.1-6.9-6.9v-7.8c0-3.8,3.1-6.9,6.9-6.9h57.6c3.8,0,6.9,3.1,6.9,6.9v7.8
	C71.4,62.1,68.3,65.1,64.5,65.2z M6.9,45.6c-2.7,0-4.9,2.2-4.9,4.9v7.8c0,2.7,2.2,4.9,4.9,4.9h57.6c2.7,0,4.9-2.2,4.9-4.9v-7.8
	c0-2.7-2.2-4.9-4.9-4.9H6.9z"/>
<rect x="45.6" y="34.7" width="12.3" height="2"/>
<rect x="45.6" y="8" width="12.3" height="2"/>
<rect x="47.7" y="22.4" width="6.2" height="2"/>
<path d="M65,45.6H45.5c-0.6,0-1-0.4-1-1V2.1c0-1.1,0.9-2.1,2.1-2.1h17.4C65.1,0,66,0.9,66,2.1v42.5C66,45.2,65.6,45.6,65,45.6z
	 M46.5,43.6H64V2.1C64,2,64,2,63.9,2H46.5c0,0-0.1,0-0.1,0.1L46.5,43.6z"/>
<path d="M63.9,71.4H46.5c-1.1,0-2.1-0.9-2.1-2.1v-5.2c0-0.6,0.4-1,1-1H65c0.6,0,1,0.4,1,1v5.2C66,70.4,65.1,71.4,63.9,71.4z
	 M46.5,65.2v4.2c0,0,0,0.1,0.1,0.1h17.4c0,0,0.1,0,0.1-0.1v-4.2H46.5z"/>
</svg>
