<?xml version="1.0" encoding="utf-8"?>
<!-- Generator: Adobe Illustrator 22.0.1, SVG Export Plug-In . SVG Version: 6.00 Build 0)  -->
<svg version="1.1" id="Calque_1" xmlns="http://www.w3.org/2000/svg" xmlns:xlink="http://www.w3.org/1999/xlink" x="0px" y="0px"
	 viewBox="0 0 86.4 78.5" style="enable-background:new 0 0 86.4 78.5;" xml:space="preserve">
<style type="text/css">
	.st0{fill:none;}
	.st1{fill:#2A2929;}
	.st2{fill:#28ADE1;}
</style>
<g>
	<path class="st0" d="M2,48.3v5.8c0,3.3,2.7,6.1,6.1,6.1h27.2h15.8h27.2c3.3,0,6.1-2.7,6.1-6.1v-5.8H2z"/>
	<polygon class="st0" points="35,76.5 51.4,76.5 49.4,62.2 37,62.2 	"/>
	<path class="st0" d="M78.3,2H8.1C4.7,2,2,4.7,2,8.1v38.3h82.4V8.1C84.4,4.7,81.7,2,78.3,2z M50.3,30.8l-3.9,3.9l-3.9-3.8L40,35.3
		l-3.9-14.7L51,24.5l-4.6,2.5L50.3,30.8z"/>
	<path class="st1" d="M78.3,0H8.1C3.6,0,0,3.6,0,8.1v46.1c0,4.4,3.6,8.1,8.1,8.1H35L33,76.5h-6.2v2h5.9h21.1h5.9v-2h-6.2l-2.1-14.2
		h26.9c4.4,0,8.1-3.6,8.1-8.1V8.1C86.4,3.6,82.8,0,78.3,0z M51.4,76.5H35L37,62.2h12.3L51.4,76.5z M78.3,60.2H51.1H35.3H8.1
		c-3.3,0-6.1-2.7-6.1-6.1v-5.8h82.4v5.8C84.4,57.5,81.7,60.2,78.3,60.2z M84.4,46.3H2V8.1C2,4.7,4.7,2,8.1,2h70.3
		c3.3,0,6.1,2.7,6.1,6.1V46.3z"/>
	<polygon class="st2" points="48.2,24.8 37.5,22 40.3,32.6 42.2,29.1 46.4,33.2 48.8,30.8 44.7,26.7 	"/>
	<path class="st1" d="M36.1,20.6L40,35.3l2.5-4.5l3.9,3.8l3.9-3.9l-3.9-3.8l4.6-2.5L36.1,20.6z M46.4,33.2l-4.1-4.1l-1.9,3.5
		L37.5,22l10.7,2.8l-3.5,1.9l4.1,4.1L46.4,33.2z"/>
</g>
</svg>
