<?xml version="1.0" encoding="utf-8"?>
<!-- Generator: Adobe Illustrator 22.0.1, SVG Export Plug-In . SVG Version: 6.00 Build 0)  -->
<svg version="1.1" id="Calque_1" xmlns="http://www.w3.org/2000/svg" xmlns:xlink="http://www.w3.org/1999/xlink" x="0px" y="0px"
	 viewBox="0 0 126.7 114.1" style="enable-background:new 0 0 126.7 114.1;" xml:space="preserve">
<style type="text/css">
	.st0{fill:#58595B;}
</style>
<g>
	<g>
		<path class="st0" d="M6,91.3V6h101.9v50c2.1,0.5,4.1,1.2,6.1,2.1V3.9c0-2.1-1.7-3.9-3.9-3.9H3.9C1.7,0,0,1.7,0,3.9V95
			c0,2.1,1.7,3.9,3.9,3.9h65.8c-0.9-2.4-1.5-5-1.8-7.6H6z"/>
		<path class="st0" d="M76.5,46.9L61.1,57.4L42.4,35.1c-0.7-0.8-1.7-1.3-2.7-1.3c-1,0-2,0.4-2.7,1.2L9.5,57.7v30.1h58.2
			c0-17,13.1-31,29.8-32.5l-16.9-8.4C79.4,46,77.7,46,76.5,46.9"/>
		<path class="st0" d="M82.3,12.4c-4.6,0-8.3,3.7-8.3,8.3c0,4.6,3.7,8.3,8.3,8.3c4.6,0,8.3-3.7,8.3-8.3
			C90.6,16.1,86.9,12.4,82.3,12.4"/>
		<path class="st0" d="M104.4,90.6c-3.3,5.3-7.1,13.5-7.1,13.5s-3.4-5.1-6.4-9.5c-3.6-5.4-10.3-9.9-10.3-9.9s3.4,0,9.1,2.3
			c3.9,1.5,6.8,3.3,6.8,3.3s4.3-5.3,10-10.1c5.9-5,12.8-7.7,12.8-7.7S109.8,81.8,104.4,90.6 M100.4,61.5C85.8,61.5,74,73.3,74,87.8
			c0,14.5,11.8,26.3,26.3,26.3c14.5,0,26.3-11.8,26.3-26.3C126.7,73.3,114.9,61.5,100.4,61.5"/>
	</g>
</g>
</svg>
