<?xml version="1.0" encoding="utf-8"?>
<!-- Generator: Adobe Illustrator 22.0.1, SVG Export Plug-In . SVG Version: 6.00 Build 0)  -->
<svg version="1.1" id="Calque_1" xmlns="http://www.w3.org/2000/svg" xmlns:xlink="http://www.w3.org/1999/xlink" x="0px" y="0px"
	 viewBox="0 0 70.4 115.6" style="enable-background:new 0 0 70.4 115.6;" xml:space="preserve">
<style type="text/css">
	.st0{fill:#1D1D1B;}
</style>
<title>Plan de travail 2</title>
<path class="st0" d="M26.2,8.1l7.2,51.4H20.9l-7-49.7L26.2,8.1L26.2,8.1z M15.8,75h-0.4C9.7,75,5,79.7,5,85.4
	c0,5.7,4.6,10.4,10.4,10.4l0,0h0.4V75z M65.6,63v45c0,4.2-3.4,7.6-7.6,7.6c0,0,0,0,0,0H23.3c-4.2,0-7.6-3.4-7.6-7.6v-6.9h-0.4
	C6.7,100.9-0.2,93.6,0,84.9c0.2-8.4,7-15.1,15.3-15.3h0.4v-6.9h49.7L65.6,63L65.6,63z M65.4,6.1c0.5,3,1.7,5.8,3.6,8.2
	c1.2,1.6,1.7,3.6,1.4,5.6c-0.7,4-4.4,6.6-8.4,6c-4-0.7-6.6-4.4-6-8.4c0.4-2,1.6-3.7,3.2-4.8C61.8,11,63.9,8.8,65.4,6.1L65.4,6.1z
	 M61.9,59.5H50c0.4-2.9,0.8-5.4,1.1-7.3c0.2-1.4,0.5-2.7,0.8-4l11.6,2c-0.2,1.3-0.4,2.7-0.6,4S62.3,57.4,61.9,59.5L61.9,59.5z
	 M63.9,47.5l-11.3-2c1.6-6.3,3.9-12.5,6.8-18.3l4.3,0.8C64.5,34.4,64.5,40.9,63.9,47.5L63.9,47.5z M45.5,10.8h-0.8l-2-5.5h-2.3
	l-2,5.5h-0.8l4-10.8L45.5,10.8L45.5,10.8z M36.6,13.2l1.1-1.5l1.1,1.5v46.3h-2.2C36.6,59.5,36.6,13.2,36.6,13.2z M44.4,13.2l1.1-1.5
	l1.1,1.5v46.3h-2.1C44.4,59.5,44.4,13.2,44.4,13.2z M40.5,13.2l1.1-1.5l1.1,1.5v46.3h-2.1C40.5,59.5,40.5,13.2,40.5,13.2z"/>
</svg>
