<?xml version="1.0" encoding="utf-8"?>
<!-- Generator: Adobe Illustrator 22.0.1, SVG Export Plug-In . SVG Version: 6.00 Build 0)  -->
<svg version="1.1" id="Calque_1" xmlns="http://www.w3.org/2000/svg" xmlns:xlink="http://www.w3.org/1999/xlink" x="0px" y="0px"
	 viewBox="0 0 119.3 156.4" style="enable-background:new 0 0 119.3 156.4;" xml:space="preserve">
<style type="text/css">
	.st0{fill:#58595B;}
</style>
<g>
	<path class="st0" d="M25.1,96c0,0.2,0,0.3,0,0.5v0.2c0,0.2,0,0.4,0,0.7c0.1,5.5,1.4,10.8,3.7,15.7V95.6
		C27.5,95.6,26.3,95.8,25.1,96z"/>
	<path class="st0" d="M49.3,91.8c-2-2-4.3-3.7-6.8-5.1h-1.9l2.5,5.3l0.3,0.7l0.3,0.7v0.1l0,0l0,0l0,0l0,0l5.4,11.2h0.2L49.3,91.8z"
		/>
	<path class="st0" d="M49.3,91.8v12.8h-0.2l0.4,0.9l-1.3-0.9h-4.4c-0.8,5.8-2.6,11.3-5.5,16.3c-1.2,2.3-2.7,4.4-4.3,6.4
		c-2,2.4-3.4,3.4-5,3.4h-0.2v25.7h28.6v-54.3l-2.6-3.9C53.1,95.9,51.3,93.7,49.3,91.8z M43.1,142c-4,0-7.2-3.2-7.2-7.2
		s3.2-7.2,7.2-7.2s7.2,3.2,7.2,7.2S47.1,142,43.1,142L43.1,142z"/>
	<path class="st0" d="M59.7,76.8c0.4,4.9,0.8,9.8,1.2,14.8l0.4,4.3l1.1,13.4l-2.6-3.8v51h28.6V53.4H59.7V76.8z M67.8,67.1h12.4v11.1
		H67.8V67.1z M67.8,80.2h12.4v24.3H67.8V80.2z M74.1,127.6c4,0,7.2,3.2,7.2,7.2c0,4-3.2,7.2-7.2,7.2c-4,0-7.2-3.2-7.2-7.2
		C66.8,130.8,70.1,127.6,74.1,127.6C74.1,127.6,74.1,127.6,74.1,127.6z"/>
	<path class="st0" d="M90.7,53.4v103.1h28.6V53.4L90.7,53.4z M98.8,67.1h12.4v11.1H98.8V67.1z M98.8,80.3h12.4v24.3H98.8V80.3z
		 M105,142c-4,0-7.2-3.2-7.2-7.2s3.2-7.2,7.2-7.2c4,0,7.2,3.2,7.2,7.2C112.2,138.8,109,142,105,142L105,142z"/>
	<path class="st0" d="M8.7,48.4c-3.3,2.8-5.4,6.7-5.7,11C2,71.6,1,83.9,0,96.2c3.3-5,7.7-9.2,12.8-12.4C10.2,74.6,8.7,63,8.7,50.9
		C8.7,50,8.7,49.2,8.7,48.4z"/>
	<path class="st0" d="M54.7,59.4c-0.4-4.3-2.5-8.3-5.8-11c0,0.8,0,1.7,0,2.6c0,12-1.4,23.7-4.1,32.9c5.1,3.1,9.5,7.4,12.8,12.4
		C56.7,83.9,55.7,71.6,54.7,59.4z"/>
	<path class="st0" d="M28.9,0L28.9,0c-1.4,0-4.8,4.5-8.1,12h16.2C33.7,4.5,30.3,0,28.9,0z"/>
	<path class="st0" d="M45.4,50.9c0-1.1,0-2.3,0-3.4c-0.3-11-2.7-21.9-7.1-32h-19c-4.3,10.1-6.7,21-7,32c0,1.1,0,2.2,0,3.4
		c-0.1,10.8,1.2,21.6,4,32.1h2.5l0.7-1.5h18.7l0.7,1.5h2.5C44.2,72.6,45.5,61.8,45.4,50.9z M19.1,33c0-5.4,4.4-9.8,9.8-9.8
		c5.4,0,9.8,4.4,9.8,9.8c0,5.4-4.4,9.8-9.8,9.8c-2.6,0-5.1-1-6.9-2.9C20.1,38.1,19.1,35.6,19.1,33z"/>
	<path class="st0" d="M37.3,92.1c0.3,0.1,0.6,0.2,0.9,0.3c0.5,0.2,0.9,0.3,1.4,0.5l-3.6-7.7H21.8l-3.6,7.7c0.5-0.2,0.9-0.4,1.4-0.5
		s0.6-0.2,0.9-0.3l4.8-1.5v1.7c1.2-0.2,2.5-0.3,3.7-0.3H30h0.5h0.1h0.5l0.6,0.1l0.9,0.1v-1.7L37.3,92.1z"/>
	<path class="st0" d="M40.4,97.3l-0.3-0.1c-1-0.5-2.1-1-3.2-1.3l-0.8-0.2v0.2c0,0.2,0,0.5,0,0.7v0.1c0,0.2,0,0.5,0,0.7
		c0,12.9-7.4,23.3-7.4,23.3s-7.4-10.5-7.4-23.4v-0.8c0-0.2,0-0.5,0-0.7s0-0.2,0-0.2l-0.8,0.2c-1.1,0.4-2.2,0.8-3.2,1.3l-0.3,0.1
		c0,0.9-0.1,1.8-0.1,2.8c0,15,10.2,27.1,11.7,27.2l0,0c1.4-0.1,11.7-12.2,11.7-27.2C40.5,99.1,40.5,98.2,40.4,97.3z"/>
	<path class="st0" d="M33.2,37.4c1.2-1.2,1.8-2.7,1.8-4.4l0,0c0-3.4-2.8-6.2-6.2-6.2c-3.4,0-6.2,2.8-6.2,6.2c0,3.4,2.8,6.2,6.2,6.2
		C30.5,39.2,32.1,38.5,33.2,37.4z"/>
</g>
</svg>
