<?xml version="1.0" encoding="utf-8"?>
<!-- Generator: Adobe Illustrator 22.0.1, SVG Export Plug-In . SVG Version: 6.00 Build 0)  -->
<svg version="1.1" id="Calque_1" xmlns="http://www.w3.org/2000/svg" xmlns:xlink="http://www.w3.org/1999/xlink" x="0px" y="0px"
	 viewBox="0 0 123.9 128.9" style="enable-background:new 0 0 123.9 128.9;" xml:space="preserve">
<style type="text/css">
	.st0{fill:#58595B;}
</style>
<g>
	<path class="st0" d="M121.2,12.4L35.4,0c-1.7-0.2-3.3,1-3.6,2.7l-1.5,10.6l5,0.1l1.2-8.3L118.8,17l-9.6,66.6l-0.6,22.5
		c1.4-0.2,2.5-1.3,2.7-2.7L123.9,16C124.1,14.2,122.9,12.6,121.2,12.4"/>
	<path class="st0" d="M92.7,29.5c-0.2-1.7-1.7-3-3.5-2.9l-86.4,8c-1.7,0.2-3,1.7-2.9,3.5l8.1,88c0.2,1.7,1.7,3,3.5,2.9l86.4-8
		c1.7-0.2,3-1.7,2.9-3.5L92.7,29.5z M11.5,108.6L5.1,39.3l82.8-7.7l6.4,69.3L11.5,108.6z"/>
	<path class="st0" d="M65.4,67.2L53.7,77L36.8,60.3c-0.6-0.6-1.4-0.9-2.3-0.8c-0.8,0.1-1.6,0.5-2.1,1.2L11.8,81.1l2.3,24.5l77.2-7.1
		l-2.2-23.6L68.8,67C67.7,66.3,66.4,66.5,65.4,67.2"/>
	<path class="st0" d="M68.9,52.3c3.7-0.3,6.5-3.6,6.1-7.4c-0.3-3.7-3.6-6.5-7.4-6.1c-3.7,0.3-6.5,3.6-6.1,7.4
		C61.8,49.9,65.1,52.6,68.9,52.3"/>
	<path class="st0" d="M104.9,18l-86.7-2.2c-1.8,0-3.2,1.3-3.3,3.1l-0.3,11.7l5-0.5l0.2-9.4l83.2,2.1l-1.7,68.8l1.9,21
		c1.4-0.3,2.5-1.5,2.6-3l2.2-88.3C108,19.5,106.6,18.1,104.9,18"/>
</g>
</svg>
