<?xml version="1.0" encoding="utf-8"?>
<!-- Generator: Adobe Illustrator 22.0.1, SVG Export Plug-In . SVG Version: 6.00 Build 0)  -->
<svg version="1.1" id="Calque_1" xmlns="http://www.w3.org/2000/svg" xmlns:xlink="http://www.w3.org/1999/xlink" x="0px" y="0px"
	 viewBox="0 0 197 128.2" style="enable-background:new 0 0 197 128.2;" xml:space="preserve">
<style type="text/css">
	.st0{fill:#58595B;}
</style>
<g>
	<path class="st0" d="M162.1,29.1c3.7,0,7.2-1.4,9.8-3.9c2.6-2.5,4.1-6,4.1-9.7c0-7.6-6.2-13.7-13.8-13.7l0,0
		c-7.6,0-13.8,6-13.8,13.6c0,3.6,1.4,7.1,4,9.7C155,27.7,158.5,29.1,162.1,29.1z"/>
	<path class="st0" d="M98.6,28.1c3.7,0,7.2-1.4,9.8-3.9c2.6-2.6,4-6.1,4-9.7c0-7.6-6.1-13.7-13.7-13.7l0,0
		C91.2,0.5,84.8,6.4,84.6,14s5.7,13.9,13.2,14.1C98.1,28.1,98.4,28.1,98.6,28.1L98.6,28.1z"/>
	<path class="st0" d="M34.9,27.3c3.7,0,7.2-1.4,9.8-3.9c2.6-2.5,4.1-6,4.1-9.6C48.7,6.2,42.6,0,35,0c0,0,0,0,0,0l0,0
		c-7.5-0.2-13.9,5.7-14.1,13.2c-0.2,7.5,5.7,13.9,13.2,14.1C34.4,27.3,34.7,27.3,34.9,27.3L34.9,27.3z"/>
	<path class="st0" d="M124.1,60.3v-1l0.8-0.5c1.5-0.8,3.1-1.3,4.8-1.4l1-0.1l0.5,0.9c1.4,2.4,3.8,3.8,6.4,3.9h0.1
		c4.1,0,7.4-3.5,7.5-7.9V54c0-4.4-3.3-8-7.5-8h-0.1c-2.9,0-5.6,1.8-6.9,4.6l-0.4,1h-1c-1.6-0.2-3.1-0.8-4.4-1.9l-0.7-0.5v-0.9
		c0.4-6.6,1.1-12.9,1.4-15.3l-13.1-0.3h-0.1c-1.1-0.5-2.2-0.8-3.4-1c-1,0.6-6.8,3.9-10.7,4.1c-4.5,0.2-9.5-2.5-11.6-3.7
		c-0.2-0.1-0.4-0.2-0.6-0.3c-0.6-0.1-1.2,0-1.8,0.1l-13,0.3c0.3,2.4,1,8.8,1.4,15.3v0.9L72,48.8c-1.3,1-2.8,1.7-4.4,1.8h-1l-0.4-0.9
		c-1.3-2.8-3.9-4.6-6.8-4.6h-0.1c-4.1,0-7.4,3.6-7.5,8v0.1c0.1,4.4,3.4,7.9,7.5,7.9h0.1c2.6,0,5-1.5,6.4-3.9l0.5-0.9l1,0.1
		c1.7,0.1,3.3,0.6,4.8,1.4l0.8,0.5v1c-0.2,7-0.8,14.8-1,17.8l8-0.2l-4.2,50.6L93,127l0.3-43.3h5.1l1.6,43.8l17.9-0.2l-3-48.6v-0.8
		l10.4,0.3C124.9,75.1,124.4,67.2,124.1,60.3z"/>
	<path class="st0" d="M194.1,54l-0.1-0.4c-0.7-2.5-5.3-14.8-6-15.9c-2.1-1.2-10.8-5.3-12.2-5.9c-1.2,0.8-7,4.5-10.8,4.6
		c-4.5,0.2-9.7-2.6-11.6-3.8l-0.6-0.3c-0.1,0-0.8-0.2-4.7,0.9l0,0L128.8,33c0,0.2,0,0.5-0.1,0.9c-0.1,0.9-0.2,2.1-0.4,3.6
		c-0.4,3.6-0.7,7-0.9,10c0.4,0.2,0.8,0.4,1.2,0.6c1.9-3.3,5.4-5.3,9-5.3h0.1c5.8,0.1,10.4,5.1,10.5,11.3v0.1
		c-0.1,6.2-4.8,11.1-10.6,11.1h-0.1c-3.3,0-6.4-1.7-8.4-4.5c-0.6,0.1-1.3,0.3-1.9,0.5c0.2,6,0.7,12.4,0.9,15.8c0,0.4,0.1,0.8,0.1,1
		l18.1,0.2l-4.1,49.8l17.4-0.4l0.3-43.3h5.1l1.6,43.9l17.9-0.2l-5.4-78.1l6.1,9.2l2.3,16.3c0.8,0.6,5.1,3.7,7.5,2.5
		c1-0.5,1.6-1.7,1.8-3.6C197.6,66.1,195,57,194.1,54z"/>
	<path class="st0" d="M59.5,64.4h-0.1c-5.8,0-10.5-4.9-10.6-11.1v-0.1C48.8,47,53.5,42,59.2,41.9h0.1c3.7,0,7.1,2,9,5.4
		c0.4-0.2,0.8-0.3,1.2-0.6c-0.2-3.1-0.5-6.4-0.9-10c-0.2-1.5-0.3-2.7-0.4-3.6c0-0.4-0.1-0.7-0.1-0.9l-19.3,0.3l0,0
		c-3.9-1.1-4.6-0.9-4.7-0.9l-0.6,0.3c-1.9,1.1-7.1,3.9-11.6,3.7c-3.9-0.2-9.7-3.9-10.8-4.6c-1.4,0.7-10.1,4.8-12.3,5.9
		c-0.7,1.1-5.3,13.4-6,15.9l-0.1,0.4c-0.9,3-3.4,12.2-2.8,20.4c0.2,1.9,0.7,3.1,1.8,3.5c2.5,1.2,6.7-1.9,7.5-2.5l2.3-16.3l6.1-9.2
		l-5.4,78.1l17.9,0.2l1.6-43.8H37l0.3,43.3l17.4,0.4l-4.1-49.8l18.1-0.2c0-0.3,0-0.6,0.1-1c0.3-3.3,0.7-9.8,0.9-15.8
		c-0.6-0.2-1.2-0.4-1.9-0.5C65.9,62.7,62.8,64.4,59.5,64.4z"/>
</g>
</svg>
