<?xml version="1.0" encoding="utf-8"?>
<!-- Generator: Adobe Illustrator 22.0.1, SVG Export Plug-In . SVG Version: 6.00 Build 0)  -->
<svg version="1.1" id="Calque_1" xmlns="http://www.w3.org/2000/svg" xmlns:xlink="http://www.w3.org/1999/xlink" x="0px" y="0px"
	 viewBox="0 0 71.4 64.9" style="enable-background:new 0 0 71.4 64.9;" xml:space="preserve">
<title>Plan de travail 3</title>
<path d="M63.3,51.5H8.1c-4.5,0-8.1-3.6-8.1-8.1v0V8.1C0,3.6,3.6,0,8.1,0h55.2c4.5,0,8.1,3.6,8.1,8.1v35.4
	C71.4,47.9,67.8,51.5,63.3,51.5L63.3,51.5z M8.1,2C4.7,2,2,4.7,2,8.1v35.4c0,3.4,2.7,6.1,6.1,6.1h55.2c3.4,0,6.1-2.7,6.1-6.1V8.1
	c0-3.3-2.7-6.1-6.1-6.1H8.1z"/>
<path d="M43.4,64.9H28c-0.3,0-0.6-0.1-0.8-0.3C27,64.3,26.9,64,27,63.7l1.9-13.3c0.1-0.5,0.5-0.9,1-0.9h11.6c0.5,0,0.9,0.4,1,0.9
	l1.9,13.3c0,0.3,0,0.6-0.2,0.8C44,64.7,43.7,64.9,43.4,64.9z M29.1,62.9h13.1l-1.6-11.3h-9.8L29.1,62.9z"/>
<path d="M49.2,64.9h-27c-0.6,0-1-0.4-1-1s0.4-1,1-1h27c0.6,0,1,0.4,1,1S49.7,64.9,49.2,64.9z"/>
<rect x="1" y="38.1" width="69.4" height="2"/>
<path d="M33.9,27.6h-0.1c-0.4-0.1-0.7-0.3-0.8-0.7l-2-7.5c-0.1-0.4,0-0.7,0.3-1c0.3-0.3,0.6-0.4,1-0.3l7.5,2
	c0.4,0.1,0.7,0.4,0.7,0.8c0.1,0.4-0.2,0.8-0.5,1l-1.2,0.7l1.4,1.4c0.4,0.4,0.4,1,0,1.4c0,0,0,0,0,0l-1.9,1.9c-0.4,0.4-1,0.4-1.4,0
	l-1.4-1.4l-0.7,1.2C34.6,27.4,34.2,27.6,33.9,27.6z M35.2,23.3c0.3,0,0.5,0.1,0.7,0.3l1.7,1.6l0.4-0.5l-1.6-1.6
	c-0.4-0.4-0.4-1,0-1.4c0.1-0.1,0.1-0.1,0.2-0.2l0.2-0.1l-3.4-0.9l0.9,3.4l0.1-0.2c0.2-0.3,0.4-0.5,0.7-0.5L35.2,23.3z"/>
</svg>
