<?xml version="1.0" encoding="utf-8"?>
<!-- Generator: Adobe Illustrator 22.0.1, SVG Export Plug-In . SVG Version: 6.00 Build 0)  -->
<svg version="1.1" id="Calque_1" xmlns="http://www.w3.org/2000/svg" xmlns:xlink="http://www.w3.org/1999/xlink" x="0px" y="0px"
	 viewBox="0 0 16.2 16.6" style="enable-background:new 0 0 16.2 16.6;" xml:space="preserve">
<style type="text/css">
	.st0{fill:#231F20;}
</style>
<title>Plan de travail 1 copie 2</title>
<path class="st0" d="M0.4,5c0.2,0.4,0.4,0.9,0.8,1.2l9.4,9.4c1.4,1.4,3.6,1.4,5,0.1h0l0,0l0,0c0.9-1,0.8-2.5-0.1-3.4L9,5.6
	C8.8,5.4,8.5,5.2,8.2,5.1C7,4.5,5.6,5,5,6.1C4.7,6.8,4.7,7.6,5,8.2c0.1,0.3,0.3,0.6,0.5,0.8l4.7,4.7c0.2,0.2,0.5,0.2,0.6,0
	c0.1-0.1,0.1-0.2,0.1-0.3c0-0.1,0-0.2-0.1-0.3L6.2,8.4C5.6,7.9,5.5,6.9,6.1,6.3s1.5-0.7,2.1-0.1c0,0,0.1,0.1,0.1,0.1l6.5,6.5
	c0.1,0.1,0.2,0.2,0.2,0.3c0.2,0.6,0.1,1.2-0.4,1.7c-0.8,0.8-1.9,1-2.9,0.6c-0.2-0.1-0.5-0.3-0.7-0.5L1.9,5.5C0.9,4.5,0.9,2.8,2,1.8
	c1-0.9,2.6-0.9,3.6,0l9,9c0.2,0.2,0.5,0.2,0.6,0c0.2-0.2,0.2-0.5,0-0.7l-8.9-9C5.9,0.8,5.5,0.5,5,0.4C3.3-0.5,1.2,0.2,0.4,1.9
	C0.1,2.4,0,3,0,3.5C0,4,0.2,4.5,0.4,5z"/>
</svg>
