<?xml version="1.0" encoding="utf-8"?>
<!-- Generator: Adobe Illustrator 22.0.1, SVG Export Plug-In . SVG Version: 6.00 Build 0)  -->
<svg version="1.1" id="Calque_1" xmlns="http://www.w3.org/2000/svg" xmlns:xlink="http://www.w3.org/1999/xlink" x="0px" y="0px"
	 viewBox="0 0 25 25" style="enable-background:new 0 0 25 25;" xml:space="preserve">
<style type="text/css">
	.st0{fill:#30AADE;}
	.st1{fill:#FFFFFF;}
</style>
<title>Plan de travail 3 copie 3</title>
<g id="_Groupe_">
	<g id="_Groupe_2">
		<circle id="_Tracé_" class="st0" cx="12.5" cy="12.5" r="12.1"/>
		<path id="_Tracé_transparent_" class="st1" d="M12.5,25C5.6,25,0,19.4,0,12.5S5.6,0,12.5,0S25,5.6,25,12.5l0,0
			C25,19.4,19.4,25,12.5,25z M12.5,0.8C6.1,0.8,0.9,6,0.9,12.5c0,6.4,5.2,11.6,11.6,11.6s11.7-5.2,11.7-11.6
			C24.1,6,18.9,0.8,12.5,0.8z"/>
	</g>
	<g id="_Groupe_3">
		<polygon id="_Tracé_2" class="st1" points="14.4,15.5 6.9,15.5 6.9,14.6 13.5,14.6 13.5,5.4 14.4,5.4 		"/>
	</g>
</g>
</svg>
