<?xml version="1.0" encoding="utf-8"?>
<!-- Generator: Adobe Illustrator 22.1.0, SVG Export Plug-In . SVG Version: 6.00 Build 0)  -->
<svg version="1.1" id="Calque_1" xmlns="http://www.w3.org/2000/svg" xmlns:xlink="http://www.w3.org/1999/xlink" x="0px" y="0px"
	 viewBox="0 0 131.6 127.9" style="enable-background:new 0 0 131.6 127.9;" xml:space="preserve">
<style type="text/css">
	.st0{fill:#2DABE3;}
</style>
<g>
	<path d="M6.2,111c-0.2-4.5,0.3-13.5,6.5-17.9c3.6-2.5,8.1-3.6,13-4.6c7.6-1.7,16.3-3.6,22.7-12c1-1.3,4.4-6.8-4.5-17.7
		c-9.2-11.2-6.9-29.7-6-35.1c1.7-10,11.2-17.5,22.2-17.5c11,0,20.5,7.5,22.2,17.5c0.9,5.4,3.1,23.9-6,35.1
		C67,70,70.9,75.6,71.7,76.4c2.6,3.4,5.5,5.8,8.7,7.5c1.2-1.7,2.6-3.3,4.2-4.7c-2.9-1.4-5.6-3.4-7.9-6.4c-0.4-0.8-0.5-4.1,4.4-10.1
		c10.8-13.2,8.4-33.9,7.3-40C86.2,9.7,74,0,60.1,0S33.9,9.7,31.8,22.7c-1,6-3.4,26.8,7.4,40c4.8,5.9,4.8,9.2,4.4,10l0,0
		c-5,6.7-11.9,8.2-19.2,9.8c-5.2,1.2-10.6,2.4-15.2,5.6c-11.5,8.1-9,25.7-8.8,26.4l0.4,2.6h78.9c-1.2-1.9-2.2-4-3-6.1H6.2z"/>
	<path class="st0" d="M104.7,74.2c-14.8,0-26.8,12-26.8,26.8c0,14.8,12,26.8,26.8,26.8s26.8-12,26.8-26.8
		C131.6,86.2,119.5,74.2,104.7,74.2z M102.4,116.5L84.7,98.8l4.3-4.3l13.5,13.5l18.1-18.1l4.3,4.3L102.4,116.5z"/>
</g>
</svg>
