<?xml version="1.0" encoding="utf-8"?>
<!-- Generator: Adobe Illustrator 22.1.0, SVG Export Plug-In . SVG Version: 6.00 Build 0)  -->
<svg version="1.1" id="Calque_1" xmlns="http://www.w3.org/2000/svg" xmlns:xlink="http://www.w3.org/1999/xlink" x="0px" y="0px"
	 viewBox="0 0 81.7 133.8" style="enable-background:new 0 0 81.7 133.8;" xml:space="preserve">
<style type="text/css">
	.st0{fill:#2DABE3;}
</style>
<g>
	<g>
		<path d="M54.9,58.2c10.6-6.8,17.7-21,18.3-36.7h2.4c3.3,0,6.1-2.7,6.1-6.1V6.1c0-3.3-2.7-6.1-6.1-6.1H6.1C2.7,0,0,2.7,0,6.1v9.4
			c0,3.3,2.7,6.1,6.1,6.1h2.8c0.6,15.7,7.4,29.6,18,36.5c2.9,1.9,4.6,5,4.6,8.4v1c0,3.3-1.7,6.5-4.6,8.3
			c-10.6,6.9-17.4,20.8-18,36.5H6.1c-3.3,0-6.1,2.7-6.1,6.1v9.4c0,3.3,2.7,6.1,6.1,6.1h69.5c3.3,0,6.1-2.7,6.1-6.1v-9.4
			c0-3.3-2.7-6.1-6.1-6.1h-2.4c-0.6-15.7-7.7-29.9-18.3-36.7c-3-1.9-4.7-5-4.7-8.4v-0.5C50.2,63.3,51.9,60.1,54.9,58.2z M10.8,17.6
			H6.1c-1.1,0-2.1-0.9-2.1-2.1V6.1C4,4.9,4.9,4,6.1,4h69.5c1.1,0,2.1,0.9,2.1,2.1v9.4c0,1.1-0.9,2.1-2.1,2.1H10.8
			C10.8,17.6,10.8,17.6,10.8,17.6z M75.6,116.2c1.1,0,2.1,0.9,2.1,2.1v9.4c0,1.1-0.9,2.1-2.1,2.1H6.1c-1.1,0-2.1-0.9-2.1-2.1v-9.4
			c0-1.1,0.9-2.1,2.1-2.1h4.7c0,0,0,0,0,0H75.6z M18.2,112.2h-5.3c0.6-14.2,6.8-27,16.2-33.1c4-2.6,6.5-7,6.5-11.7v-1
			c0-4.7-2.4-9.1-6.5-11.7c-9.4-6.1-15.6-19-16.2-33.1h56.4c-0.6,14.3-6.9,27.2-16.4,33.3c-4.1,2.6-6.6,7-6.6,11.8v0.5
			c0,4.8,2.5,9.2,6.6,11.8c9.5,6.1,15.8,19,16.4,33.3h-5.7H18.2z"/>
		<g>
			<path d="M41.2,66.5c-0.1,0-0.1,0-0.2,0c-0.1,0-0.1,0-0.2,0c-1.9,0-3.4-1.5-3.4-3.4c0-2.8-1.5-5.5-3.9-7.1
				C27.1,51.8,22,45.2,18.7,37c-0.2-0.6-0.3-1.2-0.2-1.8c0.2-1.3,1-2.3,2.2-2.7c1.7-0.6,16.5-5.8,24.7,0.5
				c5.5,4.2,12.5,2.5,12.6,2.5c1.8-0.5,3.7,0.7,4.2,2.5c0.2,0.8,0.1,1.7-0.3,2.4c-3.3,6.6-7.9,12-13.2,15.5L48.5,56
				c-2.4,1.6-3.8,4.2-3.8,7.1C44.6,64.9,43.1,66.5,41.2,66.5z M34.6,32.8c-6.3,0-12.6,2.3-13,2.4c-0.2,0.1-0.3,0.2-0.4,0.5
				c0,0.1,0,0.2,0,0.3c3.1,7.7,7.8,13.8,13.7,17.6c3.3,2.2,5.3,5.8,5.3,9.5c0,0.3,0.3,0.6,0.6,0.6l0.2,0l0.2,0c0,0,0,0,0,0
				c0.4,0,0.6-0.3,0.6-0.6c0-3.8,1.9-7.3,5.2-9.5l0.1-0.1c4.9-3.2,9.1-8.2,12.2-14.4l0,0c0-0.1,0.1-0.2,0-0.4
				c-0.1-0.3-0.4-0.5-0.7-0.4c-0.1,0-8.4,2.1-15.1-3C41.2,33.4,37.9,32.8,34.6,32.8z"/>
		</g>
	</g>
	<path d="M40.8,71.6c-1.2,0-2.1,0.9-2.1,2.1c0,1.2,0.9,2.1,2.1,2.1s2.1-0.9,2.1-2.1C42.9,72.5,42,71.6,40.8,71.6z M40.8,75.6
		c-1.1,0-1.9-0.9-1.9-1.9c0-1.1,0.9-1.9,1.9-1.9c1.1,0,1.9,0.9,1.9,1.9C42.8,74.7,41.9,75.6,40.8,75.6z"/>
	<path d="M42.8,73.7c0,1.1-0.9,1.9-1.9,1.9c-1.1,0-1.9-0.9-1.9-1.9c0-1.1,0.9-1.9,1.9-1.9C41.9,71.8,42.8,72.6,42.8,73.7z"/>
	<path d="M44.8,77.9c-1.2,0-2.1,0.9-2.1,2.1c0,1.2,0.9,2.1,2.1,2.1s2.1-0.9,2.1-2.1C46.9,78.8,46,77.9,44.8,77.9z M44.8,81.9
		c-1.1,0-1.9-0.9-1.9-1.9c0-1.1,0.9-1.9,1.9-1.9c1.1,0,1.9,0.9,1.9,1.9C46.8,81,45.9,81.9,44.8,81.9z"/>
	<path d="M46.8,80c0,1.1-0.9,1.9-1.9,1.9c-1.1,0-1.9-0.9-1.9-1.9c0-1.1,0.9-1.9,1.9-1.9C45.9,78.1,46.8,78.9,46.8,80z"/>
	<path d="M37.4,80.2c-1.2,0-2.1,0.9-2.1,2.1c0,1.2,0.9,2.1,2.1,2.1s2.1-0.9,2.1-2.1C39.5,81.1,38.6,80.2,37.4,80.2z M37.4,84.2
		c-1.1,0-1.9-0.9-1.9-1.9c0-1.1,0.9-1.9,1.9-1.9c1.1,0,1.9,0.9,1.9,1.9C39.3,83.3,38.5,84.2,37.4,84.2z"/>
	<path d="M39.3,82.3c0,1.1-0.9,1.9-1.9,1.9c-1.1,0-1.9-0.9-1.9-1.9c0-1.1,0.9-1.9,1.9-1.9C38.5,80.4,39.3,81.2,39.3,82.3z"/>
	<path d="M44.8,84.8c-1.2,0-2.1,0.9-2.1,2.1c0,1.2,0.9,2.1,2.1,2.1s2.1-0.9,2.1-2.1C46.9,85.7,46,84.8,44.8,84.8z M44.8,88.8
		c-1.1,0-1.9-0.9-1.9-1.9c0-1.1,0.9-1.9,1.9-1.9c1.1,0,1.9,0.9,1.9,1.9C46.8,87.9,45.9,88.8,44.8,88.8z"/>
	<path d="M46.8,86.9c0,1.1-0.9,1.9-1.9,1.9c-1.1,0-1.9-0.9-1.9-1.9c0-1.1,0.9-1.9,1.9-1.9C45.9,84.9,46.8,85.8,46.8,86.9z"/>
	<path d="M51.1,88.8c-1.2,0-2.1,0.9-2.1,2.1c0,1.2,0.9,2.1,2.1,2.1c1.2,0,2.1-0.9,2.1-2.1C53.2,89.7,52.3,88.8,51.1,88.8z
		 M51.1,92.8c-1.1,0-1.9-0.9-1.9-1.9c0-1.1,0.9-1.9,1.9-1.9c1.1,0,1.9,0.9,1.9,1.9C53.1,91.9,52.2,92.8,51.1,92.8z"/>
	<path d="M53.1,90.9c0,1.1-0.9,1.9-1.9,1.9c-1.1,0-1.9-0.9-1.9-1.9c0-1.1,0.9-1.9,1.9-1.9C52.2,88.9,53.1,89.8,53.1,90.9z"/>
	<path d="M31.7,88.8c-1.2,0-2.1,0.9-2.1,2.1c0,1.2,0.9,2.1,2.1,2.1c1.2,0,2.1-0.9,2.1-2.1C33.8,89.7,32.8,88.8,31.7,88.8z
		 M31.7,92.8c-1.1,0-1.9-0.9-1.9-1.9c0-1.1,0.9-1.9,1.9-1.9c1.1,0,1.9,0.9,1.9,1.9C33.6,91.9,32.7,92.8,31.7,92.8z"/>
	<path d="M33.6,90.9c0,1.1-0.9,1.9-1.9,1.9c-1.1,0-1.9-0.9-1.9-1.9c0-1.1,0.9-1.9,1.9-1.9C32.7,88.9,33.6,89.8,33.6,90.9z"/>
	<path d="M39.1,87.6c-1.2,0-2.1,0.9-2.1,2.1c0,1.2,0.9,2.1,2.1,2.1s2.1-0.9,2.1-2.1C41.2,88.6,40.3,87.6,39.1,87.6z M39.1,91.6
		c-1.1,0-1.9-0.9-1.9-1.9c0-1.1,0.9-1.9,1.9-1.9c1.1,0,1.9,0.9,1.9,1.9C41,90.8,40.2,91.6,39.1,91.6z"/>
	<path d="M41,89.7c0,1.1-0.9,1.9-1.9,1.9c-1.1,0-1.9-0.9-1.9-1.9c0-1.1,0.9-1.9,1.9-1.9C40.2,87.8,41,88.7,41,89.7z"/>
</g>
</svg>
