<?xml version="1.0" encoding="utf-8"?>
<!-- Generator: Adobe Illustrator 22.0.1, SVG Export Plug-In . SVG Version: 6.00 Build 0)  -->
<svg version="1.1" id="Calque_1" xmlns="http://www.w3.org/2000/svg" xmlns:xlink="http://www.w3.org/1999/xlink" x="0px" y="0px"
	 viewBox="0 0 86.1 88.2" style="enable-background:new 0 0 86.1 88.2;" xml:space="preserve">
<style type="text/css">
	.st0{fill:none;}
	.st1{fill:#2A2929;}
	.st2{fill:#28ADE1;}
</style>
<g>
	<polygon class="st0" points="69.8,7.8 42.6,35 39.7,46.4 51.1,43.5 78.3,16.3 	"/>
	<path class="st2" d="M82.4,3.8C81.2,2.6,79.7,2,78.1,2c0,0,0,0,0,0c-1.6,0-3.1,0.6-4.3,1.8l-2.6,2.6l8.5,8.5l2.6-2.6
		c1.1-1.1,1.8-2.7,1.8-4.3S83.5,4.9,82.4,3.8z"/>
	<path class="st1" d="M78.1,0C78.1,0,78.1,0,78.1,0c-2.1,0-4.2,0.8-5.7,2.4L40.8,34l-3.2,12.8H12.5v2h24.6L37,49.1l15.1-3.8L80.5,17
		l3.3-3.3c1.5-1.5,2.4-3.5,2.4-5.7s-0.8-4.2-2.4-5.7C82.2,0.8,80.2,0,78.1,0z M79.7,14.9l-8.5-8.5l2.6-2.6C75,2.6,76.5,2,78.1,2
		c0,0,0,0,0,0c1.6,0,3.1,0.6,4.3,1.8c1.1,1.1,1.8,2.6,1.8,4.3s-0.6,3.1-1.8,4.3L79.7,14.9z M51.1,43.5l-11.4,2.8L42.6,35L69.8,7.8
		l8.5,8.5L51.1,43.5z"/>
	<rect x="12.5" y="27.3" class="st1" width="31.2" height="2"/>
	<rect x="12.5" y="37" class="st1" width="21.5" height="2"/>
	<path class="st1" d="M74.7,85.5c0,0.4-0.3,0.7-0.7,0.7H2.7c-0.4,0-0.7-0.3-0.7-0.7V13.2c0-0.4,0.3-0.7,0.7-0.7h41v-2h-41
		c-1.5,0-2.7,1.2-2.7,2.7v72.2c0,1.5,1.2,2.7,2.7,2.7H74c1.5,0,2.7-1.2,2.7-2.7V41.9h-2V85.5z"/>
</g>
</svg>
