<svg id="Calque_1" data-name="Calque 1" xmlns="http://www.w3.org/2000/svg" viewBox="0 0 196.9 168.61"><title>Plan de travail 3 copie 3</title><g id="_Groupe_" data-name="&lt;Groupe&gt;"><g id="_Groupe_2" data-name="&lt;Groupe&gt;"><g id="_Groupe_3" data-name="&lt;Groupe&gt;"><path id="_Tracé_transparent_" data-name="&lt;Tracé transparent&gt;" d="M134.64,76.4a11.07,11.07,0,0,0-11.1,11.06c0,5.35,4.19,10.35,9.77,10.35a7.18,7.18,0,0,0,3.25-.63l.09,0-10,13.41h4.59L142.18,96c2-2.64,3.66-5.51,3.66-8.85C145.84,81.19,140.44,76.4,134.64,76.4Zm.05,17.84a7,7,0,1,1,7.13-7A7,7,0,0,1,134.69,94.24Z"/><polygon id="_Tracé_" data-name="&lt;Tracé&gt;" points="148.69 80.08 155.49 80.08 155.49 110.62 159.73 110.62 159.73 75.84 151.53 75.84 148.69 80.08"/><polygon id="_Tracé_2" data-name="&lt;Tracé&gt;" points="164.12 80.08 170.76 80.08 170.76 110.62 175 110.62 175 75.84 166.97 75.84 164.12 80.08"/></g><path id="_Tracé_transparent_2" data-name="&lt;Tracé transparent&gt;" d="M109.68,86V89.9a12.68,12.68,0,0,0-8.13-3.2,12,12,0,0,0,0,23.93,12.67,12.67,0,0,0,8.13-3.19v3.18h3.39V86Zm0,12.65a8.13,8.13,0,1,1-8.13-8.13A8.13,8.13,0,0,1,109.69,98.67Z"/><path id="_Tracé_3" data-name="&lt;Tracé&gt;" d="M63.86,90.26V86h-.55a11.22,11.22,0,0,0-7.93,3.87V86H51.14v24.6h4.24v-12a8.21,8.21,0,0,1,7.93-8.4Z"/><path id="_Tracé_transparent_3" data-name="&lt;Tracé transparent&gt;" d="M82.83,102.14c-1.49,3.39-4.12,4.21-7,4.21a8.18,8.18,0,0,1-8-5.91H87.76l.08-.64a9.39,9.39,0,0,0,.07-1.19,12.07,12.07,0,1,0-12.07,12.12A12.46,12.46,0,0,0,87,103l.19-.85ZM75.84,90a8.45,8.45,0,0,1,8,6.18H67.89A8.43,8.43,0,0,1,75.84,90Z"/><g id="_Groupe_4" data-name="&lt;Groupe&gt;"><path id="_Tracé_4" data-name="&lt;Tracé&gt;" d="M46,99.59H45.8l-.26.74a13.59,13.59,0,0,1-11,5.88,13.37,13.37,0,1,1,11-21l.24.35,2.71-3.66a17.78,17.78,0,1,0-13.91,28.85,18.18,18.18,0,0,0,14-7.21Z"/></g></g></g></svg>