<!-- Generator: Adobe Illustrator 22.1.0, SVG Export Plug-In  -->
<svg version="1.1"
	 xmlns="http://www.w3.org/2000/svg" xmlns:xlink="http://www.w3.org/1999/xlink" xmlns:a="http://ns.adobe.com/AdobeSVGViewerExtensions/3.0/"
	 x="0px" y="0px" width="78.099px" height="70.364px" viewBox="0 0 78.099 70.364"
	 style="enable-background:new 0 0 78.099 70.364;" xml:space="preserve">
<style type="text/css">
	.st0{fill:#2A2929;}
</style>
<defs>
</defs>
<g>
	<g>
		<path class="st0" d="M3.73,56.275V3.73h62.81v30.844c1.297,0.309,2.544,0.743,3.731,1.29V2.398C70.272,1.074,69.197,0,67.873,0
			H2.398C1.074,0,0,1.074,0,2.398v56.177c0,1.323,1.074,2.398,2.398,2.398h40.564c-0.542-1.495-0.931-3.063-1.104-4.697H3.73z"/>
		<path class="st0" d="M47.156,28.906l-9.472,6.501l-11.57-13.736c-0.415-0.491-1.024-0.78-1.668-0.786
			c-0.635-0.006-1.259,0.271-1.682,0.755l-16.9,13.928v18.572h35.878c0.001-10.5,8.083-19.137,18.349-20.044l-10.397-5.162
			C48.938,28.392,47.924,28.38,47.156,28.906"/>
		<path class="st0" d="M50.763,7.663c-2.821,0-5.109,2.288-5.109,5.109c0,2.823,2.288,5.111,5.109,5.111
			c2.823,0,5.111-2.288,5.111-5.111C55.874,9.951,53.586,7.663,50.763,7.663"/>
		<path class="st0" d="M64.352,55.883c-2.043,3.293-4.397,8.306-4.397,8.306s-2.084-3.119-3.96-5.865
			c-2.25-3.299-6.348-6.135-6.348-6.135s2.113,0.026,5.591,1.392c2.398,0.942,4.192,2.043,4.192,2.043s2.664-3.254,6.15-6.202
			c3.616-3.059,7.908-4.76,7.908-4.76S67.721,50.45,64.352,55.883 M61.876,37.918c-8.959,0-16.223,7.264-16.223,16.223
			c0,8.961,7.264,16.223,16.223,16.223c8.959,0,16.223-7.262,16.223-16.223C78.099,45.181,70.836,37.918,61.876,37.918"/>
	</g>
</g>
</svg>