<!-- Generator: Adobe Illustrator 22.1.0, SVG Export Plug-In  -->
<svg version="1.1"
	 xmlns="http://www.w3.org/2000/svg" xmlns:xlink="http://www.w3.org/1999/xlink" xmlns:a="http://ns.adobe.com/AdobeSVGViewerExtensions/3.0/"
	 x="0px" y="0px" width="85.031px" height="88.443px" viewBox="0 0 85.031 88.443"
	 style="enable-background:new 0 0 85.031 88.443;" xml:space="preserve">
<style type="text/css">
	.st0{fill:#2A2929;}
</style>
<defs>
</defs>
<g>
	<path class="st0" d="M83.16,8.476L24.262,0.022c-1.192-0.171-2.297,0.657-2.467,1.848l-1.049,7.303l3.413,0.085l0.819-5.709
		l56.502,8.109l-6.563,45.729l-0.388,15.421c0.941-0.128,1.724-0.863,1.866-1.85l8.613-60.015C85.18,9.753,84.352,8.648,83.16,8.476
		"/>
	<path class="st0" d="M63.601,20.214c-0.111-1.197-1.173-2.08-2.371-1.97L1.981,23.718c-1.199,0.111-2.081,1.172-1.971,2.371
		l5.578,60.374c0.111,1.197,1.172,2.081,2.371,1.97l59.25-5.474c1.197-0.11,2.08-1.172,1.97-2.371L63.601,20.214z M7.89,74.532
		l-4.394-47.55l56.841-5.251l4.392,47.55L7.89,74.532z"/>
	<path class="st0" d="M44.899,46.134L36.87,52.81L25.252,41.346c-0.416-0.409-0.992-0.618-1.574-0.57
		c-0.576,0.048-1.117,0.35-1.46,0.824L8.09,55.616l1.552,16.806l52.977-4.894l-1.496-16.199l-13.925-5.38
		C46.468,45.52,45.549,45.595,44.899,46.134"/>
	<path class="st0" d="M47.242,35.858c2.555-0.236,4.433-2.497,4.197-5.052c-0.236-2.553-2.497-4.432-5.052-4.196
		c-2.553,0.236-4.432,2.497-4.198,5.051C42.426,34.215,44.689,36.094,47.242,35.858"/>
	<path class="st0" d="M71.955,12.381l-59.483-1.499c-1.203-0.031-2.204,0.92-2.234,2.124l-0.204,8.045l3.4-0.315l0.161-6.434
		L70.66,15.74l-1.19,47.18l1.329,14.388c0.978-0.193,1.726-1.044,1.753-2.081l1.527-60.612
		C74.11,13.411,73.158,12.412,71.955,12.381"/>
</g>
</svg>