<!-- Generator: Adobe Illustrator 22.1.0, SVG Export Plug-In  -->
<svg version="1.1"
	 xmlns="http://www.w3.org/2000/svg" xmlns:xlink="http://www.w3.org/1999/xlink" xmlns:a="http://ns.adobe.com/AdobeSVGViewerExtensions/3.0/"
	 x="0px" y="0px" width="88.33px" height="84.61px" viewBox="0 0 88.33 84.61" style="enable-background:new 0 0 88.33 84.61;"
	 xml:space="preserve">
<style type="text/css">
	.st0{fill:#2A2929;}
</style>
<defs>
</defs>
<g>
	<path class="st0" d="M15.958,72.695c0.411,0.277,0.893,0.42,1.374,0.421c0.361,0,0.725-0.081,1.061-0.244l20.718-10.068
		c0.08-0.039,0.155-0.085,0.229-0.132c0.017-0.01,0.035-0.018,0.051-0.029c0.112-0.074,0.214-0.16,0.311-0.25
		c0.033-0.031,0.065-0.063,0.096-0.096c0.082-0.085,0.158-0.175,0.227-0.271c0.011-0.016,0.026-0.028,0.037-0.044l30.791-45.278
		c0.359-0.539,0.498-1.182,0.377-1.825c-0.125-0.637-0.485-1.195-1.027-1.56L51.239,0.422c-1.114-0.756-2.627-0.469-3.386,0.647
		l-6.516,9.581c-0.001,0.002-0.002,0.003-0.003,0.004c-0.001,0.002-0.002,0.003-0.003,0.005L17.062,46.342
		c-0.055,0.081-0.103,0.164-0.147,0.249c-0.01,0.02-0.019,0.041-0.029,0.061c-0.034,0.07-0.065,0.141-0.091,0.214
		c-0.008,0.021-0.016,0.043-0.023,0.064c-0.029,0.086-0.054,0.174-0.073,0.262c-0.001,0.007-0.004,0.013-0.005,0.02
		c-0.02,0.097-0.034,0.195-0.042,0.294c-0.001,0.007-0.003,0.015-0.003,0.022l-1.747,22.966
		C14.832,71.365,15.239,72.208,15.958,72.695z M21.188,52.096l12.004,8.162L20.08,66.631L21.188,52.096z M43.994,15.408
		L58.93,25.563L37.398,57.226L22.466,47.07L43.994,15.408z M50.513,5.821l14.935,10.157l-3.778,5.555L46.735,11.378L50.513,5.821z"
		/>
	<path class="st0" d="M85.891,79.735H2.437C1.089,79.735,0,80.825,0,82.176c0,1.344,1.089,2.434,2.437,2.434h83.455
		c1.345,0,2.434-1.091,2.434-2.434C88.326,80.825,87.237,79.735,85.891,79.735z"/>
	<path class="st0" d="M85.891,68.558H44.948c-1.348,0-2.438,1.089-2.438,2.433c0,1.344,1.09,2.441,2.438,2.441h40.943
		c1.344,0,2.438-1.098,2.438-2.441C88.33,69.647,87.236,68.558,85.891,68.558z"/>
	<path class="st0" d="M54.153,59.811c0,1.345,1.09,2.436,2.434,2.436h29.306c1.344,0,2.436-1.09,2.436-2.436
		c0-1.344-1.093-2.44-2.436-2.44H56.588C55.243,57.372,54.153,58.467,54.153,59.811z"/>
</g>
</svg>