<?xml version="1.0" standalone="no"?>
<!DOCTYPE svg PUBLIC "-//W3C//DTD SVG 20010904//EN"
 "http://www.w3.org/TR/2001/REC-SVG-20010904/DTD/svg10.dtd">
<svg version="1.0" xmlns="http://www.w3.org/2000/svg"
 width="2272.000000pt" height="2272.000000pt" viewBox="0 0 2272.000000 2272.000000"
 preserveAspectRatio="xMidYMid meet">
<metadata>
Created by potrace 1.11, written by Peter Selinger 2001-2013
</metadata>
<g transform="translate(0.000000,2272.000000) scale(0.100000,-0.100000)"
fill="#000000" stroke="none">
<path d="M4428 16035 c-2 -2 -41 -6 -88 -9 -47 -4 -98 -8 -115 -10 -16 -3 -57
-7 -90 -11 -110 -12 -120 -14 -150 -19 -16 -3 -47 -8 -69 -11 -21 -4 -48 -9
-60 -11 -11 -2 -36 -7 -55 -10 -18 -3 -41 -7 -50 -10 -9 -2 -34 -8 -56 -13
-22 -5 -53 -13 -70 -16 -39 -8 -59 -13 -62 -15 -2 -2 -11 -3 -20 -4 -10 -1
-24 -5 -30 -9 -7 -5 -17 -5 -23 -2 -5 3 -10 2 -10 -2 0 -5 -8 -9 -17 -10 -10
-1 -40 -9 -67 -18 -26 -9 -58 -18 -69 -21 -11 -2 -36 -9 -56 -16 -20 -7 -38
-12 -41 -13 -3 0 -15 -6 -27 -13 -12 -7 -26 -11 -30 -10 -4 2 -21 -3 -38 -9
-16 -7 -61 -24 -100 -38 -38 -15 -79 -31 -90 -36 -18 -8 -73 -30 -85 -34 -12
-4 -101 -45 -170 -79 -41 -20 -80 -36 -87 -36 -6 0 -13 -3 -15 -8 -1 -4 -41
-27 -88 -51 -47 -24 -93 -50 -102 -59 -10 -8 -18 -11 -18 -7 0 4 -8 1 -17 -7
-10 -8 -52 -34 -93 -58 -41 -24 -79 -48 -85 -52 -5 -5 -46 -32 -90 -61 -44
-28 -109 -73 -145 -100 -36 -26 -75 -56 -88 -65 -13 -9 -32 -24 -42 -32 -10
-8 -35 -28 -56 -45 -187 -147 -455 -406 -614 -594 -25 -29 -55 -63 -67 -76
-13 -13 -23 -28 -23 -34 0 -5 -3 -11 -8 -13 -4 -1 -23 -23 -42 -48 -19 -25
-37 -47 -41 -50 -15 -12 -179 -249 -179 -258 0 -6 -6 -15 -12 -19 -7 -4 -20
-19 -28 -33 -27 -46 -150 -255 -160 -270 -12 -20 -180 -358 -180 -363 0 -3
-10 -26 -22 -53 -12 -27 -23 -53 -24 -59 -1 -5 -18 -48 -37 -95 -44 -107 -49
-123 -52 -135 -2 -5 -15 -46 -30 -90 -37 -111 -80 -260 -91 -315 -3 -14 -9
-41 -15 -60 -6 -19 -12 -48 -15 -65 -3 -16 -9 -43 -14 -60 -5 -16 -12 -50 -16
-75 -3 -25 -7 -52 -8 -60 -1 -8 -5 -24 -9 -35 -3 -11 -8 -42 -11 -70 -3 -27
-8 -61 -10 -75 -4 -24 -14 -102 -22 -180 -21 -204 -26 -630 -10 -810 4 -52 10
-113 11 -135 2 -22 6 -60 10 -84 3 -25 8 -63 10 -85 2 -23 4 -41 5 -41 1 0 3
-16 6 -35 2 -19 7 -46 10 -60 3 -14 8 -38 10 -55 5 -30 31 -164 40 -197 12
-49 15 -65 20 -88 3 -14 7 -30 8 -37 1 -7 5 -16 9 -19 4 -4 7 -19 7 -34 0 -15
3 -30 7 -34 4 -3 8 -12 9 -19 1 -7 12 -46 24 -87 12 -41 23 -79 25 -85 1 -5 7
-22 13 -38 7 -15 21 -55 32 -88 19 -60 105 -279 121 -309 12 -23 54 -114 55
-120 6 -32 228 -438 247 -451 5 -3 7 -8 6 -10 -3 -5 95 -158 155 -240 23 -32
48 -67 56 -79 13 -20 46 -62 96 -123 8 -9 14 -19 14 -22 0 -3 8 -13 18 -23 9
-10 28 -32 42 -49 51 -63 117 -137 183 -207 38 -39 81 -84 96 -101 37 -40 186
-179 247 -232 27 -23 63 -54 79 -68 17 -14 55 -45 85 -68 30 -23 69 -54 85
-69 17 -16 33 -28 37 -28 4 0 13 -6 20 -13 7 -7 29 -22 48 -34 20 -12 49 -33
65 -47 17 -15 44 -33 61 -41 17 -8 37 -21 44 -30 7 -8 18 -15 25 -15 8 0 15
-3 17 -7 4 -9 89 -63 168 -106 30 -16 60 -34 67 -39 9 -7 84 -46 258 -135 24
-12 96 -45 148 -67 20 -9 52 -22 70 -30 58 -26 235 -93 267 -101 3 -1 12 -5
20 -8 16 -6 138 -47 155 -52 6 -1 25 -6 43 -10 18 -4 35 -12 38 -16 3 -5 9 -7
14 -4 4 3 26 -2 48 -9 22 -8 53 -17 69 -19 15 -3 57 -13 93 -22 95 -23 101
-25 144 -30 21 -3 41 -7 46 -10 4 -2 27 -7 51 -10 45 -5 84 -12 84 -15 0 -1
14 -3 30 -5 95 -8 165 -17 200 -25 22 -5 249 -8 505 -6 477 4 551 6 560 17 3
4 28 9 55 13 28 3 60 8 71 10 20 4 36 7 131 22 21 3 42 9 48 12 5 3 18 7 30 8
11 1 43 8 70 14 28 6 57 13 65 15 8 1 35 9 60 16 25 7 48 13 53 15 4 1 9 3 12
4 3 1 10 4 15 5 6 1 11 3 13 4 1 2 12 4 24 7 12 2 75 22 140 44 65 22 123 42
128 44 6 1 24 8 40 15 17 6 44 17 60 23 17 6 34 15 40 20 5 4 15 8 23 8 7 0
37 11 65 24 29 13 77 34 107 46 30 13 62 29 71 37 8 7 19 13 23 13 7 0 136 63
226 111 25 13 47 27 48 32 2 4 8 7 12 7 13 0 134 72 138 82 2 4 8 8 14 8 5 0
29 14 53 30 24 17 48 30 54 30 6 0 11 4 11 8 0 5 11 14 25 20 14 7 31 17 38
22 7 6 58 44 115 85 57 41 119 86 139 102 114 90 192 154 221 181 17 16 32 28
32 26 0 -2 17 14 38 36 20 22 40 40 43 40 19 0 367 362 466 485 26 33 60 73
75 90 33 35 35 58 10 83 -10 10 -22 25 -25 33 -4 8 -15 26 -25 40 -9 14 -35
52 -57 85 -21 32 -52 76 -68 97 -16 20 -26 37 -23 37 3 0 -3 9 -14 20 -11 11
-20 26 -20 34 0 8 -4 16 -8 18 -5 2 -33 39 -63 83 -30 44 -57 82 -61 83 -5 2
-8 8 -8 13 0 9 -36 65 -50 79 -3 3 -9 13 -15 22 -54 93 -243 357 -252 353 -7
-2 -13 0 -13 6 0 6 -4 7 -10 4 -6 -3 -10 -15 -10 -25 0 -11 -6 -34 -14 -52 -8
-18 -20 -52 -26 -74 -13 -44 -101 -168 -222 -312 -88 -106 -374 -393 -417
-418 -17 -10 -31 -21 -31 -25 0 -4 -35 -33 -77 -65 -43 -33 -80 -62 -83 -65
-20 -25 -388 -259 -408 -259 -5 0 -15 -7 -22 -15 -7 -8 -16 -13 -20 -10 -5 3
-10 2 -12 -3 -4 -10 -190 -102 -206 -102 -7 0 -12 -4 -12 -10 0 -5 -7 -10 -15
-10 -8 0 -23 -4 -33 -10 -19 -10 -199 -81 -216 -85 -17 -3 -49 -16 -68 -25 -9
-5 -32 -12 -50 -15 -18 -4 -59 -15 -91 -25 -78 -26 -308 -77 -382 -86 -28 -3
-48 -6 -127 -20 -18 -3 -53 -7 -78 -10 -67 -7 -650 -12 -650 -5 0 6 -65 13
-137 15 -18 1 -33 3 -33 7 0 3 -17 6 -39 7 -21 2 -49 5 -62 8 -13 3 -37 7 -54
9 -16 2 -30 4 -30 5 0 1 -9 3 -20 5 -11 2 -36 7 -55 10 -19 4 -37 7 -40 7 -3
0 -15 4 -28 9 -13 5 -35 11 -50 14 -57 10 -72 14 -82 20 -6 4 -23 9 -38 11
-66 12 -348 114 -478 174 -138 62 -367 185 -411 219 -14 12 -32 21 -39 21 -8
0 -14 4 -14 8 0 4 -15 16 -32 27 -67 39 -222 153 -264 193 -7 6 -15 12 -18 12
-3 0 -14 8 -25 18 -10 9 -52 46 -92 82 -110 97 -315 309 -377 389 -7 9 -36 46
-65 84 -30 37 -76 100 -103 140 -27 39 -52 74 -56 75 -5 2 -8 8 -8 14 0 5 -13
29 -30 53 -16 24 -30 48 -30 54 0 6 -4 11 -10 11 -5 0 -10 6 -10 14 0 8 -6 21
-13 28 -16 16 -189 358 -181 358 3 0 -2 10 -10 22 -9 12 -16 30 -16 40 0 10
-5 18 -12 18 -6 0 -9 3 -6 6 3 3 -5 33 -19 67 -13 34 -26 67 -27 72 -2 6 -6
19 -10 30 -5 11 -12 32 -17 46 -6 14 -11 35 -12 47 -1 12 -4 22 -7 22 -4 0 -7
6 -7 13 -1 6 -17 72 -36 145 -20 73 -36 135 -36 137 -1 3 -1 6 -2 8 -1 1 -2
13 -4 27 -1 14 -5 39 -9 55 -3 17 -9 46 -12 65 -3 19 -7 46 -9 60 -3 14 -7 50
-11 80 -3 30 -7 66 -9 79 -22 132 -22 607 0 731 2 14 6 45 9 70 13 106 18 137
27 178 5 23 12 59 15 80 3 20 7 45 10 54 3 9 7 26 9 37 22 100 46 185 86 306
38 116 110 299 132 340 6 11 12 22 12 25 2 10 46 105 56 120 5 8 16 30 24 48
13 28 76 138 105 182 6 8 14 25 19 37 6 11 15 24 21 28 6 4 15 17 21 28 10 25
31 59 40 67 3 3 21 28 39 55 40 59 32 48 119 157 100 124 108 133 191 221 87
92 80 85 157 157 126 118 248 218 338 280 28 18 52 37 55 40 15 21 320 206
333 202 4 -1 7 2 7 7 0 7 28 19 47 19 3 0 9 5 12 10 6 10 180 95 219 106 12 4
22 11 22 15 0 4 6 8 13 8 6 0 55 17 107 38 52 20 100 38 105 40 6 1 17 5 25 8
24 9 90 29 103 31 7 1 17 4 22 8 8 4 50 16 85 23 3 0 22 7 42 14 21 7 42 10
48 6 5 -3 10 -2 10 3 0 5 6 9 13 9 20 1 80 14 88 19 5 3 30 7 56 10 26 2 64 9
83 14 32 8 193 28 230 29 8 0 29 3 45 6 17 3 83 7 147 9 64 2 121 6 126 10 5
3 12 3 14 0 3 -3 73 -7 154 -9 82 -2 158 -6 170 -9 11 -2 52 -7 90 -10 38 -3
80 -8 94 -11 13 -3 42 -7 65 -10 41 -6 71 -11 115 -21 14 -3 36 -7 50 -9 44
-7 85 -16 100 -22 8 -4 18 -6 22 -5 4 1 19 -3 33 -8 14 -5 39 -12 54 -15 16
-3 61 -16 99 -29 39 -13 73 -21 76 -18 4 3 6 0 6 -6 0 -7 3 -11 8 -11 4 1 10
0 15 -1 4 -1 10 -3 15 -4 21 -5 122 -41 157 -56 22 -10 60 -26 85 -36 93 -39
319 -154 424 -218 60 -36 111 -66 113 -66 2 0 9 -5 16 -10 33 -29 138 -100
147 -100 5 0 10 -4 10 -9 0 -5 15 -19 33 -30 19 -11 45 -31 59 -43 13 -13 45
-39 69 -58 91 -71 329 -303 400 -391 19 -22 45 -53 57 -67 28 -32 176 -231
212 -284 14 -21 27 -38 30 -38 3 0 20 21 37 48 18 26 44 60 58 76 14 16 25 32
25 36 0 3 8 15 18 26 10 10 32 39 49 64 17 25 39 55 49 67 11 12 35 45 54 73
47 67 167 229 191 258 10 12 19 25 19 30 0 4 13 21 28 39 15 18 45 58 67 89
22 31 45 62 50 68 20 23 55 75 55 83 0 4 -12 22 -26 38 -14 17 -38 46 -53 65
-14 19 -33 42 -41 51 -8 9 -51 56 -95 104 -129 142 -290 299 -411 400 -26 22
-55 47 -64 56 -9 8 -54 44 -101 79 -105 80 -106 81 -128 101 -10 9 -22 18 -27
20 -5 2 -49 31 -98 64 -203 137 -469 288 -641 365 -27 12 -77 35 -110 50 -33
16 -98 43 -145 60 -46 17 -98 37 -115 45 -27 12 -311 103 -395 125 -58 16
-191 48 -250 59 -30 6 -66 14 -80 17 -60 13 -118 22 -247 39 -21 3 -47 7 -59
9 -11 2 -56 7 -100 11 -43 4 -95 9 -114 11 -37 5 -617 13 -622 9z"/>
<path d="M16418 15680 c-67 -102 -126 -186 -130 -188 -5 -2 -8 -8 -8 -14 0 -5
-8 -20 -17 -33 -10 -12 -24 -31 -30 -41 -7 -11 -31 -45 -53 -77 -22 -32 -40
-62 -40 -67 0 -4 -3 -10 -7 -12 -5 -1 -62 -84 -128 -183 -66 -99 -123 -181
-127 -183 -5 -2 -8 -8 -8 -14 0 -6 -12 -27 -27 -47 -15 -20 -26 -38 -25 -39 2
-2 -5 -10 -15 -17 -10 -7 -15 -16 -12 -19 8 -8 122 -11 134 -4 6 3 19 2 30 -2
11 -4 30 -4 41 1 12 4 24 5 28 2 3 -3 69 -5 148 -4 79 1 150 1 158 1 8 1 63 0
123 -1 59 -1 110 1 113 4 3 3 16 2 28 -2 11 -5 30 -5 41 -1 11 4 24 5 29 3 4
-3 72 -5 150 -4 77 1 148 1 156 1 8 1 63 0 123 -1 59 -1 110 1 113 4 3 3 16 2
28 -2 11 -5 30 -5 41 -1 11 4 26 5 33 2 8 -3 73 -5 145 -6 l132 -1 1 -4000 c1
-2200 2 -4005 3 -4012 1 -8 141 -11 551 -11 l550 1 0 121 c1 153 1 9007 0
9021 0 7 -365 10 -1074 10 l-1074 0 -124 -185z"/>
<path d="M20610 15858 c-10 -4 -27 -20 -37 -35 -10 -15 -22 -31 -28 -35 -6 -5
-6 -8 0 -8 6 0 2 -5 -7 -11 -10 -5 -18 -14 -18 -19 0 -7 -340 -522 -367 -555
-21 -27 -249 -372 -255 -387 -4 -10 -11 -18 -16 -18 -5 0 -14 -11 -20 -25
l-12 -25 170 -1 c253 -1 299 -1 308 1 4 1 12 1 17 0 12 -2 206 -2 220 0 6 1
14 2 20 0 22 -4 697 -1 702 4 3 2 12 2 20 -1 8 -3 76 -6 151 -7 l137 -1 1
-4005 c1 -2203 2 -4008 3 -4011 0 -4 253 -7 561 -7 l560 1 -2 4576 -3 4575
-1043 1 c-574 0 -1052 -3 -1062 -7z"/>
<path d="M11938 15715 c-2 -1 -43 -5 -93 -9 -49 -3 -101 -8 -115 -10 -14 -3
-43 -7 -65 -10 -72 -9 -160 -23 -160 -26 0 -1 -11 -4 -25 -6 -59 -11 -268 -67
-295 -79 -16 -8 -33 -11 -37 -9 -4 3 -8 1 -8 -4 0 -5 -6 -9 -12 -9 -20 -1
-183 -66 -281 -112 -48 -22 -90 -41 -93 -40 -4 0 -10 -3 -13 -8 -3 -5 -22 -17
-41 -26 -67 -34 -196 -114 -315 -197 -12 -8 -35 -24 -51 -35 -16 -11 -36 -27
-44 -35 -9 -8 -36 -31 -60 -50 -135 -109 -313 -287 -412 -415 -12 -17 -31 -39
-41 -50 -10 -11 -26 -32 -35 -47 -9 -16 -20 -28 -24 -28 -4 0 -8 -5 -8 -10 0
-6 -17 -34 -38 -63 -42 -59 -59 -85 -69 -107 -4 -8 -10 -17 -13 -20 -9 -7
-121 -215 -145 -270 -11 -25 -24 -48 -30 -52 -5 -4 -7 -8 -3 -8 6 0 -2 -24
-37 -105 -7 -16 -17 -43 -23 -60 -6 -16 -14 -39 -18 -50 -4 -11 -8 -22 -9 -25
0 -3 -13 -43 -27 -90 -22 -73 -35 -121 -54 -202 -10 -43 -14 -65 -20 -102 -3
-22 -8 -44 -10 -48 -3 -4 -7 -31 -10 -60 -3 -29 -7 -66 -10 -83 -23 -165 -22
-480 1 -675 3 -33 6 -48 21 -140 3 -19 8 -46 10 -60 2 -14 7 -36 10 -50 3 -14
6 -26 5 -27 0 -2 9 -33 20 -70 11 -38 22 -77 24 -89 30 -143 196 -524 295
-679 11 -16 23 -37 27 -45 3 -8 9 -17 13 -20 3 -3 21 -30 40 -60 19 -30 37
-57 40 -60 3 -3 17 -21 30 -40 13 -19 27 -37 30 -40 3 -3 21 -25 40 -50 97
-127 311 -338 467 -461 7 -5 43 -30 80 -56 38 -26 70 -50 73 -53 3 -4 20 -13
38 -21 17 -8 32 -17 32 -21 0 -5 7 -8 15 -8 8 0 15 -4 15 -10 0 -5 6 -10 14
-10 7 0 25 -9 38 -20 14 -10 28 -17 30 -14 3 2 11 -2 18 -11 7 -8 16 -15 20
-15 4 0 52 -21 106 -47 55 -26 106 -48 114 -49 8 -2 23 -7 35 -13 25 -12 200
-70 229 -76 12 -2 23 -5 26 -6 3 -1 10 -3 15 -4 6 -2 12 -4 15 -5 12 -4 47
-11 78 -15 18 -2 36 -6 40 -9 7 -4 111 -19 140 -19 6 0 12 -3 12 -6 0 -20 602
-16 661 3 8 3 33 7 56 10 22 3 52 8 65 10 12 3 34 8 48 10 50 10 127 34 219
70 52 20 98 33 103 28 5 -5 -3 -22 -17 -38 -14 -16 -35 -44 -46 -61 -11 -18
-25 -33 -30 -33 -5 0 -9 -5 -9 -10 0 -6 -5 -16 -10 -23 -6 -7 -35 -46 -65 -87
-30 -41 -63 -86 -74 -100 -10 -14 -49 -65 -85 -115 -36 -49 -75 -101 -86 -115
-17 -22 -185 -249 -225 -305 -68 -94 -97 -130 -105 -133 -6 -2 -10 -8 -10 -13
0 -11 -81 -122 -92 -127 -5 -2 -8 -8 -8 -13 0 -5 -7 -17 -15 -26 -26 -32 -223
-298 -410 -553 -47 -63 -91 -122 -98 -130 -7 -8 -29 -37 -48 -65 -19 -27 -37
-51 -41 -53 -5 -2 -8 -10 -8 -18 0 -9 -4 -12 -10 -9 -5 3 -10 2 -10 -4 0 -7
-131 -193 -168 -236 -4 -5 -28 -37 -52 -70 -67 -92 -183 -249 -192 -260 -5 -5
-30 -39 -56 -75 -25 -36 -49 -67 -52 -70 -4 -3 -20 -25 -37 -50 -17 -25 -40
-56 -52 -69 -12 -13 -21 -27 -21 -31 0 -3 -8 -15 -18 -26 -10 -10 -29 -35 -42
-54 -13 -19 -29 -40 -35 -46 -5 -6 -17 -21 -25 -34 -8 -12 -88 -121 -178 -241
-89 -121 -163 -225 -165 -231 -1 -8 156 -12 592 -12 l593 -1 25 30 c39 48 47
58 64 85 9 14 28 39 43 55 14 17 26 33 26 37 0 4 10 16 22 28 12 11 19 20 16
20 -4 0 2 10 13 23 10 12 91 119 178 237 88 118 166 223 174 232 9 9 24 29 34
45 9 15 20 30 23 33 3 3 27 34 53 70 58 78 219 295 246 330 10 14 57 77 104
140 47 63 90 120 94 125 5 6 24 32 43 59 19 28 42 57 50 66 8 9 22 27 30 40 8
12 24 33 35 46 11 13 42 55 69 94 27 38 53 70 58 70 4 0 8 5 8 11 0 9 42 72
60 89 3 3 30 39 61 80 31 41 111 148 177 238 67 89 122 167 122 172 0 6 4 10
8 10 4 0 25 25 47 56 22 31 50 68 62 83 31 36 35 42 57 76 11 17 24 35 30 42
27 30 36 43 36 48 0 2 9 15 19 27 11 13 64 84 120 158 55 74 104 140 108 145
4 6 28 37 52 70 25 33 48 62 53 63 4 2 8 8 8 13 0 5 25 42 56 82 31 39 121
160 200 267 79 107 152 205 162 216 20 25 29 39 111 154 33 47 67 94 76 105 9
11 38 54 65 95 27 41 53 80 58 86 5 5 15 21 22 35 7 13 16 26 19 29 9 7 81
119 81 125 0 2 16 29 35 60 20 30 34 56 33 57 -2 2 7 17 18 33 35 49 133 236
184 350 12 28 32 73 45 100 12 28 28 68 35 90 7 22 16 45 21 51 5 6 6 14 2 17
-3 4 -2 7 3 7 6 0 16 24 23 53 8 28 18 58 24 65 5 6 7 12 3 12 -4 0 0 14 9 30
9 17 13 30 11 30 -3 0 1 18 9 40 8 22 12 40 10 40 -3 0 0 12 5 26 9 24 41 161
55 239 38 209 48 579 20 765 -2 14 -6 45 -9 70 -3 25 -8 56 -11 70 -21 106
-29 144 -46 205 -11 39 -19 71 -19 73 0 5 -5 24 -13 42 -3 8 -11 33 -17 55 -6
22 -16 50 -21 63 -5 12 -13 32 -18 45 -5 12 -17 42 -27 67 -11 24 -19 47 -19
50 -2 15 -110 226 -154 299 -28 46 -51 88 -51 92 0 4 -3 9 -8 11 -4 2 -23 28
-42 58 -19 30 -37 57 -41 60 -3 3 -29 35 -57 72 -122 162 -319 366 -472 488
-24 19 -48 40 -54 45 -6 6 -36 28 -66 50 -30 22 -56 43 -58 47 -2 5 -10 8 -18
8 -8 0 -14 4 -14 8 0 5 -10 14 -22 21 -27 14 -48 27 -107 65 -58 37 -130 78
-211 118 -36 18 -68 37 -71 41 -3 5 -9 9 -12 8 -4 0 -24 7 -44 16 -21 9 -40
17 -43 18 -3 0 -21 8 -40 17 -57 26 -133 56 -181 72 -72 23 -224 69 -226 68
-2 0 -17 4 -35 9 -18 6 -42 12 -53 14 -11 3 -40 9 -65 14 -25 6 -63 13 -84 16
-21 3 -48 8 -60 10 -12 3 -41 7 -66 10 -25 3 -65 8 -90 11 -46 5 -427 13 -432
9z m447 -990 c32 -7 42 -9 115 -20 77 -12 280 -84 388 -138 149 -75 157 -79
160 -89 2 -4 8 -8 12 -8 15 0 102 -61 200 -141 95 -78 228 -209 285 -282 17
-21 35 -44 41 -50 10 -12 107 -153 132 -192 6 -11 27 -49 45 -85 17 -36 35
-67 38 -70 8 -6 69 -149 69 -160 0 -4 8 -25 17 -46 9 -22 18 -43 19 -49 2 -5
5 -19 8 -30 3 -11 15 -56 27 -100 11 -44 22 -93 24 -110 2 -16 4 -30 5 -30 10
0 20 -434 10 -440 -4 -2 -7 -25 -9 -51 -1 -26 -4 -51 -7 -55 -2 -4 -7 -27 -10
-51 -3 -24 -8 -50 -10 -58 -3 -8 -8 -26 -10 -40 -10 -52 -87 -267 -120 -336
-19 -39 -34 -76 -34 -83 0 -6 -4 -11 -10 -11 -5 0 -10 -7 -10 -15 0 -8 -5 -15
-10 -15 -6 0 -9 -3 -8 -7 3 -8 -69 -133 -82 -143 -3 -3 -26 -34 -52 -70 -25
-36 -59 -79 -74 -96 -16 -17 -38 -41 -50 -55 -40 -46 -150 -144 -232 -208 -76
-58 -253 -170 -277 -176 -5 -1 -45 -18 -88 -39 -43 -20 -84 -36 -92 -36 -8 0
-17 -4 -20 -10 -3 -5 -17 -10 -31 -10 -13 0 -24 -4 -24 -8 0 -5 -6 -9 -12 -9
-7 0 -38 -8 -68 -16 -30 -9 -66 -18 -80 -21 -30 -6 -65 -13 -105 -22 -16 -4
-41 -8 -55 -10 -14 -1 -61 -5 -105 -10 -98 -9 -261 -10 -335 -1 -55 7 -64 9
-150 22 -25 4 -52 8 -60 9 -9 1 -20 5 -26 8 -6 4 -21 9 -35 12 -70 15 -116 29
-177 52 -110 43 -362 169 -398 199 -41 35 -55 45 -63 45 -4 0 -16 9 -26 20
-10 11 -20 18 -22 16 -3 -2 -12 3 -22 12 -9 9 -39 35 -66 57 -75 61 -193 181
-265 270 -35 44 -67 82 -70 85 -4 3 -9 12 -13 20 -9 21 -29 50 -47 71 -8 10
-24 35 -35 56 -11 21 -22 40 -25 43 -7 7 -90 177 -90 185 0 4 -6 21 -14 38
-25 55 -69 196 -82 262 -28 137 -34 193 -38 355 -1 63 1 120 6 127 5 6 5 14
-2 18 -6 3 -7 11 -4 17 4 6 8 29 10 52 1 22 3 41 4 41 1 0 3 11 5 25 3 25 10
62 20 110 3 14 8 35 11 48 26 127 140 389 225 518 71 109 83 126 103 147 11
13 34 41 51 62 54 72 218 230 311 300 21 16 41 33 42 37 2 4 9 8 17 8 7 0 18
7 26 16 7 8 29 24 48 35 20 11 54 31 76 44 55 35 196 105 210 105 6 0 16 5 23
12 6 6 17 13 24 14 7 1 65 20 128 42 100 35 151 49 245 67 20 4 66 11 140 21
22 3 41 7 42 8 6 6 360 -3 388 -9z"/>
</g>
</svg>
